<svg id="svg" version="1.1" xmlns="http://www.w3.org/2000/svg" xmlns:xlink="http://www.w3.org/1999/xlink" width="400" height="523.0769230769231" viewBox="0, 0, 400,523.0769230769231"><g id="svgg"><path id="path0" d="M169.870 328.663 C 169.535 328.999,169.509 346.897,169.843 347.767 C 170.060 348.332,172.195 348.400,189.835 348.400 L 209.585 348.400 209.805 347.500 C 209.927 347.005,209.975 342.550,209.913 337.600 L 209.800 328.600 189.970 328.496 C 179.064 328.439,170.019 328.514,169.870 328.663 " stroke="none" fill="#f41c74" fill-rule="evenodd"></path><path id="path1" d="M147.600 60.400 L 147.600 80.800 138.600 80.800 L 129.600 80.800 129.600 70.600 L 129.600 60.400 107.800 60.400 L 86.000 60.400 86.000 101.400 L 86.000 142.400 75.800 142.400 L 65.600 142.400 65.600 152.600 L 65.600 162.800 55.400 162.800 L 45.200 162.800 45.200 174.200 L 45.200 185.600 55.400 185.600 L 65.600 185.600 65.600 216.400 L 65.600 247.200 75.800 247.200 L 86.000 247.200 86.000 297.400 L 86.000 347.600 75.800 347.600 L 65.600 347.600 65.600 389.800 L 65.600 432.000 75.793 432.000 L 85.986 432.000 86.093 442.100 L 86.200 452.200 118.100 452.302 L 150.000 452.405 150.000 442.202 L 150.000 432.000 160.200 432.000 L 170.400 432.000 170.400 401.200 L 170.400 370.400 189.800 370.400 L 209.200 370.400 209.200 401.200 L 209.200 432.000 219.393 432.000 L 229.586 432.000 229.693 442.100 L 229.800 452.200 261.700 452.302 L 293.600 452.405 293.600 442.202 L 293.600 432.000 303.800 432.000 L 314.000 432.000 314.000 400.000 L 314.000 368.000 303.800 368.000 L 293.600 368.000 293.600 359.000 L 293.600 350.000 303.800 350.000 L 314.000 350.000 314.000 338.400 L 314.000 326.800 303.800 326.800 L 293.600 326.800 293.600 287.000 L 293.600 247.200 303.800 247.200 L 314.000 247.200 314.000 194.800 L 314.000 142.400 303.800 142.400 L 293.600 142.400 293.600 101.400 L 293.600 60.400 261.600 60.400 L 229.600 60.400 229.600 70.600 L 229.600 80.800 220.600 80.800 L 211.600 80.800 211.600 70.600 L 211.600 60.400 191.000 60.400 L 170.400 60.400 170.400 50.200 L 170.400 40.000 159.000 40.000 L 147.600 40.000 147.600 60.400 M127.520 82.880 C 127.880 83.240,128.000 88.225,128.000 102.851 C 128.000 120.038,128.074 122.417,128.629 122.971 C 129.590 123.933,250.010 123.933,250.971 122.971 C 251.526 122.417,251.600 120.038,251.600 102.851 C 251.600 88.225,251.720 83.240,252.080 82.880 C 252.761 82.199,270.439 82.199,271.120 82.880 C 271.485 83.245,271.600 90.531,271.600 113.231 C 271.600 137.600,271.698 143.183,272.132 143.544 C 272.479 143.832,275.994 144.023,282.232 144.093 L 291.800 144.200 291.800 194.800 L 291.800 245.400 282.085 245.600 C 274.037 245.766,272.305 245.903,271.991 246.400 C 271.766 246.756,271.610 254.902,271.606 266.420 C 271.602 280.984,271.480 285.960,271.120 286.320 C 270.775 286.665,268.065 286.800,261.451 286.800 C 249.588 286.800,250.800 285.564,250.800 297.663 L 250.800 307.203 189.900 307.101 L 129.000 307.000 128.800 297.285 C 128.634 289.237,128.497 287.505,128.000 287.191 C 127.668 286.981,123.280 286.810,118.180 286.806 C 111.549 286.802,108.825 286.665,108.480 286.320 C 108.120 285.960,107.998 280.984,107.994 266.420 C 107.990 254.902,107.834 246.756,107.609 246.400 C 107.295 245.903,105.563 245.766,97.515 245.600 L 87.800 245.400 87.690 195.600 C 87.630 168.210,87.678 145.395,87.798 144.900 L 88.015 144.000 97.528 144.000 C 104.393 144.000,107.174 143.866,107.520 143.520 C 107.885 143.155,108.000 135.876,108.000 113.200 C 108.000 90.524,108.115 83.245,108.480 82.880 C 109.161 82.199,126.839 82.199,127.520 82.880 M209.520 82.880 C 210.027 83.387,210.242 100.105,209.757 101.367 C 209.545 101.920,208.303 102.000,199.957 102.000 L 190.400 102.000 190.400 92.433 C 190.400 85.154,190.520 82.818,190.900 82.665 C 192.043 82.204,209.040 82.400,209.520 82.880 M169.429 267.029 C 168.351 268.106,168.503 285.703,169.600 286.800 C 170.378 287.578,170.933 287.600,189.800 287.600 C 208.667 287.600,209.222 287.578,210.000 286.800 C 211.097 285.703,211.249 268.106,210.171 267.029 C 209.218 266.075,170.382 266.075,169.429 267.029 M127.757 308.633 C 127.891 308.981,128.000 313.288,128.000 318.204 C 128.000 329.543,126.857 328.400,138.196 328.400 C 143.112 328.400,147.419 328.509,147.767 328.643 C 148.602 328.963,148.753 429.087,147.920 429.920 C 147.225 430.615,88.775 430.615,88.080 429.920 C 87.572 429.412,87.345 391.929,87.843 390.633 C 88.055 390.080,89.290 390.000,97.563 390.000 C 104.401 390.000,107.174 389.866,107.520 389.520 C 107.887 389.153,108.000 379.609,108.000 349.000 C 108.000 318.391,108.113 308.847,108.480 308.480 C 109.294 307.666,127.441 307.810,127.757 308.633 M271.120 308.480 C 271.487 308.847,271.600 318.398,271.600 349.031 C 271.600 381.888,271.696 389.182,272.132 389.544 C 272.479 389.832,275.994 390.023,282.232 390.093 L 291.800 390.200 291.904 409.754 C 291.979 423.861,291.882 429.461,291.555 429.854 C 290.929 430.608,232.433 430.673,231.680 429.920 C 230.983 429.223,230.983 329.577,231.680 328.880 C 232.026 328.534,234.747 328.400,241.400 328.400 C 248.053 328.400,250.774 328.266,251.120 327.920 C 251.465 327.575,251.600 324.887,251.600 318.353 C 251.600 313.355,251.709 308.981,251.843 308.633 C 252.159 307.810,270.306 307.666,271.120 308.480 M210.400 328.000 C 211.358 328.958,211.645 346.186,210.736 348.181 L 210.272 349.200 189.800 349.200 L 169.328 349.200 168.864 348.181 C 167.955 346.186,168.242 328.958,169.200 328.000 C 169.978 327.222,170.533 327.200,189.800 327.200 C 209.067 327.200,209.622 327.222,210.400 328.000 " stroke="none" fill="#242424" fill-rule="evenodd"></path><path id="path2" d="M128.880 185.280 C 128.123 186.037,128.207 203.864,128.971 204.629 C 129.943 205.600,147.245 205.456,148.138 204.469 C 148.984 203.533,149.150 186.110,148.320 185.280 C 147.639 184.599,129.561 184.599,128.880 185.280 M231.280 185.280 C 230.392 186.168,230.621 203.714,231.531 204.538 C 232.467 205.384,249.890 205.550,250.720 204.720 C 251.227 204.213,251.443 186.698,250.957 185.433 C 250.641 184.609,232.095 184.465,231.280 185.280 " stroke="none" fill="#3cace4" fill-rule="evenodd"></path><path id="path3" d="M108.480 82.880 C 108.115 83.245,108.000 90.524,108.000 113.200 C 108.000 135.876,107.885 143.155,107.520 143.520 C 107.174 143.866,104.393 144.000,97.528 144.000 L 88.015 144.000 87.798 144.900 C 87.678 145.395,87.630 168.210,87.690 195.600 L 87.800 245.400 97.515 245.600 C 105.563 245.766,107.295 245.903,107.609 246.400 C 107.834 246.756,107.990 254.902,107.994 266.420 C 107.998 280.984,108.120 285.960,108.480 286.320 C 108.825 286.665,111.549 286.802,118.180 286.806 C 123.280 286.810,127.668 286.981,128.000 287.191 C 128.497 287.505,128.634 289.237,128.800 297.285 L 129.000 307.000 189.900 307.101 L 250.800 307.203 250.800 297.663 C 250.800 285.564,249.588 286.800,261.451 286.800 C 268.065 286.800,270.775 286.665,271.120 286.320 C 271.480 285.960,271.602 280.984,271.606 266.420 C 271.610 254.902,271.766 246.756,271.991 246.400 C 272.305 245.903,274.037 245.766,282.085 245.600 L 291.800 245.400 291.800 194.800 L 291.800 144.200 282.232 144.093 C 275.994 144.023,272.479 143.832,272.132 143.544 C 271.698 143.183,271.600 137.600,271.600 113.231 C 271.600 90.531,271.485 83.245,271.120 82.880 C 270.439 82.199,252.761 82.199,252.080 82.880 C 251.720 83.240,251.600 88.225,251.600 102.851 C 251.600 120.038,251.526 122.417,250.971 122.971 C 250.010 123.933,129.590 123.933,128.629 122.971 C 128.074 122.417,128.000 120.038,128.000 102.851 C 128.000 88.225,127.880 83.240,127.520 82.880 C 126.839 82.199,109.161 82.199,108.480 82.880 M190.900 82.665 C 190.520 82.818,190.400 85.154,190.400 92.433 L 190.400 102.000 199.957 102.000 C 208.303 102.000,209.545 101.920,209.757 101.367 C 210.242 100.105,210.027 83.387,209.520 82.880 C 209.040 82.400,192.043 82.204,190.900 82.665 M148.320 185.280 C 149.150 186.110,148.984 203.533,148.138 204.469 C 147.245 205.456,129.943 205.600,128.971 204.629 C 128.207 203.864,128.123 186.037,128.880 185.280 C 129.561 184.599,147.639 184.599,148.320 185.280 M250.957 185.433 C 251.443 186.698,251.227 204.213,250.720 204.720 C 249.890 205.550,232.467 205.384,231.531 204.538 C 230.621 203.714,230.392 186.168,231.280 185.280 C 232.095 184.465,250.641 184.609,250.957 185.433 M210.171 267.029 C 211.249 268.106,211.097 285.703,210.000 286.800 C 209.222 287.578,208.667 287.600,189.800 287.600 C 170.933 287.600,170.378 287.578,169.600 286.800 C 168.503 285.703,168.351 268.106,169.429 267.029 C 170.382 266.075,209.218 266.075,210.171 267.029 M108.480 308.480 C 108.113 308.847,108.000 318.391,108.000 349.000 C 108.000 379.609,107.887 389.153,107.520 389.520 C 107.174 389.866,104.401 390.000,97.563 390.000 C 89.290 390.000,88.055 390.080,87.843 390.633 C 87.345 391.929,87.572 429.412,88.080 429.920 C 88.775 430.615,147.225 430.615,147.920 429.920 C 148.753 429.087,148.602 328.963,147.767 328.643 C 147.419 328.509,143.112 328.400,138.196 328.400 C 126.857 328.400,128.000 329.543,128.000 318.204 C 128.000 313.288,127.891 308.981,127.757 308.633 C 127.441 307.810,109.294 307.666,108.480 308.480 M251.843 308.633 C 251.709 308.981,251.600 313.355,251.600 318.353 C 251.600 324.887,251.465 327.575,251.120 327.920 C 250.774 328.266,248.053 328.400,241.400 328.400 C 234.747 328.400,232.026 328.534,231.680 328.880 C 230.983 329.577,230.983 429.223,231.680 429.920 C 232.433 430.673,290.929 430.608,291.555 429.854 C 291.882 429.461,291.979 423.861,291.904 409.754 L 291.800 390.200 282.232 390.093 C 275.994 390.023,272.479 389.832,272.132 389.544 C 271.696 389.182,271.600 381.888,271.600 349.031 C 271.600 318.398,271.487 308.847,271.120 308.480 C 270.306 307.666,252.159 307.810,251.843 308.633 M169.200 328.000 C 168.242 328.958,167.955 346.186,168.864 348.181 L 169.328 349.200 189.800 349.200 L 210.272 349.200 210.736 348.181 C 211.645 346.186,211.358 328.958,210.400 328.000 C 209.622 327.222,209.067 327.200,189.800 327.200 C 170.533 327.200,169.978 327.222,169.200 328.000 M209.913 337.600 C 209.975 342.550,209.927 347.005,209.805 347.500 L 209.585 348.400 189.835 348.400 C 172.195 348.400,170.060 348.332,169.843 347.767 C 169.509 346.897,169.535 328.999,169.870 328.663 C 170.019 328.514,179.064 328.439,189.970 328.496 L 209.800 328.600 209.913 337.600 " stroke="none" fill="#444444" fill-rule="evenodd"></path></g></svg>