<svg xmlns="http://www.w3.org/2000/svg" xmlns:xlink="http://www.w3.org/1999/xlink" version="1.1" x="0px" y="0px" viewBox="0 0 100 125" style="enable-background:new 0 0 100 100;" xml:space="preserve"><g><path d="M83.1,35H63V14.8C63,11,59.6,8,55.8,8H42.2c-3.8,0-7.2,3.1-7.2,6.8V35H14.8C11,35,8,38.2,8,41.9v13.7c0,3.8,3,7.3,6.8,7.4   H35L35,83.1c0,3.8,3.4,6.8,7.2,6.8h13.7c3.8,0,7.2-3.1,7.2-6.8V62.9h20.1c3.8,0,6.9-3.5,6.9-7.3V41.9C90,38.2,86.9,35,83.1,35z    M28,56.1c0,0.6-0.4,1-0.8,1.2c-0.2,0.1-0.5,0.2-0.7,0.1c-0.3,0-0.6-0.1-0.8-0.2L16,50.3c-0.4-0.3-0.6-0.7-0.6-1.1s0.2-0.9,0.6-1.1   l9.8-6.8c0.4-0.3,1.1-0.3,1.5-0.1c0.5,0.2,0.8,0.7,0.8,1.2L28,56.1z M40.7,27.5c-0.2-0.5-0.2-0.9,0.1-1.3l6.9-9.7   c0.3-0.4,0.7-0.6,1.1-0.6c0.4,0,0.9,0.2,1.1,0.6l6.8,9.8c0.3,0.4,0.3,0.7,0.1,1.2c-0.2,0.6-0.7,0.6-1.2,0.6H41.9   C41.4,27.9,40.9,28,40.7,27.5z M54.3,54.3c-2.9,2.9-7.7,2.9-10.6,0s-2.9-7.7,0-10.6c2.9-2.9,7.7-2.9,10.6,0   C57.3,46.6,57.3,51.4,54.3,54.3z M57.2,71.6l-6.9,9.7c-0.3,0.4-0.7,0.6-1.1,0.6c-0.4,0-0.9-0.2-1.1-0.6l-6.8-9.8   c-0.3-0.4-0.3-0.7-0.1-1.2c0.2-0.5,0.6-0.5,1.2-0.5h13.7c0.6,0,1,0,1.2,0.5C57.5,70.9,57.5,71.2,57.2,71.6z M80,49.8l-9.8,6.8   c-0.2,0.2-0.5,0.4-0.8,0.3c-0.1,0-0.5-0.1-0.7-0.1c-0.5-0.2-0.8-0.7-0.8-1.2V41.8c0-0.6,0.4-1,0.8-1.2c0.5-0.2,1-0.1,1.4,0.1   l9.7,6.9c0.4,0.3,0.6,0.7,0.6,1.1C80.6,49.2,80.4,49.5,80,49.8z"/></g></svg>
