<svg id="svg" version="1.1" xmlns="http://www.w3.org/2000/svg" xmlns:xlink="http://www.w3.org/1999/xlink" width="400" height="400" viewBox="0, 0, 400,400"><g id="svgg"><path id="path0" d="M123.600 14.400 L 123.600 26.800 111.200 26.800 L 98.800 26.800 98.800 52.000 L 98.800 77.200 111.151 77.200 C 120.960 77.200,123.593 77.090,123.945 76.666 C 124.242 76.309,124.423 72.180,124.494 64.166 L 124.600 52.200 198.800 52.200 L 273.000 52.200 273.106 64.166 C 273.177 72.180,273.358 76.309,273.655 76.666 C 274.007 77.090,276.640 77.200,286.449 77.200 L 298.800 77.200 298.800 52.000 L 298.800 26.800 286.400 26.800 L 274.000 26.800 274.000 14.400 L 274.000 2.000 198.800 2.000 L 123.600 2.000 123.600 14.400 M149.381 102.505 C 149.275 102.782,149.235 108.317,149.294 114.805 L 149.400 126.600 161.500 126.706 L 173.600 126.812 173.600 114.406 L 173.600 102.000 161.587 102.000 C 152.288 102.000,149.531 102.114,149.381 102.505 M224.000 114.400 L 224.000 126.812 236.100 126.706 L 248.200 126.600 248.200 114.400 L 248.200 102.200 236.100 102.094 L 224.000 101.988 224.000 114.400 M74.094 188.900 L 74.200 201.000 99.100 201.103 L 124.000 201.206 124.000 189.003 L 124.000 176.800 98.994 176.800 L 73.988 176.800 74.094 188.900 M273.600 188.720 C 273.600 197.458,273.472 200.768,273.120 201.120 C 272.768 201.472,269.458 201.600,260.720 201.600 L 248.800 201.600 248.800 213.520 C 248.800 222.258,248.672 225.568,248.320 225.920 C 247.954 226.286,239.102 226.400,210.920 226.400 L 174.000 226.400 174.000 238.597 L 174.000 250.794 198.700 250.897 L 223.400 251.000 223.506 263.300 L 223.612 275.600 248.400 275.600 L 273.188 275.600 273.294 263.300 L 273.400 251.000 285.700 250.894 L 298.000 250.788 298.000 226.627 C 298.000 213.338,298.109 202.181,298.243 201.833 C 298.457 201.275,299.926 201.200,310.643 201.200 L 322.800 201.200 322.800 189.000 L 322.800 176.800 298.200 176.800 L 273.600 176.800 273.600 188.720 M174.267 276.267 C 173.884 276.649,173.948 299.699,174.333 300.306 C 174.583 300.700,177.315 300.789,186.627 300.706 L 198.600 300.600 198.706 288.300 L 198.812 276.000 186.672 276.000 C 179.996 276.000,174.413 276.120,174.267 276.267 M223.789 301.298 C 223.687 301.574,223.557 307.110,223.501 313.600 L 223.400 325.400 198.800 325.600 L 174.200 325.800 174.103 337.800 C 174.049 344.400,174.156 350.035,174.340 350.322 C 174.614 350.749,185.901 350.792,236.737 350.558 L 298.800 350.272 298.800 338.136 L 298.800 326.000 310.806 326.000 L 322.811 326.000 322.706 313.500 L 322.600 301.000 273.288 300.898 C 234.048 300.818,223.938 300.899,223.789 301.298 " stroke="none" fill="#84cc2c" fill-rule="evenodd"></path><path id="path1" d="M49.200 101.800 L 49.200 152.000 61.600 152.000 L 74.000 152.000 74.000 164.000 L 74.000 176.000 99.157 176.000 C 121.728 176.000,124.339 176.065,124.557 176.633 C 124.691 176.981,124.800 182.648,124.800 189.227 L 124.800 201.188 136.900 201.294 L 149.000 201.400 149.106 213.765 L 149.212 226.130 167.872 225.865 C 178.134 225.719,200.362 225.600,217.266 225.600 L 248.000 225.600 248.000 213.680 C 248.000 204.942,248.128 201.632,248.480 201.280 C 248.832 200.928,252.142 200.800,260.880 200.800 L 272.800 200.800 272.800 189.033 C 272.800 182.561,272.909 176.981,273.043 176.633 C 273.261 176.065,275.854 176.000,298.243 176.000 L 323.200 176.000 323.200 163.800 L 323.200 151.600 335.800 151.600 L 348.400 151.600 348.400 101.600 L 348.400 51.600 335.400 51.600 L 322.400 51.600 322.400 76.400 L 322.400 101.200 310.614 101.200 C 299.371 101.200,298.809 101.236,298.414 101.974 C 298.142 102.483,298.000 111.103,298.000 127.179 L 298.000 151.612 285.700 151.506 L 273.400 151.400 273.297 126.700 L 273.194 102.000 261.049 102.000 L 248.904 102.000 248.552 126.700 L 248.200 151.400 236.000 151.400 L 223.800 151.400 223.448 126.700 L 223.096 102.000 198.800 102.000 L 174.504 102.000 174.152 126.700 L 173.800 151.400 161.600 151.400 L 149.400 151.400 149.048 126.700 L 148.696 102.000 136.551 102.000 L 124.406 102.000 124.303 126.700 L 124.200 151.400 111.900 151.506 L 99.600 151.612 99.600 127.179 C 99.600 111.103,99.458 102.483,99.186 101.974 C 98.791 101.236,98.229 101.200,86.986 101.200 L 75.200 101.200 75.200 76.400 L 75.200 51.600 62.200 51.600 L 49.200 51.600 49.200 101.800 M223.506 188.900 L 223.612 201.200 198.806 201.200 L 174.000 201.200 174.000 189.067 C 174.000 182.393,174.121 176.812,174.270 176.664 C 174.418 176.515,185.533 176.440,198.970 176.497 L 223.400 176.600 223.506 188.900 M50.080 226.480 C 49.728 226.832,49.600 230.142,49.600 238.880 L 49.600 250.800 37.680 250.800 C 28.942 250.800,25.632 250.928,25.280 251.280 C 24.595 251.965,24.595 274.835,25.280 275.520 C 25.632 275.872,28.942 276.000,37.680 276.000 L 49.600 276.000 49.600 300.320 C 49.600 318.702,49.717 324.757,50.080 325.120 C 50.431 325.471,53.680 325.600,62.200 325.600 C 70.720 325.600,73.969 325.471,74.320 325.120 C 74.683 324.757,74.800 318.702,74.800 300.320 L 74.800 276.000 86.720 276.000 C 95.458 276.000,98.768 275.872,99.120 275.520 C 99.805 274.835,99.805 251.965,99.120 251.280 C 98.768 250.928,95.458 250.800,86.720 250.800 L 74.800 250.800 74.800 238.880 C 74.800 230.142,74.672 226.832,74.320 226.480 C 73.969 226.129,70.720 226.000,62.200 226.000 C 53.680 226.000,50.431 226.129,50.080 226.480 M298.794 238.100 C 298.791 244.755,298.647 250.422,298.474 250.694 C 298.239 251.064,295.113 251.215,285.980 251.294 L 273.800 251.400 273.800 263.600 L 273.800 275.800 285.900 275.906 L 298.000 276.012 298.000 288.206 L 298.000 300.400 310.557 300.400 C 321.639 300.400,323.143 300.474,323.357 301.033 C 323.491 301.381,323.600 307.141,323.600 313.833 L 323.600 326.000 336.000 326.000 L 348.400 326.000 348.400 313.600 L 348.400 301.200 360.800 301.200 L 373.200 301.200 373.200 288.444 C 373.200 278.497,373.090 275.693,372.700 275.707 C 372.425 275.718,366.755 275.698,360.100 275.663 L 348.000 275.600 348.000 263.680 C 348.000 254.942,347.872 251.632,347.520 251.280 C 347.168 250.928,343.858 250.800,335.120 250.800 L 323.200 250.800 323.200 238.880 C 323.200 230.142,323.072 226.832,322.720 226.480 C 322.369 226.129,319.102 226.000,310.520 226.000 L 298.800 226.000 298.794 238.100 M149.467 251.067 C 149.320 251.213,149.200 273.623,149.200 300.865 L 149.200 350.397 86.900 350.499 L 24.600 350.600 24.494 363.164 L 24.388 375.728 86.469 375.441 C 120.614 375.283,148.697 375.064,148.875 374.953 C 149.054 374.843,149.200 369.273,149.200 362.576 L 149.200 350.400 161.400 350.400 L 173.600 350.400 173.666 337.900 C 173.932 287.143,173.838 251.375,173.438 251.106 C 172.891 250.739,149.832 250.701,149.467 251.067 " stroke="none" fill="#fc9444" fill-rule="evenodd"></path><path id="path2" d="M124.306 64.700 L 124.200 77.000 111.489 77.106 L 98.778 77.211 98.995 89.706 C 99.114 96.578,99.301 113.318,99.412 126.906 L 99.612 151.612 111.906 151.506 L 124.200 151.400 124.303 126.700 L 124.406 102.000 198.800 102.000 L 273.194 102.000 273.297 126.700 L 273.400 151.400 285.694 151.506 L 297.988 151.612 298.188 126.906 C 298.299 113.318,298.486 96.578,298.605 89.706 L 298.822 77.211 286.111 77.106 L 273.400 77.000 273.294 64.700 L 273.188 52.400 198.800 52.400 L 124.412 52.400 124.306 64.700 M149.294 139.094 L 149.400 151.400 161.600 151.400 L 173.800 151.400 173.800 139.200 L 173.800 127.000 161.494 126.894 L 149.188 126.788 149.294 139.094 M223.781 127.305 C 223.675 127.582,223.635 133.117,223.694 139.605 L 223.800 151.400 236.000 151.400 L 248.200 151.400 248.306 139.100 L 248.412 126.800 236.193 126.800 C 226.728 126.800,223.931 126.914,223.781 127.305 M323.187 163.900 C 323.179 170.665,323.134 181.780,323.087 188.600 L 323.000 201.000 310.800 201.200 L 298.600 201.400 298.494 213.700 L 298.388 226.000 310.314 226.000 C 319.056 226.000,322.368 226.128,322.720 226.480 C 323.072 226.832,323.200 230.142,323.200 238.880 L 323.200 250.800 335.120 250.800 C 343.858 250.800,347.168 250.928,347.520 251.280 C 347.872 251.632,348.000 254.940,348.000 263.669 L 348.000 275.577 360.300 275.689 C 367.065 275.750,372.735 275.744,372.900 275.676 C 373.065 275.608,373.200 258.733,373.200 238.176 L 373.200 200.800 360.800 200.800 L 348.400 200.800 348.400 176.200 L 348.400 151.600 335.800 151.600 L 323.200 151.600 323.187 163.900 M174.270 176.664 C 174.121 176.812,174.000 182.393,174.000 189.067 L 174.000 201.200 198.806 201.200 L 223.612 201.200 223.506 188.900 L 223.400 176.600 198.970 176.497 C 185.533 176.440,174.418 176.515,174.270 176.664 M24.400 213.175 L 24.400 225.600 12.200 225.600 L 0.000 225.600 0.000 288.117 L 0.000 350.634 74.606 350.467 L 149.212 350.300 149.106 362.650 L 149.000 375.000 124.000 375.200 L 99.000 375.400 98.894 387.700 L 98.788 400.000 136.597 400.000 L 174.406 400.000 174.303 375.300 L 174.200 350.600 161.698 350.494 L 149.197 350.389 149.298 300.694 L 149.400 251.000 160.800 250.888 C 167.070 250.826,172.605 250.875,173.100 250.995 L 174.000 251.215 174.000 263.402 L 174.000 275.588 186.300 275.694 L 198.600 275.800 198.600 288.200 L 198.600 300.600 186.294 300.706 L 173.988 300.812 174.094 313.106 L 174.200 325.400 198.800 325.400 L 223.400 325.400 223.600 313.200 L 223.800 301.000 260.800 300.800 L 297.800 300.600 297.906 288.300 L 298.012 276.000 285.906 275.988 C 279.248 275.982,262.803 275.987,249.362 276.000 C 235.922 276.012,224.627 275.908,224.262 275.769 C 223.666 275.540,223.600 274.303,223.600 263.360 L 223.600 251.206 198.900 251.103 L 174.200 251.000 174.000 238.600 L 173.800 226.200 161.500 226.094 L 149.200 225.988 149.200 213.782 C 149.200 204.366,149.086 201.539,148.700 201.419 C 148.425 201.334,120.345 201.148,86.300 201.007 L 24.400 200.750 24.400 213.175 M74.320 226.480 C 74.672 226.832,74.800 230.142,74.800 238.880 L 74.800 250.800 86.720 250.800 C 95.458 250.800,98.768 250.928,99.120 251.280 C 99.805 251.965,99.805 274.835,99.120 275.520 C 98.768 275.872,95.458 276.000,86.720 276.000 L 74.800 276.000 74.800 300.320 C 74.800 318.702,74.683 324.757,74.320 325.120 C 73.969 325.471,70.720 325.600,62.200 325.600 C 53.680 325.600,50.431 325.471,50.080 325.120 C 49.717 324.757,49.600 318.702,49.600 300.320 L 49.600 276.000 37.680 276.000 C 28.942 276.000,25.632 275.872,25.280 275.520 C 24.595 274.835,24.595 251.965,25.280 251.280 C 25.632 250.928,28.942 250.800,37.680 250.800 L 49.600 250.800 49.600 238.880 C 49.600 230.142,49.728 226.832,50.080 226.480 C 50.431 226.129,53.680 226.000,62.200 226.000 C 70.720 226.000,73.969 226.129,74.320 226.480 M223.467 350.667 C 223.320 350.813,223.200 356.483,223.200 363.267 L 223.200 375.600 261.000 375.600 L 298.800 375.600 298.800 363.000 L 298.800 350.400 261.267 350.400 C 240.623 350.400,223.613 350.520,223.467 350.667 " stroke="none" fill="#c44c1c" fill-rule="evenodd"></path><path id="path3" d="M161.700 52.300 C 182.105 52.357,215.495 52.357,235.900 52.300 C 256.305 52.243,239.610 52.196,198.800 52.196 C 157.990 52.196,141.295 52.243,161.700 52.300 M148.800 114.400 C 148.800 121.220,148.935 126.800,149.100 126.800 C 149.265 126.800,149.400 121.220,149.400 114.400 C 149.400 107.580,149.265 102.000,149.100 102.000 C 148.935 102.000,148.800 107.580,148.800 114.400 M173.600 114.624 C 173.600 122.937,173.737 127.163,174.000 127.000 C 174.253 126.844,174.400 122.196,174.400 114.376 C 174.400 106.392,174.258 102.000,174.000 102.000 C 173.742 102.000,173.600 106.475,173.600 114.624 M223.200 114.376 C 223.200 122.196,223.347 126.844,223.600 127.000 C 223.863 127.163,224.000 122.937,224.000 114.624 C 224.000 106.475,223.858 102.000,223.600 102.000 C 223.342 102.000,223.200 106.392,223.200 114.376 M248.200 114.400 C 248.200 121.220,248.335 126.800,248.500 126.800 C 248.665 126.800,248.800 121.220,248.800 114.400 C 248.800 107.580,248.665 102.000,248.500 102.000 C 248.335 102.000,248.200 107.580,248.200 114.400 M74.000 176.400 C 74.000 176.662,82.600 176.800,99.000 176.800 L 124.000 176.800 124.000 189.000 C 124.000 196.867,124.142 201.200,124.400 201.200 C 124.836 201.200,124.986 177.750,124.557 176.633 C 124.265 175.872,74.000 175.641,74.000 176.400 M273.043 176.633 C 272.909 176.981,272.800 182.561,272.800 189.033 L 272.800 200.800 260.880 200.800 C 252.142 200.800,248.832 200.928,248.480 201.280 C 248.128 201.632,248.000 204.942,248.000 213.680 L 248.000 225.600 211.024 225.600 C 186.804 225.600,173.962 225.738,173.800 226.000 C 173.413 226.625,247.694 226.546,248.320 225.920 C 248.672 225.568,248.800 222.258,248.800 213.520 L 248.800 201.600 260.720 201.600 C 269.458 201.600,272.768 201.472,273.120 201.120 C 273.472 200.768,273.600 197.458,273.600 188.720 L 273.600 176.800 298.200 176.800 L 322.800 176.800 322.894 188.900 L 322.987 201.000 323.106 189.400 C 323.171 183.020,323.125 177.395,323.004 176.900 L 322.785 176.000 298.035 176.000 C 275.836 176.000,273.261 176.065,273.043 176.633 M298.072 226.294 L 298.000 250.788 285.700 250.894 L 273.400 251.000 273.388 263.400 L 273.376 275.800 273.588 263.600 L 273.800 251.400 286.094 251.294 L 298.388 251.188 298.643 250.171 C 298.783 249.612,298.728 238.500,298.521 225.477 L 298.144 201.800 298.072 226.294 M186.500 251.100 C 193.265 251.161,204.335 251.161,211.100 251.100 C 217.865 251.038,212.330 250.988,198.800 250.988 C 185.270 250.988,179.735 251.038,186.500 251.100 M173.600 288.200 C 173.600 295.130,173.735 300.800,173.900 300.800 C 174.065 300.800,174.200 295.265,174.200 288.500 L 174.200 276.200 186.400 275.991 L 198.600 275.782 186.100 275.691 L 173.600 275.600 173.600 288.200 M236.529 275.900 C 243.310 275.961,254.290 275.961,260.929 275.900 C 267.568 275.838,262.020 275.788,248.600 275.788 C 235.180 275.788,229.748 275.838,236.529 275.900 M310.000 300.791 L 322.600 301.000 322.706 313.500 C 322.772 321.375,322.957 326.000,323.206 326.000 C 323.636 326.000,323.781 302.137,323.357 301.033 C 323.142 300.471,321.666 300.410,310.257 300.491 L 297.400 300.583 310.000 300.791 M173.867 325.467 C 173.497 325.837,173.529 350.309,173.900 350.538 C 174.065 350.640,174.200 344.981,174.200 337.962 C 174.200 330.943,174.185 325.200,174.167 325.200 C 174.148 325.200,174.013 325.320,173.867 325.467 " stroke="none" fill="#dcb430" fill-rule="evenodd"></path></g></svg>