<svg id="svg" version="1.1" xmlns="http://www.w3.org/2000/svg" xmlns:xlink="http://www.w3.org/1999/xlink" width="400" height="521.0084033613446" viewBox="0, 0, 400,521.0084033613446"><g id="svgg"><path id="path0" d="M299.793 74.886 C 299.688 75.169,299.556 81.970,299.501 90.000 L 299.400 104.600 294.487 104.712 L 289.574 104.825 289.687 109.312 L 289.800 113.800 299.700 113.907 L 309.600 114.014 309.600 118.927 C 309.600 121.629,309.429 124.011,309.219 124.220 C 308.978 124.460,310.619 124.550,313.674 124.465 C 317.344 124.363,318.588 124.457,318.833 124.854 C 319.085 125.261,319.216 125.224,319.421 124.689 C 319.751 123.829,328.684 123.644,329.520 124.480 C 330.259 125.219,330.178 133.860,329.428 134.280 C 329.114 134.456,331.026 134.535,333.678 134.456 C 337.411 134.345,338.586 134.435,338.887 134.856 C 339.178 135.264,339.216 135.217,339.038 134.667 C 338.907 134.264,338.800 131.795,338.800 129.180 L 338.800 124.426 334.300 124.313 L 329.800 124.200 329.600 119.400 L 329.400 114.600 324.600 114.400 L 319.800 114.200 319.695 99.312 L 319.590 84.423 314.295 84.312 L 309.000 84.200 308.800 79.400 L 308.600 74.600 304.293 74.486 C 301.068 74.401,299.937 74.502,299.793 74.886 M128.400 103.975 L 128.400 113.975 133.300 114.088 L 138.200 114.200 138.400 124.000 L 138.600 133.800 143.400 134.000 L 148.200 134.200 148.400 139.000 L 148.600 143.800 153.200 143.909 C 158.930 144.044,158.800 143.910,158.800 149.676 L 158.800 154.000 163.386 154.000 C 168.950 154.000,168.800 153.841,168.800 159.774 L 168.800 164.000 178.351 164.000 C 189.803 164.000,188.863 163.451,188.713 170.056 L 188.600 175.000 183.700 175.112 L 178.800 175.225 178.800 184.784 C 178.800 196.461,179.267 195.600,172.934 195.600 L 168.325 195.600 168.614 205.108 C 168.959 216.448,169.430 215.531,163.176 215.686 L 158.600 215.800 158.600 230.200 L 158.600 244.600 163.400 244.800 L 168.200 245.000 168.312 250.169 C 168.447 256.356,168.791 255.986,162.912 255.994 L 158.425 256.000 158.312 260.900 L 158.200 265.800 148.293 265.907 L 138.386 266.014 138.493 275.507 L 138.600 285.000 148.400 285.200 L 158.200 285.400 158.400 290.200 L 158.600 295.000 163.400 295.200 L 168.200 295.400 168.312 300.569 C 168.447 306.756,168.791 306.386,162.912 306.394 L 158.425 306.400 158.312 311.300 L 158.200 316.200 148.300 316.307 L 138.400 316.414 138.400 320.807 L 138.400 325.200 142.920 325.200 C 145.902 325.200,147.603 325.363,147.920 325.680 C 148.280 326.040,148.400 331.076,148.400 345.880 L 148.400 365.600 152.971 365.600 C 158.906 365.600,158.800 365.498,158.800 371.229 L 158.800 375.600 163.171 375.600 C 168.902 375.600,168.800 375.494,168.800 381.429 L 168.800 386.000 183.700 386.000 L 198.600 386.001 198.600 381.300 L 198.600 376.600 203.400 376.400 L 208.200 376.200 208.400 371.400 L 208.600 366.600 218.500 366.493 L 228.400 366.386 228.400 370.993 L 228.400 375.600 238.100 375.649 C 243.435 375.676,250.320 375.811,253.400 375.949 L 259.000 376.200 259.200 381.000 L 259.400 385.800 264.185 385.913 C 269.901 386.049,269.586 385.724,269.594 391.488 L 269.600 395.975 274.500 396.088 L 279.400 396.200 279.512 401.100 L 279.625 406.000 299.212 406.000 L 318.800 406.000 318.800 401.600 L 318.800 397.200 304.300 397.194 C 296.325 397.191,289.569 397.041,289.288 396.863 C 288.904 396.619,288.803 395.235,288.888 391.369 L 289.000 386.200 294.200 386.000 L 299.400 385.800 299.400 381.200 L 299.400 376.600 304.200 376.400 L 309.000 376.200 309.200 371.400 L 309.400 366.600 313.976 366.486 C 319.796 366.341,319.600 366.534,319.600 360.951 L 319.600 356.400 324.200 356.400 L 328.800 356.400 328.800 346.480 C 328.800 334.668,328.331 335.600,334.280 335.600 L 338.800 335.600 338.849 321.100 C 338.876 313.125,339.011 304.080,339.149 301.000 L 339.400 295.400 344.600 295.400 L 349.800 295.400 350.154 305.300 L 350.509 315.200 364.854 315.200 L 379.200 315.200 379.200 310.400 L 379.200 305.600 374.567 305.600 L 369.935 305.600 370.067 300.604 C 370.166 296.875,370.073 295.559,369.700 295.416 C 369.342 295.279,369.200 293.974,369.200 290.813 L 369.200 286.400 359.700 286.394 C 348.258 286.386,349.254 286.895,349.113 280.985 L 349.000 276.200 344.215 276.087 C 338.498 275.951,338.814 276.277,338.806 270.500 L 338.800 266.000 334.280 266.000 C 328.614 266.000,328.800 266.185,328.800 260.549 C 328.800 254.352,327.957 254.800,339.616 254.800 L 349.175 254.800 349.288 249.900 L 349.400 245.000 354.300 244.888 L 359.200 244.775 359.200 225.068 C 359.200 210.273,359.320 205.240,359.680 204.880 C 359.997 204.563,361.698 204.400,364.680 204.400 L 369.200 204.400 369.200 195.000 L 369.200 185.600 364.649 185.600 C 359.066 185.600,359.259 185.796,359.114 179.976 L 359.000 175.400 349.219 175.293 C 337.809 175.168,338.814 175.705,338.806 169.729 C 338.798 163.883,338.680 164.000,344.629 164.000 L 349.200 164.000 349.200 154.600 L 349.200 145.200 344.931 145.200 C 341.791 145.200,340.496 145.049,340.031 144.628 C 339.459 144.110,339.400 144.532,339.400 149.128 L 339.400 154.200 329.500 154.307 L 319.600 154.414 319.600 149.856 C 319.600 143.984,320.467 144.436,308.968 144.307 L 299.400 144.200 299.200 139.400 L 299.000 134.600 284.200 134.400 L 269.400 134.200 269.286 129.824 C 269.132 123.948,270.010 124.400,258.759 124.400 L 249.215 124.400 248.979 123.458 C 248.849 122.940,248.800 120.779,248.871 118.657 L 249.000 114.798 244.112 114.799 L 239.225 114.800 239.112 119.700 L 239.000 124.600 224.001 124.705 C 215.752 124.763,208.746 124.711,208.432 124.591 C 208.117 124.470,201.277 124.333,193.230 124.286 L 178.600 124.200 178.501 120.200 C 178.446 118.000,178.308 115.795,178.193 115.300 L 177.985 114.400 168.472 114.400 C 157.167 114.400,158.000 114.814,158.000 109.200 C 158.000 103.586,158.833 104.000,147.532 104.000 L 138.025 104.000 137.912 99.100 L 137.800 94.200 133.100 94.087 L 128.400 93.975 128.400 103.975 M201.315 114.696 C 202.588 114.776,204.568 114.775,205.715 114.694 C 206.862 114.614,205.820 114.549,203.400 114.550 C 200.980 114.551,200.042 114.616,201.315 114.696 M47.393 154.900 C 47.293 155.175,47.163 157.470,47.105 160.000 L 47.000 164.600 42.100 164.712 L 37.200 164.825 37.200 160.012 L 37.200 155.200 32.400 155.200 L 27.600 155.200 27.600 159.720 C 27.600 165.383,27.781 165.200,22.184 165.200 L 17.727 165.200 17.485 179.473 C 17.352 187.323,17.334 193.893,17.445 194.073 C 17.556 194.253,19.671 194.400,22.144 194.400 C 27.786 194.400,27.600 194.213,27.600 199.880 L 27.600 204.400 32.120 204.400 C 37.789 204.400,37.600 204.211,37.600 209.880 L 37.600 214.400 42.120 214.400 C 47.789 214.400,47.600 214.211,47.600 219.880 L 47.600 224.400 52.151 224.400 C 57.734 224.400,57.541 224.204,57.686 230.024 L 57.800 234.600 62.585 234.713 C 68.492 234.853,67.986 233.881,67.994 245.126 C 68.002 257.300,69.270 256.000,57.386 256.000 L 47.600 256.000 47.600 260.400 L 47.600 264.800 51.967 264.800 C 58.015 264.800,57.600 264.414,57.600 270.043 L 57.600 274.800 62.171 274.800 C 68.130 274.800,68.000 274.670,68.000 280.622 L 68.000 285.186 77.900 285.293 L 87.800 285.400 87.907 295.572 C 88.032 307.463,88.570 306.386,82.500 306.394 L 78.000 306.400 78.000 310.800 L 78.000 315.200 87.600 315.200 L 97.200 315.200 97.200 310.443 C 97.200 304.815,96.787 305.200,102.820 305.200 L 107.175 305.200 107.288 300.300 L 107.400 295.400 112.300 295.288 L 117.200 295.175 117.200 290.788 L 117.200 286.400 112.700 286.394 C 106.923 286.386,107.249 286.702,107.113 280.985 L 107.000 276.200 97.432 276.093 C 85.971 275.964,86.800 276.378,86.800 270.784 C 86.800 264.792,86.417 265.200,92.043 265.200 L 96.800 265.200 96.800 260.774 C 96.800 254.594,96.607 254.800,102.402 254.800 L 107.175 254.800 107.288 249.900 L 107.400 245.000 112.300 244.888 L 117.200 244.775 117.200 230.200 L 117.200 215.625 112.300 215.512 L 107.400 215.400 107.293 205.500 L 107.186 195.600 102.473 195.600 C 99.881 195.600,97.586 195.426,97.374 195.214 C 97.162 195.002,94.921 194.777,92.394 194.714 L 87.800 194.600 87.686 190.224 C 87.541 184.682,87.707 184.850,82.262 184.713 L 77.800 184.600 77.686 180.224 C 77.539 174.607,77.743 174.800,71.951 174.800 L 67.200 174.800 67.200 169.800 L 67.200 164.800 71.920 164.800 C 77.812 164.800,77.600 165.003,77.600 159.363 C 77.600 154.073,77.953 154.400,72.247 154.400 C 67.050 154.400,67.200 154.232,67.200 160.080 L 67.200 164.800 62.200 164.800 L 57.200 164.800 57.200 160.080 C 57.200 156.942,57.039 155.199,56.720 154.880 C 56.037 154.197,47.642 154.215,47.393 154.900 M268.937 164.504 C 269.537 164.943,269.612 165.655,269.513 170.004 L 269.400 175.000 248.800 175.000 L 228.200 175.000 228.087 170.004 C 227.988 165.655,228.063 164.943,228.663 164.504 C 229.665 163.772,267.935 163.772,268.937 164.504 M36.800 169.800 L 36.800 174.800 32.280 174.800 C 26.664 174.800,26.800 174.924,26.800 169.800 C 26.800 164.676,26.664 164.800,32.280 164.800 L 36.800 164.800 36.800 169.800 M57.200 169.800 L 57.200 174.800 62.212 174.800 L 67.225 174.800 67.112 179.700 L 67.000 184.600 62.200 184.600 L 57.400 184.600 57.288 179.700 L 57.175 174.800 52.188 174.800 L 47.200 174.800 47.200 179.351 C 47.200 185.027,47.369 184.862,41.742 184.714 L 37.400 184.600 37.288 179.700 L 37.175 174.800 42.188 174.800 L 47.200 174.800 47.200 169.800 L 47.200 164.800 52.200 164.800 L 57.200 164.800 57.200 169.800 M319.757 185.033 C 320.221 186.242,320.024 194.616,319.520 195.120 C 318.858 195.782,309.942 195.782,309.280 195.120 C 308.765 194.605,308.573 185.161,309.067 184.667 C 309.694 184.040,319.505 184.376,319.757 185.033 M228.786 195.174 C 229.014 195.599,229.200 197.849,229.200 200.174 L 229.200 204.400 233.751 204.400 C 239.690 204.400,239.236 203.463,239.107 215.450 L 239.000 225.400 234.100 225.512 L 229.200 225.625 229.194 230.112 C 229.186 236.169,230.262 235.632,218.372 235.507 L 208.200 235.400 208.000 230.600 L 207.800 225.800 203.000 225.600 L 198.200 225.400 198.093 215.450 C 197.964 203.463,197.510 204.400,203.449 204.400 L 208.000 204.400 208.000 199.633 C 208.000 196.194,208.139 194.810,208.500 194.665 C 210.226 193.968,228.385 194.424,228.786 195.174 M278.967 204.643 C 279.495 204.845,279.600 205.674,279.600 209.643 L 279.600 214.400 289.188 214.400 L 298.775 214.400 298.888 209.500 L 299.000 204.600 308.950 204.493 C 320.937 204.364,320.000 203.910,320.000 209.849 L 320.000 214.400 324.400 214.400 L 328.800 214.400 328.800 209.880 C 328.800 204.199,328.597 204.398,334.380 204.406 C 340.408 204.414,340.047 204.034,339.912 210.231 L 339.800 215.400 334.912 215.512 L 330.024 215.624 329.912 220.512 L 329.800 225.400 324.400 225.400 L 319.000 225.400 318.888 220.493 L 318.775 215.586 309.288 215.693 L 299.800 215.800 299.600 220.600 L 299.400 225.400 289.000 225.400 L 278.600 225.400 278.488 220.512 L 278.376 215.624 273.488 215.512 L 268.600 215.400 268.488 210.231 C 268.403 206.365,268.504 204.981,268.888 204.737 C 269.480 204.361,278.024 204.281,278.967 204.643 M238.737 255.324 C 238.978 255.615,239.223 257.892,239.286 260.424 L 239.400 265.000 244.200 265.200 L 249.000 265.400 249.107 275.572 C 249.232 287.463,249.770 286.386,243.700 286.394 L 239.200 286.400 239.200 290.920 C 239.200 296.858,240.076 296.400,228.720 296.400 L 219.200 296.400 219.200 300.920 C 219.200 306.862,220.097 306.400,208.569 306.400 C 196.980 306.400,197.937 306.953,198.087 300.344 L 198.200 295.400 208.088 295.293 L 217.975 295.186 218.088 290.293 L 218.200 285.400 228.100 285.293 L 238.000 285.186 238.000 280.626 C 238.000 278.118,238.060 275.826,238.134 275.533 C 238.208 275.240,238.193 275.135,238.101 275.300 C 237.759 275.912,219.341 275.652,218.823 275.027 C 218.503 274.642,218.389 273.075,218.474 270.227 L 218.600 265.998 208.580 265.999 C 201.319 266.000,198.428 265.868,198.080 265.520 C 197.476 264.916,197.422 256.681,198.014 255.574 C 198.546 254.579,237.919 254.338,238.737 255.324 M223.923 265.899 C 226.631 265.968,230.951 265.968,233.523 265.899 C 236.095 265.829,233.880 265.772,228.600 265.773 C 223.320 265.773,221.215 265.830,223.923 265.899 M238.714 360.942 C 238.862 366.569,239.027 366.400,233.351 366.400 L 228.800 366.400 228.800 361.388 L 228.800 356.375 233.700 356.488 L 238.600 356.600 238.714 360.942 M168.800 401.600 L 168.800 406.000 183.200 406.000 L 197.600 406.000 197.600 401.600 L 197.600 397.200 183.200 397.200 L 168.800 397.200 168.800 401.600 " stroke="none" fill="#e4cc3c" fill-rule="evenodd"></path><path id="path1" d="M308.400 37.800 L 308.400 42.800 303.400 42.800 L 298.400 42.800 298.400 48.200 L 298.400 53.600 303.800 53.600 L 309.200 53.600 309.200 49.233 C 309.200 43.208,308.855 43.600,314.163 43.600 C 319.783 43.600,319.600 43.415,319.600 49.080 L 319.600 53.600 325.012 53.600 L 330.423 53.600 330.312 48.300 L 330.200 43.000 325.100 42.888 L 320.000 42.776 320.000 37.788 L 320.000 32.800 314.200 32.800 L 308.400 32.800 308.400 37.800 M329.791 64.100 C 329.668 64.595,329.620 66.980,329.684 69.400 L 329.800 73.800 335.100 73.912 L 340.400 74.023 340.400 68.612 L 340.400 63.200 335.208 63.200 C 330.156 63.200,330.009 63.224,329.791 64.100 M86.800 84.000 L 86.800 94.800 91.953 94.800 C 98.215 94.800,97.587 96.101,97.595 83.100 L 97.600 73.200 92.200 73.200 L 86.800 73.200 86.800 84.000 M117.600 78.151 C 117.600 81.692,117.746 83.223,118.113 83.528 C 118.676 83.995,127.002 84.233,128.052 83.813 C 128.410 83.669,130.884 83.607,133.548 83.676 C 139.266 83.822,138.800 84.329,138.800 77.967 L 138.800 73.200 128.200 73.200 L 117.600 73.200 117.600 78.151 M288.400 78.588 L 288.400 84.000 293.167 84.000 C 295.789 84.000,298.174 84.092,298.467 84.205 C 298.897 84.369,298.990 83.340,298.948 78.905 L 298.896 73.400 293.648 73.288 L 288.400 73.177 288.400 78.588 M309.107 74.467 C 309.436 74.796,309.600 76.387,309.600 79.256 L 309.600 83.553 314.435 83.676 C 320.196 83.824,319.438 84.577,319.200 78.935 L 319.000 74.200 313.807 74.087 C 309.695 73.998,308.717 74.077,309.107 74.467 M158.000 88.377 L 158.000 93.554 163.100 93.677 C 165.905 93.745,168.335 93.744,168.500 93.676 C 168.665 93.608,168.800 91.223,168.800 88.376 L 168.800 83.200 163.400 83.200 L 158.000 83.200 158.000 88.377 M178.322 98.600 L 178.200 104.023 183.600 103.911 L 189.000 103.800 189.000 98.600 L 189.000 93.400 183.722 93.289 L 178.444 93.177 178.322 98.600 M340.000 93.600 C 339.670 93.813,337.279 93.991,334.688 93.994 L 329.975 94.000 330.088 98.900 L 330.200 103.800 335.200 104.000 C 337.950 104.110,342.495 104.145,345.300 104.078 L 350.400 103.956 350.400 98.578 L 350.400 93.200 345.500 93.206 C 342.805 93.209,340.330 93.387,340.000 93.600 M198.400 108.778 L 198.400 113.956 203.635 114.078 C 209.910 114.224,209.200 114.906,209.200 108.733 L 209.200 103.600 203.800 103.600 L 198.400 103.600 198.400 108.778 M127.934 119.200 C 128.094 125.151,127.279 124.304,133.000 124.465 L 137.800 124.600 137.677 119.679 C 137.593 116.321,137.402 114.706,137.077 114.597 C 136.815 114.509,134.620 114.383,132.200 114.318 L 127.800 114.200 127.934 119.200 M289.773 114.927 C 289.661 115.217,289.622 117.332,289.685 119.627 L 289.800 123.800 299.400 123.800 L 309.000 123.800 309.114 119.658 C 309.189 116.948,309.069 115.324,308.765 114.958 C 308.104 114.161,290.078 114.132,289.773 114.927 M319.777 125.315 C 319.663 125.613,319.621 127.644,319.685 129.828 L 319.800 133.800 324.400 133.800 L 329.000 133.800 329.000 129.400 L 329.000 125.000 324.493 124.887 C 320.991 124.799,319.939 124.895,319.777 125.315 M340.088 139.300 L 340.200 144.200 344.896 144.313 C 350.478 144.447,350.169 144.049,349.938 150.789 C 349.842 153.604,349.926 155.034,350.174 154.786 C 350.386 154.574,352.774 154.400,355.480 154.400 L 360.400 154.400 360.400 149.000 L 360.400 143.600 355.400 143.600 L 350.400 143.600 350.400 139.000 L 350.400 134.400 345.188 134.400 L 339.975 134.400 340.088 139.300 M370.200 184.306 C 369.958 184.484,369.847 186.652,369.920 189.800 L 370.040 195.000 375.420 194.878 L 380.800 194.757 380.800 189.378 L 380.800 184.000 375.700 184.006 C 372.895 184.009,370.420 184.144,370.200 184.306 M11.300 184.699 L 6.000 184.823 6.000 190.212 L 6.000 195.600 11.333 195.600 C 16.804 195.600,17.515 195.462,16.754 194.545 C 16.471 194.203,16.366 192.314,16.458 189.208 C 16.536 186.564,16.600 184.439,16.600 184.487 C 16.600 184.535,14.215 184.631,11.300 184.699 M172.500 184.712 L 167.200 184.823 167.200 189.412 L 167.200 194.000 162.200 194.000 L 157.200 194.000 157.200 199.400 L 157.200 204.800 161.967 204.800 C 164.589 204.800,167.019 204.909,167.367 205.043 C 167.924 205.257,168.000 204.659,168.000 200.043 L 168.000 194.800 172.813 194.800 C 178.484 194.800,178.064 195.263,177.913 189.177 L 177.800 184.600 172.500 184.712 M209.074 195.460 C 208.923 195.610,208.800 197.661,208.800 200.018 C 208.800 205.279,208.943 205.140,203.376 205.286 L 199.000 205.400 198.893 215.100 L 198.786 224.800 203.019 224.800 C 208.961 224.800,208.800 224.649,208.800 230.221 L 208.800 234.814 218.500 234.707 L 228.200 234.600 228.314 230.224 C 228.459 224.682,228.293 224.850,233.738 224.713 L 238.200 224.600 238.200 215.000 L 238.200 205.400 233.400 205.200 L 228.600 205.000 228.400 200.200 L 228.200 195.400 218.774 195.293 C 213.589 195.234,209.224 195.309,209.074 195.460 M364.800 205.180 L 360.200 205.400 360.000 215.400 L 359.800 225.400 364.600 225.265 C 367.240 225.191,369.436 225.095,369.480 225.052 C 369.663 224.872,369.783 204.806,369.600 204.879 C 369.490 204.924,367.330 205.059,364.800 205.180 M147.200 219.778 L 147.200 225.157 152.500 225.278 L 157.800 225.400 157.658 220.692 C 157.563 217.578,157.668 215.799,157.968 215.439 C 158.679 214.582,157.663 214.400,152.167 214.400 L 147.200 214.400 147.200 219.778 M153.000 235.180 L 148.200 235.400 148.095 249.965 C 148.017 260.810,147.863 264.686,147.495 265.140 C 147.078 265.653,147.116 265.706,147.733 265.475 C 148.136 265.324,150.521 265.200,153.033 265.200 L 157.600 265.200 157.600 260.649 C 157.600 255.066,157.404 255.259,163.224 255.114 L 167.800 255.000 167.800 250.400 L 167.800 245.800 163.224 245.686 C 157.263 245.538,157.490 245.781,157.661 239.719 C 157.737 237.013,157.800 234.836,157.800 234.880 C 157.800 234.925,155.640 235.060,153.000 235.180 M339.600 255.589 L 329.800 255.800 329.800 260.400 L 329.800 265.000 334.176 265.114 C 336.583 265.177,338.743 265.357,338.976 265.514 C 339.209 265.671,341.875 265.745,344.900 265.678 L 350.400 265.557 350.400 261.011 C 350.400 256.629,350.202 255.100,349.657 255.289 C 349.516 255.338,344.990 255.473,339.600 255.589 M218.324 260.400 L 218.447 265.214 228.324 265.107 L 238.200 265.000 238.200 260.400 L 238.200 255.800 228.200 255.693 L 218.200 255.585 218.324 260.400 M93.024 265.514 C 87.411 265.661,87.548 265.527,87.687 270.760 L 87.800 275.000 92.800 275.215 C 95.550 275.333,97.800 275.423,97.800 275.415 C 97.800 275.407,97.710 273.150,97.600 270.400 L 97.400 265.400 93.024 265.514 M239.405 266.100 C 239.312 266.375,239.182 268.670,239.118 271.200 L 239.000 275.800 243.800 275.800 L 248.600 275.800 248.477 271.200 C 248.314 265.095,248.736 265.600,243.800 265.600 C 240.777 265.600,239.527 265.742,239.405 266.100 M370.200 285.106 C 369.959 285.283,369.849 287.340,369.923 290.277 L 370.046 295.155 375.123 295.277 C 377.915 295.345,380.335 295.344,380.500 295.276 C 380.665 295.208,380.800 292.823,380.800 289.976 L 380.800 284.800 375.700 284.806 C 372.895 284.809,370.420 284.944,370.200 285.106 M138.031 300.400 L 137.999 315.800 147.800 315.686 L 157.600 315.573 157.600 311.035 C 157.600 305.468,157.406 305.659,163.224 305.514 L 167.800 305.400 167.800 300.800 L 167.800 296.200 163.224 296.086 C 157.404 295.941,157.600 296.134,157.600 290.551 L 157.600 286.000 148.033 286.000 C 140.754 286.000,138.418 285.880,138.265 285.500 C 138.154 285.225,138.049 291.930,138.031 300.400 M203.800 295.980 L 199.000 296.200 199.000 300.800 L 199.000 305.400 203.800 305.512 L 208.600 305.625 208.475 301.184 C 208.390 298.177,208.502 296.559,208.824 296.172 C 209.084 295.857,209.141 295.636,208.949 295.680 C 208.757 295.725,206.440 295.860,203.800 295.980 M340.210 296.500 C 339.839 297.628,339.809 306.351,340.178 305.982 C 340.388 305.772,342.378 305.600,344.600 305.600 C 346.822 305.600,348.812 305.772,349.022 305.982 C 349.391 306.351,349.361 297.628,348.990 296.500 C 348.872 296.142,347.626 296.000,344.600 296.000 C 341.574 296.000,340.328 296.142,340.210 296.500 M102.732 306.000 C 100.164 306.110,97.953 306.311,97.819 306.446 C 97.450 306.818,97.528 325.288,97.900 325.660 C 98.079 325.839,102.539 326.033,107.813 326.093 L 117.400 326.200 117.600 331.000 L 117.800 335.800 127.350 335.907 C 138.821 336.036,137.918 336.494,138.077 330.470 L 138.200 325.800 133.470 325.924 C 127.384 326.084,127.600 326.281,127.600 320.558 L 127.600 316.014 117.700 315.907 L 107.800 315.800 107.600 310.800 L 107.400 305.800 102.732 306.000 M338.983 335.977 C 338.766 336.194,336.611 336.423,334.194 336.486 L 329.800 336.600 329.688 341.400 L 329.577 346.200 334.488 346.290 C 337.190 346.340,341.875 346.484,344.900 346.612 L 350.400 346.843 350.400 341.422 L 350.400 336.000 345.433 336.000 C 342.701 336.000,340.221 335.906,339.921 335.791 C 339.622 335.676,339.200 335.760,338.983 335.977 M248.800 381.399 L 249.000 386.200 254.000 386.312 L 259.000 386.424 258.875 381.790 C 258.791 378.661,258.596 377.106,258.275 377.001 C 258.014 376.915,255.730 376.790,253.200 376.722 L 248.600 376.599 248.800 381.399 M178.070 387.084 C 178.305 387.367,178.415 389.403,178.336 391.985 L 178.200 396.401 183.400 396.400 L 188.600 396.400 188.600 391.500 L 188.600 386.600 183.134 386.600 C 178.902 386.600,177.759 386.709,178.070 387.084 M289.467 387.067 C 288.978 387.555,289.168 395.408,289.680 395.920 C 290.027 396.267,292.831 396.400,299.780 396.400 L 309.400 396.400 309.400 391.600 L 309.400 386.800 299.567 386.800 C 294.158 386.800,289.613 386.920,289.467 387.067 " stroke="none" fill="#cc3414" fill-rule="evenodd"></path><path id="path2" d="M128.400 89.200 L 128.400 94.000 132.800 94.000 L 137.200 94.000 137.200 89.200 L 137.200 84.400 132.800 84.400 L 128.400 84.400 128.400 89.200 M319.695 99.500 L 319.800 114.200 324.600 114.400 L 329.400 114.600 329.600 119.400 L 329.800 124.200 334.300 124.313 L 338.800 124.426 338.800 114.426 L 338.800 104.425 334.100 104.313 L 329.400 104.200 329.048 94.500 L 328.695 84.800 324.143 84.800 L 319.590 84.800 319.695 99.500 M148.300 94.694 L 138.000 94.814 138.000 99.407 L 138.000 104.000 147.520 104.000 C 158.834 104.000,158.000 103.586,158.000 109.200 C 158.000 114.814,157.167 114.400,168.472 114.400 L 177.985 114.400 178.193 115.300 C 178.308 115.795,178.446 118.000,178.501 120.200 L 178.600 124.200 193.200 124.200 L 207.800 124.200 207.913 119.500 L 208.025 114.800 198.227 114.800 C 186.640 114.800,187.600 115.343,187.600 108.784 L 187.600 104.315 178.089 104.606 C 166.751 104.952,167.669 105.423,167.514 99.176 L 167.400 94.600 163.000 94.587 C 160.580 94.580,153.965 94.628,148.300 94.694 M249.067 115.067 C 248.733 115.400,248.713 122.907,249.043 123.767 C 249.255 124.320,250.493 124.400,258.794 124.400 C 270.005 124.400,269.132 123.949,269.286 129.824 L 269.400 134.200 284.200 134.400 L 299.000 134.600 299.200 139.400 L 299.400 144.200 308.968 144.307 C 320.467 144.436,319.600 143.984,319.600 149.856 L 319.600 154.414 329.500 154.307 L 339.400 154.200 339.288 145.200 C 339.227 140.250,339.085 135.782,338.973 135.272 L 338.771 134.344 329.085 134.472 L 319.400 134.600 319.301 130.400 C 319.247 128.090,319.109 125.798,318.995 125.307 L 318.788 124.414 304.413 124.671 C 287.233 124.979,288.800 125.513,288.800 119.351 L 288.800 114.800 269.067 114.800 C 258.213 114.800,249.213 114.920,249.067 115.067 M57.600 139.720 C 57.600 145.389,57.789 145.200,52.120 145.200 L 47.600 145.200 47.600 149.800 L 47.600 154.400 51.920 154.400 C 57.381 154.400,57.200 154.205,57.200 160.080 L 57.200 164.800 52.200 164.800 L 47.200 164.800 47.200 169.800 L 47.200 174.800 42.188 174.800 L 37.175 174.800 37.288 179.700 L 37.400 184.600 41.742 184.714 C 47.369 184.862,47.200 185.027,47.200 179.351 L 47.200 174.800 52.188 174.800 L 57.175 174.800 57.288 179.700 L 57.400 184.600 62.200 184.600 L 67.000 184.600 67.112 179.700 L 67.225 174.800 71.963 174.800 C 77.741 174.800,77.539 174.608,77.686 180.224 L 77.800 184.600 82.262 184.713 C 87.707 184.850,87.541 184.682,87.686 190.224 L 87.800 194.600 92.300 194.713 L 96.800 194.826 96.800 185.013 L 96.800 175.200 92.043 175.200 C 86.245 175.200,86.800 176.326,86.800 164.567 L 86.800 155.200 82.200 155.200 L 77.600 155.200 77.600 159.520 C 77.600 164.981,77.795 164.800,71.920 164.800 L 67.200 164.800 67.200 160.080 C 67.200 154.205,67.019 154.400,72.480 154.400 L 76.800 154.400 76.800 144.800 L 76.800 135.200 67.200 135.200 L 57.600 135.200 57.600 139.720 M37.200 160.012 L 37.200 164.825 42.100 164.712 L 47.000 164.600 47.113 159.900 L 47.225 155.200 42.213 155.200 L 37.200 155.200 37.200 160.012 M27.280 165.280 C 26.624 165.936,26.624 173.664,27.280 174.320 C 27.597 174.637,29.298 174.800,32.280 174.800 L 36.800 174.800 36.800 169.800 L 36.800 164.800 32.280 164.800 C 29.298 164.800,27.597 164.963,27.280 165.280 M67.200 169.800 L 67.200 174.800 62.200 174.800 L 57.200 174.800 57.200 169.800 L 57.200 164.800 62.200 164.800 L 67.200 164.800 67.200 169.800 M218.667 266.267 C 218.178 266.755,218.368 274.608,218.880 275.120 C 219.694 275.934,237.841 275.790,238.157 274.967 C 238.291 274.619,238.400 272.459,238.400 270.167 L 238.400 266.000 228.667 266.000 C 223.313 266.000,218.813 266.120,218.667 266.267 M370.267 296.267 C 370.120 296.413,370.000 298.573,370.000 301.067 L 370.000 305.600 374.600 305.600 L 379.200 305.600 379.200 300.800 L 379.200 296.000 374.867 296.000 C 372.483 296.000,370.413 296.120,370.267 296.267 M228.800 361.388 L 228.800 366.400 233.351 366.400 C 239.027 366.400,238.862 366.569,238.714 360.942 L 238.600 356.600 233.700 356.488 L 228.800 356.375 228.800 361.388 M319.600 360.951 C 319.600 366.534,319.796 366.341,313.976 366.486 L 309.400 366.600 309.200 371.400 L 309.000 376.200 304.200 376.400 L 299.400 376.600 299.400 381.200 L 299.400 385.800 309.100 385.907 L 318.800 386.014 318.800 381.436 C 318.800 375.493,318.697 375.600,324.429 375.600 L 328.800 375.600 328.800 366.000 L 328.800 356.400 324.200 356.400 L 319.600 356.400 319.600 360.951 M208.593 366.900 C 208.493 367.175,208.364 369.380,208.306 371.800 L 208.200 376.200 203.400 376.400 L 198.600 376.600 198.600 381.200 L 198.600 385.800 208.300 385.907 L 218.000 386.014 218.000 381.221 C 218.000 375.404,217.792 375.600,223.974 375.600 L 228.400 375.600 228.400 371.000 L 228.400 366.400 218.587 366.400 C 211.101 366.400,208.732 366.519,208.593 366.900 " stroke="none" fill="#fcfcfc" fill-rule="evenodd"></path><path id="path3" d="M309.443 44.233 C 309.309 44.581,309.200 46.831,309.200 49.233 L 309.200 53.600 303.793 53.600 L 298.386 53.600 298.493 63.500 L 298.600 73.400 308.800 73.800 L 319.000 74.200 319.200 78.800 L 319.400 83.400 324.175 83.513 C 330.243 83.657,330.000 83.418,330.000 89.249 L 330.000 94.000 334.567 94.000 C 341.049 94.000,340.400 95.139,340.400 83.769 L 340.400 74.023 335.100 73.912 L 329.800 73.800 329.893 68.800 C 329.944 66.050,330.089 61.505,330.216 58.700 L 330.446 53.600 325.023 53.600 L 319.600 53.600 319.600 49.080 C 319.600 46.098,319.437 44.397,319.120 44.080 C 318.330 43.290,309.753 43.425,309.443 44.233 M97.424 83.700 C 97.307 89.475,97.108 96.585,96.983 99.500 L 96.756 104.800 101.778 104.800 L 106.800 104.800 106.800 110.000 L 106.800 115.200 111.800 115.200 L 116.800 115.200 116.800 120.200 L 116.800 125.200 121.800 125.200 L 126.800 125.200 126.800 130.200 L 126.800 135.200 132.000 135.200 L 137.200 135.200 137.200 140.200 L 137.200 145.200 142.200 145.200 L 147.200 145.200 147.200 150.200 L 147.200 155.200 152.200 155.200 L 157.200 155.200 157.200 160.400 L 157.200 165.600 162.200 165.600 L 167.200 165.600 167.200 175.212 L 167.200 184.823 172.500 184.712 L 177.800 184.600 177.914 180.024 C 178.057 174.260,177.876 174.451,183.338 174.313 L 187.800 174.200 187.800 169.600 L 187.800 165.000 177.912 164.893 L 168.025 164.786 167.912 159.893 L 167.800 155.000 162.800 154.800 L 157.800 154.600 157.600 149.800 L 157.400 145.000 152.600 144.800 L 147.800 144.600 147.600 139.800 L 147.400 135.000 142.600 134.800 L 137.800 134.600 137.600 129.600 L 137.400 124.600 132.763 124.488 L 128.125 124.376 127.863 117.124 C 127.718 113.135,127.600 107.319,127.600 104.200 C 127.600 101.081,127.482 95.259,127.337 91.264 L 127.074 84.000 122.817 84.000 C 117.410 84.000,117.600 84.215,117.600 78.120 L 117.600 73.200 107.619 73.200 L 97.637 73.200 97.424 83.700 M138.400 88.400 L 138.400 93.600 148.200 93.600 L 158.000 93.600 158.000 88.400 L 158.000 83.200 148.200 83.200 L 138.400 83.200 138.400 88.400 M288.400 93.788 L 288.400 103.600 263.200 103.600 L 238.000 103.600 238.000 108.595 L 238.000 113.590 223.500 113.695 L 209.000 113.800 209.000 118.800 L 209.000 123.800 223.600 123.800 L 238.200 123.800 238.400 119.000 L 238.600 114.200 263.600 114.000 L 288.600 113.800 288.800 109.000 L 289.000 104.200 293.800 104.000 L 298.600 103.800 298.600 94.000 L 298.600 84.200 293.500 84.088 L 288.400 83.976 288.400 93.788 M168.667 93.467 C 168.520 93.613,168.400 95.953,168.400 98.667 L 168.400 103.600 173.400 103.600 L 178.400 103.600 178.400 98.400 L 178.400 93.200 173.667 93.200 C 171.063 93.200,168.813 93.320,168.667 93.467 M188.888 108.700 L 189.000 113.800 192.800 113.917 C 198.785 114.102,198.400 114.468,198.400 108.592 L 198.400 103.600 193.588 103.600 L 188.776 103.600 188.888 108.700 M340.267 104.267 C 340.120 104.413,340.000 111.253,340.000 119.467 L 340.000 134.400 345.200 134.400 L 350.400 134.400 350.400 119.200 L 350.400 104.000 345.467 104.000 C 342.753 104.000,340.413 104.120,340.267 104.267 M56.400 128.600 L 56.400 133.600 51.400 133.600 L 46.400 133.600 46.400 138.593 L 46.400 143.586 36.300 143.693 L 26.200 143.800 26.088 148.900 L 25.976 154.000 20.988 154.000 L 16.000 154.000 16.000 159.000 L 16.000 164.000 11.000 164.000 L 6.000 164.000 6.000 174.400 L 6.000 184.800 11.200 184.800 L 16.400 184.800 16.406 175.100 C 16.413 163.431,15.901 164.454,21.815 164.313 L 26.600 164.200 26.712 159.300 L 26.825 154.400 29.912 154.399 C 31.611 154.398,36.100 154.280,39.888 154.136 L 46.776 153.875 46.888 149.037 L 47.000 144.200 51.888 144.088 L 56.776 143.976 56.888 139.088 L 57.000 134.200 67.172 134.093 C 75.043 134.010,77.417 134.101,77.666 134.493 C 77.843 134.772,77.991 139.275,77.994 144.500 L 78.000 154.000 82.324 154.000 C 88.440 154.000,87.973 153.142,88.096 164.600 L 88.200 174.200 93.000 174.400 L 97.800 174.600 98.000 184.600 L 98.200 194.600 103.000 194.800 L 107.800 195.000 107.907 204.888 L 108.014 214.775 112.907 214.888 L 117.800 215.000 117.800 230.200 L 117.800 245.400 113.000 245.600 L 108.200 245.800 108.000 250.600 L 107.800 255.400 103.600 255.499 C 101.290 255.553,98.995 255.692,98.500 255.807 L 97.600 256.015 97.600 265.608 L 97.600 275.200 102.320 275.200 C 108.216 275.200,108.000 274.991,108.000 280.680 L 108.000 285.200 112.500 285.206 C 118.379 285.214,118.048 284.871,117.913 290.832 L 117.800 295.800 113.000 296.000 L 108.200 296.200 107.848 305.477 C 107.655 310.579,107.604 315.034,107.736 315.377 C 107.943 315.918,109.270 316.000,117.787 316.000 L 127.600 316.000 127.600 320.520 C 127.600 326.185,127.417 326.000,133.035 326.000 L 137.510 326.000 137.801 315.900 C 137.961 310.345,138.026 296.710,137.946 285.600 L 137.800 265.400 142.800 265.200 L 147.800 265.000 148.000 250.200 L 148.200 235.400 152.900 235.287 L 157.600 235.175 157.600 230.187 L 157.600 225.200 152.400 225.200 L 147.200 225.200 147.200 229.800 L 147.200 234.400 142.200 234.400 L 137.200 234.400 137.200 249.600 L 137.200 264.800 132.000 264.800 L 126.800 264.800 126.800 274.800 L 126.800 284.800 122.600 284.800 L 118.400 284.800 118.400 279.800 L 118.400 274.800 113.400 274.800 L 108.400 274.800 108.400 265.400 L 108.400 256.000 113.400 256.000 L 118.400 256.000 118.400 251.000 L 118.400 246.000 123.400 246.000 L 128.400 246.000 128.400 230.200 L 128.400 214.400 123.400 214.400 L 118.400 214.400 118.400 204.200 L 118.400 194.000 113.400 194.000 L 108.400 194.000 108.400 184.000 L 108.400 174.000 103.400 174.000 L 98.400 174.000 98.400 164.000 L 98.400 154.000 93.400 154.000 L 88.400 154.000 88.400 143.800 L 88.400 133.600 83.200 133.600 L 78.000 133.600 78.000 128.600 L 78.000 123.600 67.200 123.600 L 56.400 123.600 56.400 128.600 M350.267 154.667 C 350.120 154.813,349.997 156.928,349.994 159.367 C 349.986 165.051,350.270 164.750,344.785 164.886 L 340.200 165.000 340.087 169.700 L 339.975 174.400 349.507 174.400 C 360.878 174.400,360.000 173.942,360.000 179.880 L 360.000 184.400 365.200 184.400 L 370.400 184.400 370.400 174.200 L 370.400 164.000 365.400 164.000 L 360.400 164.000 360.400 159.200 L 360.400 154.400 355.467 154.400 C 352.753 154.400,350.413 154.520,350.267 154.667 M229.286 165.139 C 228.906 165.379,228.801 166.607,228.886 169.832 L 229.000 174.200 248.800 174.200 L 268.600 174.200 268.714 170.058 C 268.789 167.348,268.669 165.724,268.365 165.358 C 267.841 164.726,230.269 164.515,229.286 165.139 M309.778 185.714 C 309.664 186.011,309.622 188.132,309.685 190.427 L 309.800 194.600 313.600 194.717 C 319.578 194.902,319.246 195.192,319.113 189.889 L 319.000 185.400 314.493 185.287 C 310.996 185.199,309.938 185.295,309.778 185.714 M370.239 195.442 C 370.103 195.796,369.875 202.630,369.732 210.630 L 369.471 225.176 364.835 225.288 L 360.200 225.400 360.000 235.400 L 359.800 245.400 355.000 245.600 L 350.200 245.800 350.088 250.900 L 349.976 256.000 355.188 256.000 L 360.400 256.000 360.400 251.000 L 360.400 246.000 365.400 246.000 L 370.400 246.000 370.400 236.000 L 370.400 226.000 375.600 226.000 L 380.800 226.000 380.800 210.400 L 380.800 194.800 375.643 194.800 C 371.276 194.800,370.448 194.898,370.239 195.442 M16.500 195.459 C 16.138 195.609,16.000 197.037,16.000 200.633 L 16.000 205.600 20.988 205.600 L 25.976 205.600 26.088 210.700 L 26.200 215.800 31.300 215.912 L 36.400 216.024 36.400 221.012 L 36.400 226.000 41.400 226.000 L 46.400 226.000 46.400 231.000 L 46.400 236.000 51.400 236.000 L 56.400 236.000 56.400 240.200 L 56.400 244.400 51.400 244.400 L 46.400 244.400 46.400 249.600 L 46.400 254.800 41.400 254.800 L 36.400 254.800 36.400 265.600 L 36.400 276.400 46.400 276.400 L 56.400 276.400 56.400 281.400 L 56.400 286.400 61.400 286.400 L 66.400 286.400 66.400 291.400 L 66.400 296.400 71.400 296.400 L 76.400 296.400 76.400 300.800 L 76.400 305.200 71.400 305.200 L 66.400 305.200 66.400 311.000 L 66.400 316.800 71.400 316.800 L 76.400 316.800 76.400 321.800 L 76.400 326.800 86.600 326.800 L 96.800 326.800 96.800 331.800 L 96.800 336.800 106.800 336.800 L 116.800 336.800 116.800 341.800 L 116.800 346.800 127.000 346.800 L 137.200 346.800 137.200 357.000 L 137.200 367.200 142.200 367.200 L 147.200 367.200 147.200 377.200 L 147.200 387.200 152.200 387.200 L 157.200 387.200 157.200 397.200 L 157.200 407.200 162.188 407.200 L 167.176 407.200 167.288 412.300 L 167.400 417.400 183.300 417.505 L 199.200 417.609 199.200 412.405 L 199.200 407.200 204.200 407.200 L 209.200 407.200 209.200 402.200 L 209.200 397.200 214.200 397.200 L 219.200 397.200 219.200 392.200 L 219.200 387.200 233.600 387.200 L 248.000 387.200 248.000 392.200 L 248.000 397.200 258.000 397.200 L 268.000 397.200 268.000 402.200 L 268.000 407.200 273.200 407.200 L 278.400 407.200 278.400 412.400 L 278.400 417.600 299.200 417.600 L 320.000 417.600 320.000 412.400 L 320.000 407.200 325.211 407.200 L 330.422 407.200 330.311 401.500 L 330.200 395.800 325.100 395.688 L 320.000 395.576 320.000 391.388 L 320.000 387.200 325.200 387.200 L 330.400 387.200 330.400 382.200 L 330.400 377.200 335.400 377.200 L 340.400 377.200 340.400 362.014 C 340.400 347.410,340.370 346.812,339.626 346.414 C 338.469 345.795,330.022 345.870,329.916 346.500 C 329.870 346.775,329.825 353.660,329.816 361.800 L 329.800 376.600 324.900 376.712 L 320.000 376.825 320.000 381.180 C 320.000 387.194,320.351 386.800,314.990 386.800 C 308.801 386.800,309.200 386.469,309.200 391.600 C 309.200 396.733,308.795 396.400,315.033 396.400 L 319.600 396.400 319.600 401.600 L 319.600 406.800 299.212 406.800 L 278.825 406.800 278.712 401.900 L 278.600 397.000 273.800 396.800 L 269.000 396.600 268.800 391.800 L 268.600 387.000 258.800 386.600 L 249.000 386.200 248.887 381.500 L 248.775 376.800 233.987 376.800 L 219.200 376.800 219.200 381.167 C 219.200 383.569,219.091 385.819,218.957 386.167 C 218.742 386.729,217.010 386.800,203.557 386.800 L 188.400 386.800 188.400 391.357 C 188.400 396.756,188.002 396.400,194.025 396.400 C 199.193 396.400,198.894 396.017,198.717 402.400 L 198.600 406.600 183.300 406.705 L 168.000 406.810 168.000 401.605 L 168.000 396.400 172.751 396.400 C 178.635 396.400,178.464 396.562,178.314 391.142 L 178.200 387.000 173.200 386.800 L 168.200 386.600 168.000 381.800 L 167.800 377.000 163.132 376.800 C 157.459 376.557,157.843 376.941,157.600 371.268 L 157.400 366.600 152.500 366.488 L 147.600 366.375 147.600 346.388 L 147.600 326.400 142.800 326.400 L 138.000 326.400 138.000 330.751 C 138.000 336.449,138.851 336.037,127.350 335.907 L 117.800 335.800 117.600 331.000 L 117.400 326.200 107.600 326.000 L 97.800 325.800 97.686 321.215 C 97.545 315.532,98.541 316.013,86.900 316.006 L 77.200 316.000 77.200 310.812 L 77.200 305.625 82.100 305.512 L 87.000 305.400 87.000 295.800 L 87.000 286.200 77.112 286.093 L 67.225 285.986 67.112 281.093 L 67.000 276.200 62.424 276.086 C 56.638 275.942,56.850 276.151,56.712 270.461 L 56.600 265.800 51.800 265.600 L 47.000 265.400 47.000 260.400 L 47.000 255.400 57.000 255.182 C 62.500 255.063,67.048 254.928,67.107 254.882 C 67.166 254.837,67.166 250.525,67.107 245.300 L 67.000 235.800 62.215 235.687 C 56.498 235.551,56.814 235.877,56.806 230.100 L 56.800 225.600 52.300 225.594 C 46.523 225.586,46.849 225.902,46.713 220.185 L 46.600 215.400 41.712 215.288 L 36.824 215.176 36.712 210.288 L 36.600 205.400 31.712 205.288 L 26.824 205.176 26.712 200.288 L 26.600 195.400 21.800 195.326 C 19.160 195.285,16.775 195.345,16.500 195.459 M157.288 209.700 L 157.400 214.600 162.600 214.600 L 167.800 214.600 167.914 210.258 C 168.063 204.590,168.284 204.800,162.139 204.800 L 157.175 204.800 157.288 209.700 M269.378 205.714 C 269.264 206.011,269.222 208.132,269.285 210.427 L 269.400 214.600 274.000 214.600 L 278.600 214.600 278.600 210.000 L 278.600 205.400 274.093 205.287 C 270.596 205.199,269.538 205.295,269.378 205.714 M299.874 205.460 C 299.723 205.610,299.600 207.777,299.600 210.274 L 299.600 214.814 309.300 214.707 L 319.000 214.600 319.000 210.000 L 319.000 205.400 309.574 205.293 C 304.389 205.234,300.024 205.309,299.874 205.460 M329.778 205.714 C 329.664 206.011,329.622 208.132,329.685 210.427 L 329.800 214.600 334.400 214.600 L 339.000 214.600 339.000 210.000 L 339.000 205.400 334.493 205.287 C 330.996 205.199,329.938 205.295,329.778 205.714 M279.641 215.751 C 279.330 216.125,279.210 217.719,279.286 220.458 L 279.400 224.600 289.113 224.707 L 298.826 224.814 298.713 220.107 L 298.600 215.400 289.355 215.293 C 281.779 215.205,280.025 215.288,279.641 215.751 M319.778 215.714 C 319.664 216.011,319.622 218.132,319.685 220.427 L 319.800 224.600 324.400 224.600 L 329.000 224.600 329.000 220.000 L 329.000 215.400 324.493 215.287 C 320.996 215.199,319.938 215.295,319.778 215.714 M199.074 255.860 C 198.923 256.010,198.800 258.177,198.800 260.674 L 198.800 265.214 208.500 265.107 L 218.200 265.000 218.200 260.400 L 218.200 255.800 208.774 255.693 C 203.589 255.634,199.224 255.709,199.074 255.860 M340.000 270.400 L 340.000 275.200 344.520 275.200 C 347.502 275.200,349.203 275.363,349.520 275.680 C 349.837 275.997,350.000 277.698,350.000 280.680 L 350.000 285.200 360.200 285.200 L 370.400 285.200 370.400 280.000 L 370.400 274.800 360.400 274.800 L 350.400 274.800 350.400 270.200 L 350.400 265.600 345.200 265.600 L 340.000 265.600 340.000 270.400 M238.990 276.500 C 238.867 276.995,238.818 279.110,238.883 281.200 L 239.000 285.000 243.700 285.113 L 248.400 285.225 248.400 280.413 L 248.400 275.600 243.808 275.600 C 239.378 275.600,239.207 275.632,238.990 276.500 M218.973 286.527 C 218.861 286.817,218.822 288.932,218.885 291.227 L 219.000 295.400 228.600 295.400 L 238.200 295.400 238.313 290.700 L 238.425 286.000 228.800 286.000 C 221.206 286.000,219.132 286.111,218.973 286.527 M380.667 295.067 C 380.520 295.213,380.400 296.714,380.400 298.403 C 380.400 300.091,380.282 304.741,380.137 308.736 L 379.874 316.000 364.744 316.000 L 349.615 316.000 349.407 315.100 C 349.292 314.605,349.153 312.310,349.099 310.000 L 349.000 305.800 344.600 305.800 L 340.200 305.800 340.095 320.900 L 339.990 336.000 345.195 336.000 L 350.400 336.000 350.400 331.400 L 350.400 326.800 365.600 326.800 L 380.800 326.800 380.800 321.800 L 380.800 316.800 385.800 316.800 L 390.800 316.800 390.800 305.800 L 390.800 294.800 385.867 294.800 C 383.153 294.800,380.813 294.920,380.667 295.067 M208.578 296.514 C 208.464 296.811,208.422 298.932,208.485 301.227 L 208.600 305.400 213.400 305.400 L 218.200 305.400 218.200 300.800 L 218.200 296.200 213.492 296.087 C 209.830 296.000,208.739 296.094,208.578 296.514 M126.800 300.800 L 126.800 305.200 122.600 305.200 L 118.400 305.200 118.400 300.800 L 118.400 296.400 122.600 296.400 L 126.800 296.400 126.800 300.800 " stroke="none" fill="#040404" fill-rule="evenodd"></path><path id="path4" d="M301.500 73.896 C 302.875 73.974,305.125 73.974,306.500 73.896 C 307.875 73.818,306.750 73.754,304.000 73.754 C 301.250 73.754,300.125 73.818,301.500 73.896 M324.061 83.898 C 329.748 84.053,329.538 83.840,329.701 89.624 L 329.829 94.200 329.914 89.380 C 330.022 83.313,330.287 83.578,324.220 83.686 L 319.400 83.772 324.061 83.898 M138.181 88.899 L 138.200 93.800 148.000 93.811 L 157.800 93.822 148.112 93.704 L 138.425 93.586 138.293 88.792 L 138.161 83.999 138.181 88.899 M127.527 99.000 C 127.628 107.140,127.776 113.875,127.855 113.967 C 128.101 114.250,127.922 95.311,127.625 89.600 C 127.470 86.630,127.426 90.860,127.527 99.000 M298.796 94.000 L 298.600 103.800 293.800 104.000 L 289.000 104.200 288.800 109.000 L 288.600 113.800 263.600 114.000 L 238.600 114.200 238.400 119.000 L 238.200 123.800 223.600 123.800 L 209.000 123.800 208.780 119.000 L 208.561 114.200 208.480 118.667 C 208.436 121.124,208.509 123.419,208.643 123.767 C 208.858 124.328,210.554 124.400,223.635 124.400 L 238.385 124.400 238.593 123.500 C 238.708 123.005,238.846 120.800,238.901 118.600 L 239.000 114.600 263.563 114.497 C 280.895 114.424,288.284 114.263,288.663 113.948 C 289.055 113.623,289.200 112.272,289.200 108.951 L 289.200 104.400 293.751 104.400 C 299.681 104.400,299.238 105.282,299.103 93.750 L 298.992 84.200 298.796 94.000 M168.180 99.099 L 168.200 103.800 173.200 103.820 L 178.200 103.840 173.313 103.708 L 168.425 103.576 168.293 98.987 L 168.160 94.399 168.180 99.099 M188.575 109.000 L 188.600 114.200 192.911 114.314 C 195.282 114.376,197.475 114.286,197.785 114.114 C 198.094 113.941,196.244 113.800,193.674 113.800 L 189.000 113.800 188.775 108.800 L 188.549 103.800 188.575 109.000 M339.781 119.200 C 339.781 127.450,339.834 130.825,339.899 126.700 C 339.964 122.575,339.964 115.825,339.899 111.700 C 339.834 107.575,339.781 110.950,339.781 119.200 M137.774 129.600 L 137.800 134.600 142.600 134.800 L 147.400 135.000 147.600 139.800 L 147.800 144.600 152.600 144.800 L 157.400 145.000 157.600 149.800 L 157.800 154.600 162.600 154.627 L 167.400 154.654 162.800 154.427 L 158.200 154.200 158.101 150.200 C 157.946 143.945,158.387 144.444,152.896 144.313 L 148.200 144.200 148.086 139.824 C 147.941 134.282,148.107 134.450,142.662 134.313 L 138.200 134.200 137.974 129.400 L 137.748 124.600 137.774 129.600 M57.067 134.267 C 56.920 134.413,56.800 136.658,56.800 139.254 L 56.800 143.975 51.900 144.088 L 47.000 144.200 46.888 149.037 L 46.776 153.875 39.888 154.136 C 36.100 154.280,31.605 154.398,29.900 154.399 C 28.195 154.399,26.800 154.535,26.800 154.700 C 26.800 154.954,33.143 154.816,44.400 154.316 L 47.000 154.200 47.200 149.400 L 47.400 144.600 52.200 144.400 L 57.000 144.200 57.200 139.400 L 57.400 134.600 66.950 134.493 C 73.659 134.417,76.664 134.521,77.050 134.842 C 77.489 135.205,77.600 137.234,77.600 144.849 L 77.600 154.400 82.151 154.400 C 88.015 154.400,87.564 153.534,87.693 165.032 L 87.800 174.600 92.600 174.800 L 97.400 175.000 97.507 184.587 C 97.567 189.861,97.747 194.307,97.907 194.468 C 98.068 194.630,98.110 190.225,98.000 184.681 L 97.800 174.600 93.000 174.400 L 88.200 174.200 88.096 164.600 C 87.973 153.142,88.440 154.000,82.324 154.000 L 78.000 154.000 78.000 144.633 C 78.000 139.481,77.891 134.981,77.757 134.633 C 77.504 133.974,57.710 133.623,57.067 134.267 M349.684 159.420 C 349.631 162.219,349.424 164.016,349.120 164.320 C 348.755 164.685,348.753 164.800,349.112 164.800 C 349.847 164.800,350.045 163.339,349.901 159.000 L 349.767 155.000 349.684 159.420 M21.815 164.299 C 15.898 164.457,16.395 163.456,16.495 175.000 L 16.579 184.600 16.789 174.800 L 17.000 165.000 21.594 164.886 C 24.121 164.823,26.362 164.598,26.574 164.386 C 26.786 164.174,26.879 164.039,26.780 164.086 C 26.681 164.133,24.447 164.229,21.815 164.299 M187.800 169.538 L 187.800 174.200 183.424 174.314 C 177.817 174.461,177.982 174.293,178.080 179.749 L 178.160 184.200 178.380 179.600 L 178.600 175.000 183.185 174.886 C 186.236 174.810,187.873 174.610,188.079 174.286 C 188.477 173.660,188.496 165.307,188.100 165.061 C 187.935 164.959,187.800 166.973,187.800 169.538 M268.314 165.258 C 268.677 165.722,268.795 167.140,268.714 170.058 L 268.600 174.200 248.800 174.200 L 229.000 174.200 228.779 169.800 L 228.558 165.400 228.479 169.620 C 228.426 172.465,228.556 173.996,228.880 174.320 C 229.572 175.012,268.028 175.012,268.720 174.320 C 269.547 173.493,269.363 165.826,268.500 165.149 C 267.875 164.659,267.855 164.671,268.314 165.258 M339.773 165.326 C 339.662 165.615,339.623 167.820,339.686 170.226 L 339.800 174.600 349.600 174.800 L 359.400 175.000 359.600 179.800 L 359.800 184.600 364.600 184.618 L 369.400 184.637 364.700 184.506 L 360.000 184.375 360.000 179.868 C 360.000 173.943,360.878 174.400,349.496 174.400 L 339.953 174.400 340.076 169.599 C 340.199 164.836,340.162 164.313,339.773 165.326 M309.680 185.280 C 309.147 185.813,308.984 194.219,309.500 194.539 C 309.665 194.641,309.800 192.627,309.800 190.062 L 309.800 185.400 314.400 185.400 L 319.000 185.400 319.221 189.800 L 319.442 194.200 319.521 189.980 C 319.620 184.675,319.744 184.800,314.400 184.800 C 311.636 184.800,309.993 184.967,309.680 185.280 M18.600 195.062 C 22.435 195.355,26.711 195.376,26.540 195.100 C 26.437 194.935,24.248 194.831,21.676 194.870 C 19.104 194.908,17.720 194.995,18.600 195.062 M107.093 195.267 C 107.445 195.694,107.616 198.583,107.693 205.432 L 107.800 215.000 112.600 215.200 L 117.400 215.400 117.400 230.200 L 117.400 245.000 112.704 245.113 C 107.213 245.244,107.654 244.745,107.499 251.000 L 107.400 255.000 102.732 255.200 C 96.624 255.462,96.316 255.834,102.332 255.682 C 108.494 255.527,107.956 256.010,108.087 250.517 L 108.200 245.800 113.000 245.600 L 117.800 245.400 117.800 230.200 L 117.800 215.000 112.907 214.888 L 108.014 214.775 107.907 204.921 C 107.816 196.581,107.708 195.036,107.200 194.868 C 106.711 194.707,106.691 194.780,107.093 195.267 M369.773 195.726 C 369.662 196.015,369.624 198.220,369.688 200.626 L 369.805 205.000 370.002 200.099 C 370.198 195.258,370.168 194.696,369.773 195.726 M26.799 204.888 C 26.800 205.046,29.005 205.226,31.700 205.288 L 36.600 205.400 36.712 210.300 C 36.774 212.995,36.954 215.200,37.112 215.201 C 37.552 215.202,37.205 205.888,36.744 205.333 C 36.304 204.802,26.798 204.376,26.799 204.888 M269.280 205.280 C 268.967 205.593,268.800 207.236,268.800 210.000 C 268.800 215.351,268.641 215.200,274.280 215.200 L 278.800 215.200 278.800 219.751 C 278.800 225.681,277.918 225.237,289.450 225.107 L 299.000 225.000 299.112 220.100 L 299.225 215.200 309.212 215.200 L 319.200 215.200 319.200 219.720 C 319.200 225.359,319.049 225.200,324.400 225.200 C 329.751 225.200,329.600 225.359,329.600 219.720 L 329.600 215.200 334.120 215.200 C 339.759 215.200,339.600 215.351,339.600 210.000 C 339.600 204.656,339.725 204.780,334.420 204.879 L 330.200 204.958 334.600 205.179 L 339.000 205.400 339.000 210.000 L 339.000 214.600 334.269 214.664 C 328.568 214.741,329.141 214.168,329.064 219.869 L 329.000 224.600 324.400 224.600 L 319.800 224.600 319.700 215.220 C 319.645 210.061,319.465 205.705,319.300 205.539 C 319.135 205.374,319.000 207.345,319.000 209.919 L 319.000 214.600 309.287 214.707 L 299.574 214.814 299.687 210.107 L 299.800 205.400 309.200 205.189 L 318.600 204.978 309.380 204.889 C 298.368 204.783,299.200 204.347,299.200 210.213 C 299.200 212.663,299.089 214.777,298.954 214.913 C 298.819 215.048,298.738 217.331,298.775 219.986 L 298.841 224.814 289.121 224.707 L 279.400 224.600 279.286 220.458 C 279.215 217.901,279.337 216.117,279.605 215.794 C 279.906 215.432,279.910 215.192,279.619 215.012 C 279.367 214.856,279.200 212.961,279.200 210.256 C 279.200 204.644,279.349 204.800,274.000 204.800 C 271.236 204.800,269.593 204.967,269.280 205.280 M278.600 210.000 L 278.600 214.600 274.000 214.600 L 269.400 214.600 269.285 210.427 C 269.130 204.775,268.776 205.153,274.093 205.287 L 278.600 205.400 278.600 210.000 M163.000 214.800 L 158.200 215.039 162.876 215.120 C 165.653 215.167,167.653 215.037,167.800 214.800 C 167.936 214.580,167.992 214.436,167.924 214.480 C 167.856 214.525,165.640 214.669,163.000 214.800 M46.725 220.110 C 46.874 225.919,46.535 225.586,52.300 225.594 L 56.800 225.600 56.806 230.100 C 56.814 235.865,56.481 235.526,62.290 235.675 C 64.970 235.744,67.034 235.671,66.876 235.514 C 66.717 235.357,64.521 235.177,61.994 235.114 L 57.400 235.000 57.200 230.200 L 57.000 225.400 52.200 225.200 L 47.400 225.000 47.286 220.406 C 47.223 217.879,47.043 215.683,46.886 215.524 C 46.729 215.366,46.656 217.430,46.725 220.110 M157.753 230.200 C 157.753 232.840,157.818 233.868,157.897 232.484 C 157.975 231.101,157.974 228.941,157.895 227.684 C 157.816 226.428,157.752 227.560,157.753 230.200 M359.596 235.200 L 359.400 245.000 355.024 245.114 C 349.397 245.261,349.582 245.066,349.680 250.749 L 349.761 255.400 349.980 250.600 L 350.200 245.800 354.917 245.687 C 360.611 245.551,360.040 246.774,359.904 234.992 L 359.792 225.400 359.596 235.200 M56.800 255.189 L 47.000 255.400 46.887 260.167 C 46.824 262.788,46.914 265.075,47.087 265.248 C 47.259 265.421,47.345 263.321,47.277 260.581 L 47.154 255.600 56.677 255.594 C 62.134 255.590,66.456 255.422,66.800 255.200 C 67.130 254.987,67.220 254.850,67.000 254.895 C 66.780 254.941,62.190 255.073,56.800 255.189 M198.835 255.757 C 198.529 256.126,198.411 257.850,198.486 260.857 L 198.600 265.400 208.173 265.507 C 213.438 265.566,217.884 265.476,218.053 265.307 C 218.223 265.138,213.954 265.051,208.568 265.114 L 198.774 265.227 198.887 260.514 L 199.000 255.800 208.600 255.589 L 218.200 255.378 208.749 255.289 C 201.077 255.217,199.211 255.305,198.835 255.757 M137.867 265.467 C 137.720 265.613,137.640 270.248,137.689 275.767 L 137.779 285.800 137.989 275.800 L 138.200 265.800 142.800 265.580 L 147.400 265.360 142.767 265.280 C 140.218 265.236,138.013 265.320,137.867 265.467 M56.723 270.389 C 56.804 273.497,57.014 275.280,57.333 275.544 C 57.878 275.997,67.327 276.363,66.876 275.914 C 66.717 275.757,64.521 275.577,61.994 275.514 L 57.400 275.400 57.286 270.806 C 57.223 268.279,57.043 266.083,56.886 265.924 C 56.729 265.766,56.655 267.775,56.723 270.389 M339.780 270.699 L 339.800 275.400 344.600 275.600 L 349.400 275.800 349.600 280.600 L 349.800 285.400 359.700 285.411 L 369.600 285.421 359.800 285.304 L 350.000 285.186 350.000 280.673 C 350.000 275.013,350.187 275.200,344.533 275.200 L 340.025 275.200 339.893 270.599 L 339.760 265.999 339.780 270.699 M102.600 275.580 L 107.400 275.800 107.600 280.600 L 107.800 285.400 112.600 285.600 L 117.400 285.800 117.400 290.600 L 117.400 295.400 112.815 295.514 C 107.309 295.651,107.592 295.337,107.687 301.200 L 107.761 305.800 107.980 301.000 L 108.200 296.200 113.000 296.000 L 117.800 295.800 117.913 290.832 C 118.048 284.871,118.379 285.214,112.500 285.206 L 108.000 285.200 108.000 280.680 C 108.000 274.979,108.208 275.180,102.420 275.280 L 97.800 275.361 102.600 275.580 M248.485 280.521 L 248.400 285.241 243.579 285.175 C 240.928 285.138,238.648 285.219,238.513 285.354 C 238.377 285.489,234.013 285.600,228.813 285.600 C 217.533 285.600,218.400 285.144,218.400 291.080 L 218.400 295.600 213.700 295.680 L 209.000 295.760 213.600 295.980 C 219.259 296.251,218.860 296.628,218.936 290.944 L 219.000 286.200 228.724 286.093 L 238.447 285.986 238.324 290.774 C 238.256 293.408,238.329 295.434,238.486 295.276 C 238.643 295.117,238.823 292.921,238.886 290.394 L 239.000 285.800 243.717 285.687 C 249.257 285.555,248.871 285.982,248.699 280.174 L 248.570 275.800 248.485 280.521 M67.232 285.293 C 67.203 285.930,68.003 285.995,77.100 286.093 L 87.000 286.200 87.000 295.800 L 87.000 305.400 82.100 305.512 L 77.200 305.625 77.200 310.812 C 77.200 313.666,77.335 316.000,77.500 316.001 C 77.665 316.001,77.745 313.751,77.677 311.001 L 77.554 306.000 82.097 306.000 C 85.097 306.000,86.803 305.837,87.120 305.520 C 87.801 304.839,87.801 286.761,87.120 286.080 C 86.774 285.734,83.999 285.600,77.153 285.600 C 69.938 285.600,67.618 285.480,67.465 285.100 C 67.343 284.799,67.251 284.875,67.232 285.293 M380.158 301.000 C 380.158 304.080,380.221 305.287,380.297 303.682 C 380.373 302.078,380.373 299.558,380.296 298.082 C 380.219 296.607,380.157 297.920,380.158 301.000 M211.315 305.896 C 212.588 305.976,214.568 305.975,215.715 305.894 C 216.862 305.814,215.820 305.749,213.400 305.750 C 210.980 305.751,210.042 305.816,211.315 305.896 M339.781 321.000 C 339.781 329.140,339.834 332.413,339.900 328.274 C 339.965 324.134,339.965 317.474,339.899 313.474 C 339.834 309.473,339.781 312.860,339.781 321.000 M349.285 310.467 C 349.198 314.819,349.371 316.000,350.092 316.000 C 350.352 316.000,350.342 315.812,350.063 315.476 C 349.824 315.188,349.570 312.983,349.499 310.576 L 349.370 306.200 349.285 310.467 M137.781 321.099 L 137.800 326.200 142.700 326.312 L 147.600 326.425 147.600 346.412 C 147.600 365.184,147.643 366.400,148.300 366.394 C 148.795 366.390,148.855 366.295,148.504 366.073 C 148.122 365.830,147.984 361.192,147.904 345.979 L 147.800 326.200 142.912 326.088 L 138.024 325.976 137.893 320.987 L 137.763 315.999 137.781 321.099 M329.687 365.400 C 329.568 377.389,330.067 376.345,324.385 376.486 L 319.800 376.600 319.701 380.600 C 319.545 386.885,319.970 386.400,314.616 386.400 C 312.103 386.400,309.963 386.535,309.861 386.700 C 309.758 386.865,311.859 386.944,314.529 386.875 C 320.317 386.726,319.986 387.063,319.994 381.300 L 320.000 376.800 324.813 376.800 C 330.636 376.800,330.040 378.113,329.900 365.593 L 329.786 355.400 329.687 365.400 M157.600 371.205 C 157.710 373.808,157.949 376.086,158.132 376.268 C 158.548 376.685,167.994 377.109,167.739 376.700 C 167.637 376.535,165.619 376.400,163.256 376.400 C 157.864 376.400,158.000 376.536,158.000 371.144 C 158.000 368.781,157.865 366.763,157.700 366.661 C 157.535 366.558,157.490 368.603,157.600 371.205 M218.863 376.924 C 218.624 377.212,218.377 379.417,218.314 381.824 L 218.200 386.200 203.400 386.407 L 188.600 386.615 203.657 386.707 C 217.073 386.790,218.741 386.731,218.957 386.167 C 219.091 385.819,219.200 383.572,219.200 381.172 L 219.200 376.810 233.900 376.700 L 248.600 376.590 233.949 376.495 C 222.271 376.419,219.210 376.506,218.863 376.924 M168.068 386.000 C 168.228 386.487,169.163 386.604,173.033 386.622 L 177.800 386.644 173.424 386.508 C 170.776 386.425,168.815 386.180,168.459 385.886 C 167.982 385.493,167.908 385.514,168.068 386.000 M263.600 386.781 L 268.600 387.000 268.800 391.800 L 269.000 396.600 273.800 396.800 L 278.600 397.000 278.712 401.900 L 278.825 406.800 299.212 406.800 L 319.600 406.800 319.600 401.600 C 319.600 398.740,319.465 396.400,319.300 396.399 C 319.135 396.399,319.055 398.649,319.123 401.399 L 319.246 406.400 299.223 406.400 L 279.200 406.400 279.200 401.880 C 279.200 396.211,279.389 396.400,273.720 396.400 L 269.200 396.400 269.200 391.880 C 269.200 386.160,269.435 386.380,263.420 386.481 L 258.600 386.562 263.600 386.781 M197.965 396.958 C 198.270 397.325,198.389 398.999,198.314 401.858 L 198.200 406.200 183.100 406.200 C 174.795 406.200,168.000 406.337,168.000 406.505 C 168.000 406.672,174.885 406.762,183.300 406.705 L 198.600 406.600 198.717 402.400 C 198.841 397.905,198.647 396.400,197.943 396.400 C 197.632 396.400,197.638 396.564,197.965 396.958 " stroke="none" fill="#388480" fill-rule="evenodd"></path><path id="path5" d="" stroke="none" fill="#b8e850" fill-rule="evenodd"></path><path id="path6" d="M301.500 74.296 C 302.875 74.374,305.125 74.374,306.500 74.296 C 307.875 74.218,306.750 74.154,304.000 74.154 C 301.250 74.154,300.125 74.218,301.500 74.296 M127.790 84.100 C 127.689 84.375,127.756 91.260,127.939 99.400 L 128.273 114.200 128.337 99.300 L 128.400 84.400 132.800 84.400 L 137.200 84.400 137.200 89.151 C 137.200 95.526,135.588 94.951,152.913 94.760 L 167.400 94.600 167.514 99.176 C 167.669 105.423,166.751 104.952,178.089 104.606 L 187.600 104.315 187.600 108.784 C 187.600 115.444,186.679 114.923,198.140 114.748 L 207.800 114.600 208.000 119.600 L 208.200 124.600 223.600 124.600 L 239.000 124.600 239.112 119.700 L 239.225 114.800 264.012 114.800 L 288.800 114.800 288.800 119.386 C 288.800 123.511,288.878 124.014,289.574 124.386 C 290.601 124.935,308.661 124.949,309.000 124.400 C 309.162 124.137,305.879 124.000,299.447 124.000 C 293.152 124.000,289.556 123.853,289.392 123.588 C 289.252 123.361,289.267 119.046,289.426 114.000 L 289.714 104.824 294.557 104.712 L 299.400 104.600 299.411 94.000 L 299.421 83.400 299.304 93.368 C 299.162 105.319,299.625 104.400,293.751 104.400 L 289.200 104.400 289.200 108.951 C 289.200 112.272,289.055 113.623,288.663 113.948 C 288.284 114.263,280.895 114.424,263.563 114.497 L 239.000 114.600 238.901 118.600 C 238.846 120.800,238.708 123.005,238.593 123.500 L 238.385 124.400 223.635 124.400 C 210.554 124.400,208.858 124.328,208.643 123.767 C 208.509 123.419,208.400 121.058,208.400 118.520 L 208.400 113.905 198.500 114.053 L 188.600 114.200 188.488 109.107 L 188.376 104.014 178.288 103.907 L 168.200 103.800 168.200 98.900 C 168.200 95.910,168.044 93.993,167.800 93.983 C 167.580 93.974,160.830 93.929,152.800 93.884 L 138.200 93.800 138.088 88.700 L 137.976 83.600 132.975 83.600 C 129.340 83.600,127.924 83.737,127.790 84.100 M318.963 84.058 C 318.638 84.588,320.187 84.800,324.380 84.800 L 328.695 84.800 328.972 93.900 C 329.329 105.611,328.730 104.400,334.167 104.400 L 338.680 104.400 338.895 124.035 C 339.058 138.908,339.231 143.783,339.606 144.135 C 340.000 144.504,340.051 142.963,339.851 136.636 C 339.713 132.255,339.600 123.126,339.600 116.348 L 339.600 104.025 334.700 103.912 L 329.800 103.800 329.705 94.447 C 329.644 88.437,329.455 84.907,329.175 84.570 C 328.718 84.020,319.277 83.546,318.963 84.058 M138.000 129.118 L 138.200 134.200 142.662 134.313 C 148.107 134.450,147.941 134.282,148.086 139.824 L 148.200 144.200 152.896 144.313 C 158.387 144.444,157.946 143.945,158.101 150.200 L 158.200 154.200 162.200 154.299 C 168.482 154.455,168.000 154.034,168.000 159.359 C 168.000 165.214,167.135 164.764,178.632 164.893 L 188.200 165.000 188.317 169.000 C 188.498 175.179,188.820 174.800,183.380 174.800 C 180.050 174.800,178.729 174.938,178.610 175.300 C 178.299 176.243,178.196 185.126,178.498 184.939 C 178.664 184.837,178.800 182.609,178.800 179.989 L 178.800 175.225 183.700 175.112 L 188.600 175.000 188.713 170.056 C 188.863 163.451,189.803 164.000,178.351 164.000 L 168.800 164.000 168.800 159.774 C 168.800 153.841,168.950 154.000,163.386 154.000 L 158.800 154.000 158.800 149.676 C 158.800 143.910,158.930 144.044,153.200 143.909 L 148.600 143.800 148.400 139.000 L 148.200 134.200 143.400 134.000 L 138.600 133.800 138.486 129.206 C 138.423 126.679,138.243 124.483,138.086 124.324 C 137.929 124.166,137.890 126.323,138.000 129.118 M319.280 129.220 C 319.181 134.961,319.038 134.800,324.247 134.800 C 330.250 134.800,330.641 134.234,324.800 134.000 L 319.800 133.800 319.580 129.200 L 319.360 124.600 319.280 129.220 M57.393 134.900 C 57.293 135.175,57.164 137.380,57.106 139.800 L 57.000 144.200 52.200 144.400 L 47.400 144.600 47.200 149.400 L 47.000 154.200 44.400 154.318 C 42.970 154.383,38.470 154.563,34.400 154.718 L 27.000 155.000 26.800 159.800 L 26.600 164.600 21.800 164.800 L 17.000 165.000 16.902 175.200 C 16.837 181.966,16.936 185.198,17.196 184.800 C 17.423 184.452,17.590 180.216,17.594 174.700 L 17.600 165.200 22.120 165.200 C 27.788 165.200,27.600 165.388,27.600 159.727 L 27.600 155.214 37.500 155.107 L 47.400 155.000 47.512 150.100 L 47.625 145.200 52.132 145.200 C 57.787 145.200,57.600 145.388,57.600 139.720 L 57.600 135.200 67.200 135.200 L 76.800 135.200 76.800 144.957 C 76.800 156.322,76.183 155.200,82.433 155.200 L 86.800 155.200 86.800 164.567 C 86.800 176.326,86.245 175.200,92.043 175.200 L 96.800 175.200 96.800 184.626 C 96.800 196.463,96.359 195.600,102.407 195.600 L 107.186 195.600 107.293 205.500 L 107.400 215.400 112.300 215.512 L 117.200 215.625 117.200 230.200 L 117.200 244.775 112.300 244.888 L 107.400 245.000 107.288 249.900 L 107.175 254.800 102.402 254.800 C 98.092 254.800,97.588 254.875,97.214 255.574 C 96.669 256.592,96.656 265.736,97.200 265.400 C 97.430 265.258,97.600 263.132,97.600 260.384 C 97.600 254.799,97.099 255.256,103.400 255.099 L 107.400 255.000 107.499 251.000 C 107.654 244.745,107.213 245.244,112.704 245.113 L 117.400 245.000 117.400 230.200 L 117.400 215.400 112.600 215.200 L 107.800 215.000 107.693 205.432 C 107.564 194.005,107.996 194.858,102.262 194.713 L 97.800 194.600 97.600 184.800 L 97.400 175.000 92.600 174.800 L 87.800 174.600 87.693 165.032 C 87.564 153.534,88.015 154.400,82.151 154.400 L 77.600 154.400 77.600 144.880 C 77.600 138.009,77.466 135.226,77.120 134.880 C 76.417 134.177,57.649 134.197,57.393 134.900 M349.286 159.100 L 349.200 164.000 344.629 164.000 C 338.680 164.000,338.798 163.883,338.806 169.729 C 338.814 175.705,337.809 175.168,349.219 175.293 L 359.000 175.400 359.114 179.976 C 359.259 185.817,359.038 185.600,364.849 185.600 C 371.222 185.600,371.098 184.859,364.700 184.712 L 359.800 184.600 359.600 179.800 L 359.400 175.000 349.600 174.800 L 339.800 174.600 339.800 169.800 L 339.800 165.000 344.262 164.887 C 349.851 164.746,349.660 164.963,349.499 158.943 L 349.372 154.200 349.286 159.100 M228.663 164.504 C 228.063 164.943,227.988 165.655,228.087 170.004 L 228.200 175.000 248.800 175.000 L 269.400 175.000 269.513 170.004 C 269.612 165.655,269.537 164.943,268.937 164.504 C 267.935 163.772,229.665 163.772,228.663 164.504 M268.720 165.280 C 269.030 165.590,269.200 167.191,269.200 169.800 C 269.200 172.409,269.030 174.010,268.720 174.320 C 268.028 175.012,229.572 175.012,228.880 174.320 C 228.377 173.817,228.185 166.625,228.643 165.433 C 228.961 164.602,267.894 164.454,268.720 165.280 M309.067 184.667 C 308.573 185.161,308.765 194.605,309.280 195.120 C 309.942 195.782,318.858 195.782,319.520 195.120 C 320.024 194.616,320.221 186.242,319.757 185.033 C 319.505 184.376,309.694 184.040,309.067 184.667 M319.120 185.280 C 319.670 185.830,319.790 193.481,319.262 194.313 C 319.020 194.695,317.714 194.798,314.168 194.713 L 309.400 194.600 309.286 190.258 C 309.211 187.399,309.330 185.725,309.635 185.358 C 310.243 184.625,318.398 184.558,319.120 185.280 M21.600 194.781 L 26.600 195.000 26.800 199.800 L 27.000 204.600 31.661 204.712 C 37.351 204.850,37.142 204.638,37.286 210.424 L 37.400 215.000 42.200 215.200 L 47.000 215.400 47.200 220.200 L 47.400 225.000 52.200 225.200 L 57.000 225.400 57.200 230.200 L 57.400 235.000 62.200 235.200 L 67.000 235.400 67.107 245.172 C 67.190 252.723,67.099 255.017,66.707 255.266 C 66.428 255.443,61.919 255.591,56.688 255.594 L 47.175 255.600 47.288 260.500 L 47.400 265.400 52.200 265.600 L 57.000 265.800 57.200 270.600 L 57.400 275.400 62.200 275.600 L 67.000 275.800 67.099 279.800 C 67.154 282.000,67.292 284.205,67.407 284.700 L 67.615 285.600 77.128 285.600 C 83.993 285.600,86.774 285.734,87.120 286.080 C 87.801 286.761,87.801 304.839,87.120 305.520 C 86.803 305.837,85.099 306.000,82.108 306.000 L 77.575 306.000 77.688 310.900 L 77.800 315.800 87.500 315.907 C 93.883 315.978,97.200 315.875,97.200 315.607 C 97.200 315.342,93.845 315.200,87.600 315.200 L 78.000 315.200 78.000 310.800 L 78.000 306.400 82.500 306.394 C 88.570 306.386,88.032 307.463,87.907 295.572 L 87.800 285.400 77.900 285.293 L 68.000 285.186 68.000 280.622 C 68.000 274.670,68.130 274.800,62.171 274.800 L 57.600 274.800 57.600 270.043 C 57.600 264.414,58.015 264.800,51.967 264.800 L 47.600 264.800 47.600 260.400 L 47.600 256.000 57.386 256.000 C 69.270 256.000,68.002 257.300,67.994 245.126 C 67.986 233.881,68.492 234.853,62.585 234.713 L 57.800 234.600 57.686 230.024 C 57.541 224.204,57.734 224.400,52.151 224.400 L 47.600 224.400 47.600 219.880 C 47.600 214.211,47.789 214.400,42.120 214.400 L 37.600 214.400 37.600 209.880 C 37.600 204.211,37.789 204.400,32.120 204.400 L 27.600 204.400 27.600 199.880 C 27.600 194.144,27.862 194.380,21.620 194.481 L 16.600 194.562 21.600 194.781 M369.467 194.667 C 369.320 194.813,369.232 197.198,369.272 199.967 L 369.344 205.000 369.584 199.800 C 369.847 194.129,369.851 194.283,369.467 194.667 M268.888 204.737 C 268.504 204.981,268.403 206.365,268.488 210.231 L 268.600 215.400 273.488 215.512 L 278.376 215.624 278.488 220.512 L 278.600 225.400 289.000 225.400 L 299.400 225.400 299.600 220.600 L 299.800 215.800 309.288 215.693 L 318.775 215.586 318.888 220.493 L 319.000 225.400 324.400 225.400 L 329.800 225.400 329.912 220.512 L 330.024 215.624 334.912 215.512 L 339.800 215.400 339.912 210.231 C 340.047 204.034,340.408 204.414,334.380 204.406 C 328.597 204.398,328.800 204.199,328.800 209.880 L 328.800 214.400 324.400 214.400 L 320.000 214.400 320.000 209.849 C 320.000 203.910,320.937 204.364,308.950 204.493 L 299.000 204.600 298.888 209.500 L 298.775 214.400 289.188 214.400 L 279.600 214.400 279.600 209.643 C 279.600 205.674,279.495 204.845,278.967 204.643 C 278.024 204.281,269.480 204.361,268.888 204.737 M167.913 209.800 L 167.800 215.000 162.800 215.219 L 157.800 215.438 162.820 215.519 C 169.053 215.620,168.802 215.843,168.794 210.220 C 168.785 203.710,168.054 203.362,167.913 209.800 M278.737 205.324 C 278.978 205.615,279.223 207.892,279.286 210.424 L 279.400 215.000 289.200 215.000 L 299.000 215.000 299.114 210.424 C 299.265 204.337,298.444 204.800,309.075 204.800 C 320.405 204.800,319.600 204.370,319.600 210.426 L 319.600 215.225 324.500 215.112 L 329.400 215.000 329.513 210.215 C 329.648 204.536,329.386 204.814,334.620 204.806 C 339.694 204.798,339.600 204.701,339.600 210.000 C 339.600 215.351,339.759 215.200,334.120 215.200 L 329.600 215.200 329.600 219.720 C 329.600 225.359,329.751 225.200,324.400 225.200 C 319.049 225.200,319.200 225.359,319.200 219.720 L 319.200 215.200 309.212 215.200 L 299.225 215.200 299.112 220.100 L 299.000 225.000 289.450 225.107 C 277.918 225.237,278.800 225.681,278.800 219.751 L 278.800 215.200 274.280 215.200 C 268.641 215.200,268.800 215.351,268.800 210.000 C 268.800 207.236,268.967 205.593,269.280 205.280 C 269.976 204.584,278.155 204.623,278.737 205.324 M158.012 230.200 C 158.012 233.961,158.140 235.603,158.400 235.200 C 158.613 234.870,158.788 232.620,158.788 230.200 C 158.788 227.780,158.613 225.530,158.400 225.200 C 158.140 224.797,158.012 226.439,158.012 230.200 M359.467 225.067 C 359.320 225.213,359.200 229.708,359.200 235.054 L 359.200 244.775 354.300 244.888 L 349.400 245.000 349.379 250.200 L 349.358 255.400 349.493 250.824 C 349.663 245.058,349.479 245.251,354.938 245.113 L 359.400 245.000 359.600 234.900 C 359.710 229.344,359.785 224.799,359.767 224.800 C 359.748 224.800,359.613 224.920,359.467 225.067 M198.014 255.574 C 197.327 256.857,197.482 265.004,198.204 265.603 C 198.681 265.999,202.928 266.042,218.353 265.809 C 233.303 265.583,237.968 265.625,238.193 265.989 C 238.355 266.251,238.356 270.677,238.195 275.826 L 237.902 285.186 228.051 285.293 L 218.200 285.400 218.088 290.300 L 217.975 295.200 213.211 295.200 C 210.591 295.200,208.363 295.335,208.261 295.500 C 208.158 295.665,210.398 295.745,213.237 295.678 L 218.400 295.556 218.400 291.027 C 218.400 285.189,217.537 285.636,229.032 285.507 L 238.600 285.400 238.800 280.200 C 238.910 277.340,238.910 272.840,238.800 270.200 L 238.600 265.400 218.600 265.400 L 198.600 265.400 198.486 260.857 C 198.331 254.653,197.415 255.137,209.027 255.281 C 214.361 255.346,218.641 255.265,218.539 255.100 C 218.053 254.317,198.445 254.769,198.014 255.574 M143.200 265.581 L 138.200 265.800 138.189 275.500 L 138.178 285.200 138.296 275.600 L 138.414 266.000 143.184 266.000 C 145.932 266.000,148.058 265.830,148.200 265.600 C 148.336 265.380,148.392 265.236,148.324 265.281 C 148.256 265.326,145.950 265.461,143.200 265.581 M338.806 270.500 C 338.814 276.277,338.498 275.951,344.215 276.087 L 349.000 276.200 349.113 280.985 C 349.190 284.196,349.387 285.871,349.713 286.079 C 350.450 286.547,369.600 286.478,369.600 286.007 C 369.600 285.763,365.843 285.573,359.700 285.507 L 349.800 285.400 349.600 280.600 L 349.400 275.800 344.600 275.600 L 339.800 275.400 339.687 270.700 C 339.541 264.606,338.798 264.437,338.806 270.500 M248.794 280.200 L 248.600 285.400 243.800 285.600 L 239.000 285.800 238.800 290.600 L 238.600 295.400 228.600 295.600 L 218.600 295.800 218.488 300.695 C 218.355 306.498,218.738 306.177,212.226 305.936 C 209.938 305.852,208.151 305.921,208.256 306.091 C 208.581 306.617,218.180 306.460,218.720 305.920 C 219.037 305.603,219.200 303.902,219.200 300.920 L 219.200 296.400 228.720 296.400 C 240.076 296.400,239.200 296.858,239.200 290.920 L 239.200 286.400 243.700 286.394 C 249.606 286.386,249.247 286.786,249.106 280.369 L 248.987 275.000 248.794 280.200 M102.000 275.975 L 107.000 276.200 107.113 280.985 C 107.249 286.702,106.923 286.386,112.700 286.394 L 117.200 286.400 117.200 290.788 L 117.200 295.175 112.300 295.288 L 107.400 295.400 107.378 300.600 C 107.361 304.692,107.382 304.905,107.477 301.600 C 107.664 295.109,107.204 295.645,112.704 295.513 L 117.400 295.400 117.400 290.600 L 117.400 285.800 112.600 285.600 L 107.800 285.400 107.600 280.600 L 107.400 275.800 102.200 275.775 L 97.000 275.749 102.000 275.975 M374.800 295.620 L 370.200 295.840 374.700 295.920 L 379.200 296.000 379.200 305.600 L 379.200 315.200 364.800 315.200 L 350.400 315.200 350.394 310.900 C 350.391 308.535,350.213 306.330,350.000 306.000 C 349.738 305.594,349.610 306.960,349.606 310.220 C 349.602 313.443,349.759 315.199,350.080 315.520 C 350.768 316.208,378.832 316.208,379.520 315.520 C 380.060 314.980,380.234 295.743,379.700 295.524 C 379.535 295.456,377.330 295.499,374.800 295.620 M339.043 306.233 C 338.613 307.353,338.764 335.600,339.200 335.600 C 339.460 335.600,339.600 330.333,339.600 320.600 C 339.600 306.032,339.556 304.895,339.043 306.233 M138.179 320.800 L 138.200 325.800 143.000 326.000 L 147.800 326.200 147.904 346.093 L 148.007 365.987 148.904 366.194 C 149.397 366.308,151.600 366.446,153.800 366.501 L 157.800 366.600 157.913 371.062 C 158.050 376.507,157.882 376.341,163.424 376.486 L 167.800 376.600 167.914 380.976 C 167.977 383.383,168.216 385.578,168.445 385.854 C 168.899 386.401,178.876 386.842,178.539 386.300 C 178.437 386.135,176.203 386.000,173.576 386.000 L 168.800 386.000 168.800 381.429 C 168.800 375.494,168.902 375.600,163.171 375.600 L 158.800 375.600 158.800 371.229 C 158.800 365.498,158.906 365.600,152.971 365.600 L 148.400 365.600 148.400 345.880 C 148.400 331.076,148.280 326.040,147.920 325.680 C 147.603 325.363,145.905 325.200,142.933 325.200 L 138.425 325.200 138.292 320.500 L 138.159 315.800 138.179 320.800 M329.100 345.833 C 328.935 345.998,328.800 352.763,328.800 360.867 L 328.800 375.600 324.429 375.600 C 318.698 375.600,318.800 375.494,318.800 381.429 L 318.800 386.000 308.976 386.000 C 301.769 386.000,299.227 386.121,299.432 386.453 C 299.709 386.899,318.725 386.589,319.200 386.130 C 319.310 386.024,319.490 383.836,319.600 381.268 L 319.800 376.600 324.496 376.487 C 328.969 376.380,329.201 376.333,329.407 375.487 C 329.738 374.127,329.442 345.491,329.100 345.833 M218.700 376.032 C 218.095 376.384,218.000 377.089,218.000 381.215 L 218.000 385.990 202.900 386.103 L 187.800 386.215 203.000 386.207 L 218.200 386.200 218.314 381.824 C 218.471 375.840,216.814 376.401,234.349 376.394 C 244.214 376.390,249.193 376.254,248.800 376.000 C 247.970 375.464,219.624 375.494,218.700 376.032 M263.576 386.299 C 269.396 386.463,269.200 386.269,269.200 391.849 L 269.200 396.400 273.720 396.400 C 279.389 396.400,279.200 396.211,279.200 401.880 L 279.200 406.400 299.212 406.400 L 319.225 406.400 319.112 401.500 L 319.000 396.600 313.869 396.488 C 310.422 396.412,308.821 396.511,308.992 396.788 C 309.144 397.033,311.177 397.200,314.024 397.200 L 318.800 397.200 318.800 401.600 L 318.800 406.000 299.212 406.000 L 279.625 406.000 279.512 401.100 L 279.400 396.200 274.500 396.088 L 269.600 395.975 269.600 391.620 C 269.600 385.550,270.035 385.984,264.057 386.086 L 259.000 386.171 263.576 386.299 M168.435 396.958 C 168.130 397.325,168.011 398.999,168.086 401.858 L 168.200 406.200 183.200 406.200 L 198.200 406.200 198.314 401.858 C 198.389 398.999,198.270 397.325,197.965 396.958 C 197.402 396.279,187.782 396.124,188.200 396.800 C 188.342 397.029,190.404 397.200,193.024 397.200 L 197.600 397.200 197.600 401.600 L 197.600 406.000 183.200 406.000 L 168.800 406.000 168.800 401.600 L 168.800 397.200 173.376 397.200 C 175.996 397.200,178.058 397.029,178.200 396.800 C 178.618 396.124,168.998 396.279,168.435 396.958 " stroke="none" fill="#b89870" fill-rule="evenodd"></path><path id="path7" d="" stroke="none" fill="#f49820" fill-rule="evenodd"></path><path id="path8" d="M299.067 74.667 C 298.652 75.081,298.753 83.124,299.176 83.385 C 299.399 83.523,299.602 81.748,299.676 79.008 C 299.793 74.656,299.705 74.028,299.067 74.667 M308.800 79.299 L 309.000 84.200 313.900 84.312 C 317.070 84.385,318.800 84.279,318.800 84.012 C 318.800 83.753,317.096 83.600,314.213 83.600 L 309.626 83.600 309.513 79.133 C 309.449 76.614,309.225 74.607,309.000 74.532 C 308.741 74.445,308.670 76.122,308.800 79.299 M160.915 93.896 C 162.188 93.976,164.168 93.975,165.315 93.894 C 166.462 93.814,165.420 93.749,163.000 93.750 C 160.580 93.751,159.642 93.816,160.915 93.896 M329.667 99.076 C 329.630 101.538,329.735 103.637,329.900 103.740 C 330.065 103.842,330.152 102.458,330.092 100.663 C 329.907 95.056,329.737 94.421,329.667 99.076 M289.599 114.200 C 289.599 114.458,292.870 114.559,298.841 114.485 C 310.084 114.346,309.287 113.944,309.124 119.669 C 309.056 122.052,309.135 124.001,309.300 124.001 C 309.465 124.000,309.600 121.756,309.600 119.013 L 309.600 114.027 299.600 113.913 C 293.124 113.840,289.599 113.941,289.599 114.200 M132.800 114.373 L 137.400 114.600 137.514 119.194 C 137.577 121.721,137.807 123.967,138.027 124.187 C 138.292 124.452,138.387 122.843,138.313 119.393 L 138.200 114.200 133.200 114.173 L 128.200 114.146 132.800 114.373 M289.267 119.276 C 289.230 121.628,289.335 123.637,289.500 123.740 C 289.665 123.842,289.751 122.548,289.692 120.863 C 289.501 115.489,289.336 114.873,289.267 119.276 M319.600 124.500 C 319.599 124.872,320.806 125.000,324.300 125.000 L 329.000 125.000 329.000 129.500 C 329.000 132.834,329.130 134.001,329.500 134.000 C 330.190 134.000,330.209 125.169,329.520 124.480 C 328.830 123.790,319.600 123.809,319.600 124.500 M340.132 144.600 C 340.207 144.825,342.214 145.049,344.733 145.113 L 349.200 145.226 349.200 149.837 C 349.200 152.809,349.342 154.359,349.600 154.200 C 350.064 153.913,350.141 145.641,349.686 144.926 C 349.302 144.322,339.932 144.003,340.132 144.600 M16.896 185.195 C 16.203 186.305,16.206 194.400,16.900 194.399 C 17.273 194.398,17.400 193.131,17.400 189.399 C 17.400 186.649,17.398 184.399,17.396 184.400 C 17.394 184.400,17.169 184.758,16.896 185.195 M178.193 185.300 C 178.093 185.575,177.964 187.780,177.906 190.200 L 177.800 194.600 172.900 194.712 L 168.000 194.825 168.006 199.712 C 168.009 202.401,168.144 204.808,168.306 205.062 C 168.468 205.316,168.536 203.291,168.459 200.562 L 168.318 195.600 172.930 195.600 C 178.960 195.600,178.800 195.764,178.800 189.571 C 178.800 185.140,178.646 184.055,178.193 185.300 M369.500 185.432 C 369.335 185.598,369.200 187.809,369.200 190.347 C 369.200 193.524,369.329 194.831,369.614 194.546 C 369.864 194.296,369.983 192.355,369.914 189.632 C 369.851 187.156,369.665 185.266,369.500 185.432 M208.500 194.665 C 208.139 194.810,208.000 196.194,208.000 199.633 L 208.000 204.400 203.449 204.400 C 197.510 204.400,197.964 203.463,198.093 215.450 L 198.200 225.400 203.000 225.600 L 207.800 225.800 208.000 230.600 L 208.200 235.400 218.372 235.507 C 230.262 235.632,229.186 236.169,229.194 230.112 L 229.200 225.625 234.100 225.512 L 239.000 225.400 239.107 215.450 C 239.236 203.463,239.690 204.400,233.751 204.400 L 229.200 204.400 229.200 200.174 C 229.200 193.892,230.119 194.394,218.686 194.432 C 213.359 194.449,208.775 194.554,208.500 194.665 M228.400 200.200 L 228.600 205.000 233.400 205.200 L 238.200 205.400 238.200 215.000 L 238.200 224.600 233.738 224.713 C 228.293 224.850,228.459 224.682,228.314 230.224 L 228.200 234.600 218.500 234.707 L 208.800 234.814 208.800 230.221 C 208.800 224.649,208.961 224.800,203.019 224.800 L 198.786 224.800 198.893 215.100 L 199.000 205.400 203.376 205.286 C 208.943 205.140,208.800 205.279,208.800 200.018 C 208.800 197.661,208.923 195.610,209.074 195.460 C 209.224 195.309,213.589 195.234,218.774 195.293 L 228.200 195.400 228.400 200.200 M359.680 204.880 C 359.332 205.228,359.200 208.116,359.200 215.360 C 359.200 221.900,359.336 225.224,359.593 224.967 C 359.821 224.739,360.030 220.571,360.093 214.987 L 360.200 205.400 364.700 205.287 C 367.254 205.223,369.200 205.006,369.200 204.787 C 369.200 204.201,360.271 204.289,359.680 204.880 M157.613 219.900 C 157.621 222.644,157.802 224.432,158.113 224.841 C 158.504 225.355,158.600 224.509,158.600 220.542 C 158.600 216.857,158.473 215.602,158.100 215.601 C 157.730 215.600,157.603 216.719,157.613 219.900 M158.096 235.595 C 157.395 236.718,157.418 244.551,158.124 245.137 C 158.415 245.378,160.692 245.623,163.224 245.686 L 167.800 245.800 167.800 250.400 L 167.800 255.000 163.224 255.114 C 157.404 255.259,157.600 255.066,157.600 260.649 L 157.600 265.200 153.024 265.200 C 150.314 265.200,148.343 265.368,148.192 265.612 C 148.021 265.889,149.622 265.988,153.069 265.912 L 158.200 265.800 158.312 260.900 L 158.425 256.000 162.912 255.994 C 168.791 255.986,168.447 256.356,168.312 250.169 L 168.200 245.000 163.400 244.800 L 158.600 244.600 158.600 239.700 C 158.600 237.005,158.598 234.800,158.596 234.800 C 158.594 234.800,158.369 235.158,158.096 235.595 M218.633 255.193 C 218.861 255.421,223.029 255.630,228.613 255.693 L 238.200 255.800 238.264 260.531 C 238.299 263.132,238.434 265.367,238.564 265.497 C 238.694 265.627,238.836 267.818,238.880 270.367 L 238.960 275.000 239.180 270.400 L 239.400 265.800 243.800 265.800 L 248.200 265.800 248.314 270.194 C 248.377 272.611,248.608 274.768,248.828 274.988 C 249.092 275.252,249.188 273.710,249.113 270.393 L 249.000 265.400 244.200 265.200 L 239.400 265.000 239.286 260.424 C 239.134 254.304,240.105 254.800,228.271 254.800 C 221.711 254.800,218.376 254.936,218.633 255.193 M329.429 255.429 C 328.630 256.227,328.505 264.745,329.280 265.520 C 329.600 265.840,331.360 266.000,334.560 266.000 C 340.657 266.000,340.358 265.275,334.194 265.114 L 329.800 265.000 329.800 260.400 L 329.800 255.800 339.500 255.693 C 345.510 255.627,349.200 255.436,349.200 255.193 C 349.200 254.459,330.172 254.686,329.429 255.429 M87.043 265.833 C 86.581 267.037,86.776 275.016,87.280 275.520 C 87.600 275.840,89.360 276.000,92.560 276.000 C 98.657 276.000,98.358 275.275,92.194 275.114 L 87.800 275.000 87.687 270.760 C 87.548 265.552,87.435 265.668,92.823 265.499 L 97.000 265.369 92.143 265.284 C 88.031 265.213,87.248 265.297,87.043 265.833 M138.400 285.500 C 138.400 285.886,140.587 286.000,148.000 286.000 L 157.600 286.000 157.600 290.551 C 157.600 296.134,157.404 295.941,163.224 296.086 L 167.800 296.200 167.800 300.800 L 167.800 305.400 163.224 305.514 C 157.404 305.659,157.600 305.466,157.600 311.049 L 157.600 315.600 148.000 315.600 C 141.757 315.600,138.400 315.742,138.400 316.007 C 138.400 316.275,141.783 316.377,148.300 316.307 L 158.200 316.200 158.312 311.300 L 158.425 306.400 162.912 306.394 C 168.791 306.386,168.447 306.756,168.312 300.569 L 168.200 295.400 163.400 295.200 L 158.600 295.000 158.400 290.200 L 158.200 285.400 148.300 285.200 C 140.539 285.043,138.399 285.108,138.400 285.500 M369.485 286.427 C 369.312 286.772,369.222 288.932,369.285 291.227 L 369.400 295.400 374.400 295.421 L 379.400 295.441 374.713 295.308 L 370.025 295.175 369.913 290.487 C 369.850 287.866,369.661 286.076,369.485 286.427 M198.267 295.467 C 197.773 295.961,197.965 305.405,198.480 305.920 C 198.800 306.240,200.560 306.400,203.760 306.400 C 209.857 306.400,209.558 305.675,203.394 305.514 L 199.000 305.400 199.000 300.800 L 199.000 296.200 203.394 296.086 C 209.684 295.922,209.808 295.200,203.547 295.200 C 200.789 295.200,198.413 295.320,198.267 295.467 M339.409 295.700 C 338.945 297.097,339.016 306.270,339.486 305.599 C 339.774 305.187,340.018 303.137,340.086 300.552 L 340.200 296.200 344.600 296.200 L 349.000 296.200 349.114 300.552 C 349.182 303.137,349.426 305.187,349.714 305.599 C 350.184 306.270,350.255 297.097,349.791 295.700 C 349.670 295.335,348.265 295.200,344.600 295.200 C 340.935 295.200,339.530 295.335,339.409 295.700 M97.700 305.465 C 97.330 305.614,97.222 306.988,97.286 310.733 L 97.371 315.800 97.499 311.215 C 97.653 305.741,97.370 306.014,102.900 306.006 C 105.496 306.002,107.200 305.841,107.200 305.600 C 107.200 305.193,98.674 305.072,97.700 305.465 M329.280 336.080 C 328.960 336.400,328.800 338.160,328.800 341.360 C 328.800 347.457,329.525 347.158,329.686 340.994 L 329.800 336.600 334.194 336.486 C 340.358 336.325,340.657 335.600,334.560 335.600 C 331.360 335.600,329.600 335.760,329.280 336.080 M249.200 376.286 C 249.612 376.574,251.664 376.818,254.248 376.886 L 258.600 377.000 258.713 381.500 C 258.775 383.975,258.955 386.000,259.113 386.001 C 259.628 386.002,259.199 376.372,258.676 376.195 C 257.317 375.735,248.531 375.819,249.200 376.286 M178.600 386.400 C 178.742 386.629,180.804 386.800,183.424 386.800 C 186.208 386.800,188.000 386.643,188.000 386.400 C 188.000 386.155,186.125 386.000,183.176 386.000 C 180.063 386.000,178.440 386.142,178.600 386.400 M289.067 386.267 C 288.440 386.894,288.776 396.705,289.433 396.957 C 290.555 397.388,309.270 397.237,309.000 396.800 C 308.847 396.552,305.212 396.400,299.425 396.400 C 288.328 396.400,289.129 396.816,289.286 391.142 L 289.400 387.000 294.516 386.888 C 301.155 386.743,300.926 386.000,294.243 386.000 C 291.543 386.000,289.213 386.120,289.067 386.267 M178.200 396.800 C 178.040 397.059,179.804 397.200,183.200 397.200 C 186.596 397.200,188.360 397.059,188.200 396.800 C 188.058 396.570,185.937 396.400,183.200 396.400 C 180.463 396.400,178.342 396.570,178.200 396.800 " stroke="none" fill="#e89820" fill-rule="evenodd"></path></g></svg>