<svg id="svg" version="1.1" xmlns="http://www.w3.org/2000/svg" xmlns:xlink="http://www.w3.org/1999/xlink" width="400" height="455.4621848739496" viewBox="0, 0, 400,455.4621848739496"><g id="svgg"><path id="path0" d="M80.900 139.465 C 80.536 139.612,80.400 141.074,80.400 144.833 L 80.400 150.000 85.357 150.000 C 91.200 150.000,90.800 150.397,90.800 144.600 C 90.800 138.836,91.130 139.194,85.857 139.232 C 83.406 139.249,81.175 139.354,80.900 139.465 M292.593 139.700 C 292.493 139.975,292.363 142.270,292.305 144.800 L 292.200 149.400 282.307 149.507 L 272.414 149.614 272.307 159.507 L 272.200 169.400 267.200 169.600 L 262.200 169.800 262.088 174.688 L 261.976 179.576 257.088 179.688 L 252.200 179.800 252.088 184.657 L 251.976 189.515 242.000 189.808 L 232.024 190.101 231.912 194.950 L 231.800 199.800 221.900 199.907 L 212.000 200.014 212.000 205.014 L 212.000 210.014 201.900 209.907 L 191.800 209.800 191.688 204.900 L 191.575 200.000 181.600 200.000 L 171.624 200.000 171.512 194.900 L 171.400 189.800 161.400 189.783 C 155.900 189.773,153.605 189.824,156.300 189.895 L 161.200 190.025 161.200 194.800 L 161.200 199.576 166.300 199.688 L 171.400 199.800 171.512 204.900 L 171.624 210.000 176.612 210.000 L 181.600 210.000 181.600 215.000 L 181.600 220.000 201.588 220.000 L 221.575 220.000 221.688 215.100 L 221.800 210.200 227.100 210.088 L 232.400 209.977 232.400 205.188 L 232.400 200.400 242.400 200.400 L 252.400 200.400 252.400 195.412 L 252.400 190.424 257.500 190.312 L 262.600 190.200 262.712 185.100 L 262.824 180.000 267.812 180.000 L 272.800 180.000 272.800 175.000 L 272.800 170.000 277.800 170.000 L 282.800 170.000 282.800 165.000 L 282.800 160.000 287.800 160.000 L 292.800 160.000 292.800 155.000 L 292.800 150.000 297.800 150.000 L 302.800 150.000 302.800 144.843 C 302.800 140.509,302.699 139.647,302.167 139.443 C 300.897 138.955,292.785 139.173,292.593 139.700 M141.479 179.855 C 141.325 180.008,141.200 182.263,141.200 184.867 L 141.200 189.600 146.212 189.600 L 151.225 189.600 151.112 184.700 L 151.000 179.800 146.379 179.688 C 143.837 179.626,141.632 179.701,141.479 179.855 M120.800 295.400 L 120.800 300.400 115.600 300.400 L 110.400 300.400 110.400 305.400 L 110.400 310.400 105.337 310.400 L 100.273 310.400 100.537 318.264 C 100.681 322.590,100.800 329.430,100.800 333.464 L 100.800 340.800 111.000 340.800 L 121.200 340.800 121.200 345.749 L 121.200 350.698 131.188 350.992 L 141.176 351.285 141.288 356.143 L 141.400 361.000 146.400 361.000 L 151.400 361.000 151.512 356.100 L 151.625 351.200 156.412 351.200 L 161.200 351.200 161.200 341.200 L 161.200 331.200 156.412 331.200 L 151.625 331.200 151.512 336.100 L 151.400 341.000 141.200 341.000 L 131.000 341.000 130.888 336.112 L 130.776 331.224 125.888 331.112 L 121.000 331.000 121.000 315.800 L 121.000 300.600 125.900 300.488 L 130.800 300.375 130.800 295.388 L 130.800 290.400 125.800 290.400 L 120.800 290.400 120.800 295.400 M221.912 315.500 L 221.800 320.600 216.800 320.800 L 211.800 321.000 211.800 336.000 L 211.800 351.000 216.800 351.200 L 221.800 351.400 221.912 356.300 L 222.025 361.200 227.012 361.200 L 232.000 361.200 232.000 366.200 L 232.000 371.200 241.988 371.200 L 251.976 371.200 252.088 366.100 L 252.200 361.000 257.088 360.888 L 261.976 360.776 262.088 355.888 L 262.200 351.000 272.100 350.893 L 282.000 350.786 282.000 346.017 C 282.000 343.268,282.170 341.142,282.400 341.000 C 282.633 340.856,282.800 338.592,282.800 335.564 L 282.800 330.376 277.700 330.488 L 272.600 330.600 272.488 335.900 L 272.377 341.200 257.188 341.200 L 242.000 341.200 242.000 336.200 L 242.000 331.200 237.043 331.200 C 231.005 331.200,231.600 332.406,231.600 320.167 L 231.600 310.400 226.812 310.400 L 222.024 310.400 221.912 315.500 M287.900 351.099 L 282.800 351.224 282.800 355.932 C 282.800 362.094,283.730 361.600,272.120 361.600 L 262.400 361.600 262.400 371.388 L 262.400 381.175 267.300 381.288 L 272.200 381.400 272.400 386.400 L 272.600 391.400 282.488 391.507 L 292.375 391.614 292.488 396.507 L 292.600 401.400 312.900 401.504 L 333.200 401.607 333.200 396.404 L 333.200 391.200 328.200 391.200 L 323.200 391.200 323.200 381.000 L 323.200 370.800 318.200 370.800 L 313.200 370.800 313.200 365.800 L 313.200 360.800 308.000 360.800 L 302.800 360.800 302.800 355.800 L 302.800 350.800 297.900 350.887 C 295.205 350.935,290.705 351.030,287.900 351.099 M80.800 396.400 L 80.800 431.600 90.788 431.600 L 100.775 431.600 100.888 426.700 L 101.000 421.800 105.888 421.688 L 110.776 421.576 110.888 416.688 L 111.000 411.800 116.000 411.600 L 121.000 411.400 121.112 406.512 L 121.224 401.624 126.112 401.512 L 131.000 401.400 131.112 396.512 L 131.224 391.624 136.112 391.512 L 141.000 391.400 141.112 386.400 L 141.223 381.400 136.112 381.400 L 131.000 381.400 130.888 376.512 L 130.776 371.624 125.888 371.512 L 121.000 371.400 120.888 366.565 L 120.776 361.729 106.088 361.465 C 98.010 361.320,89.015 361.201,86.100 361.201 L 80.800 361.200 80.800 396.400 " stroke="none" fill="#9d0b12" fill-rule="evenodd"></path><path id="path1" d="M251.860 28.300 C 251.758 28.465,253.232 28.552,255.137 28.493 C 261.528 28.295,262.238 28.145,257.124 28.072 C 254.332 28.032,251.963 28.135,251.860 28.300 M110.573 68.800 C 110.573 74.190,110.630 76.395,110.699 73.700 C 110.768 71.005,110.768 66.595,110.699 63.900 C 110.630 61.205,110.573 63.410,110.573 68.800 M120.954 64.000 C 120.954 66.750,121.018 67.875,121.096 66.500 C 121.174 65.125,121.174 62.875,121.096 61.500 C 121.018 60.125,120.954 61.250,120.954 64.000 M40.800 74.000 L 40.800 78.800 45.400 78.800 L 50.000 78.800 50.000 74.000 L 50.000 69.200 45.400 69.200 L 40.800 69.200 40.800 74.000 M333.200 74.000 L 333.200 78.800 337.800 78.800 L 342.400 78.800 342.400 74.000 L 342.400 69.200 337.800 69.200 L 333.200 69.200 333.200 74.000 M30.800 84.000 L 30.800 88.800 35.400 88.800 L 40.000 88.800 40.000 84.000 L 40.000 79.200 35.400 79.200 L 30.800 79.200 30.800 84.000 M343.200 84.000 L 343.200 88.800 348.000 88.800 L 352.800 88.800 352.800 84.000 L 352.800 79.200 348.000 79.200 L 343.200 79.200 343.200 84.000 M171.600 119.188 L 171.600 129.200 176.607 129.200 L 181.614 129.200 181.507 119.300 L 181.400 109.400 176.500 109.288 L 171.600 109.175 171.600 119.188 M232.000 119.188 L 232.000 129.200 237.007 129.200 L 242.014 129.200 241.907 119.300 L 241.800 109.400 236.900 109.288 L 232.000 109.175 232.000 119.188 M70.800 124.400 L 70.800 129.200 75.600 129.200 L 80.400 129.200 80.400 124.400 L 80.400 119.600 75.600 119.600 L 70.800 119.600 70.800 124.400 M302.800 124.400 L 302.800 129.200 307.600 129.200 L 312.400 129.200 312.400 124.400 L 312.400 119.600 307.600 119.600 L 302.800 119.600 302.800 124.400 M101.123 144.177 L 101.245 149.155 106.223 149.277 L 111.201 149.400 111.201 144.300 L 111.200 139.200 106.100 139.199 L 101.000 139.199 101.123 144.177 M282.000 144.388 L 282.000 149.176 276.900 149.301 L 271.800 149.426 277.100 149.513 L 282.400 149.600 282.400 144.600 C 282.400 141.850,282.310 139.600,282.200 139.600 C 282.090 139.600,282.000 141.755,282.000 144.388 M211.878 149.855 C 211.725 150.008,211.600 152.258,211.600 154.854 L 211.600 159.575 206.700 159.688 L 201.800 159.800 201.800 164.600 L 201.800 169.400 216.800 169.400 L 231.800 169.400 231.800 164.600 L 231.800 159.800 226.912 159.688 L 222.024 159.576 221.912 154.688 L 221.800 149.800 216.978 149.688 C 214.326 149.627,212.031 149.702,211.878 149.855 M130.973 159.600 C 130.973 164.990,131.030 167.195,131.099 164.500 C 131.168 161.805,131.168 157.395,131.099 154.700 C 131.030 152.005,130.973 154.210,130.973 159.600 M103.500 169.896 C 104.875 169.974,107.125 169.974,108.500 169.896 C 109.875 169.818,108.750 169.754,106.000 169.754 C 103.250 169.754,102.125 169.818,103.500 169.896 M83.516 179.497 C 84.899 179.575,87.059 179.574,88.316 179.495 C 89.572 179.416,88.440 179.352,85.800 179.353 C 83.160 179.353,82.132 179.418,83.516 179.497 M115.987 179.893 L 120.776 180.024 120.906 184.712 L 121.037 189.400 121.018 184.600 L 121.000 179.800 116.099 179.781 L 111.199 179.761 115.987 179.893 M201.693 189.900 L 201.800 199.800 206.600 199.800 L 211.400 199.800 211.507 189.900 L 211.614 180.000 206.600 180.000 L 201.586 180.000 201.693 189.900 M130.955 195.000 C 130.956 197.860,131.020 198.978,131.097 197.483 C 131.174 195.989,131.174 193.649,131.096 192.283 C 131.018 190.918,130.955 192.140,130.955 195.000 M151.373 190.526 C 151.262 190.815,151.223 193.020,151.286 195.426 L 151.400 199.800 161.288 200.150 L 171.176 200.500 171.308 205.350 L 171.440 210.200 171.420 205.000 L 171.400 199.800 166.300 199.688 L 161.200 199.576 161.200 194.788 L 161.200 190.000 156.387 190.000 C 152.781 190.000,151.524 190.132,151.373 190.526 M181.355 215.000 C 181.356 217.860,181.420 218.978,181.497 217.483 C 181.574 215.989,181.574 213.649,181.496 212.283 C 181.418 210.918,181.355 212.140,181.355 215.000 M221.867 210.267 C 221.426 210.707,221.554 220.000,222.000 220.000 C 222.244 220.000,222.400 218.137,222.400 215.212 L 222.400 210.424 227.500 210.299 L 232.600 210.174 227.367 210.087 C 224.488 210.039,222.013 210.120,221.867 210.267 M153.916 220.297 C 155.299 220.375,157.459 220.374,158.716 220.295 C 159.972 220.216,158.840 220.152,156.200 220.153 C 153.560 220.153,152.532 220.218,153.916 220.297 M123.916 229.897 C 125.299 229.975,127.459 229.974,128.716 229.895 C 129.972 229.816,128.840 229.752,126.200 229.753 C 123.560 229.753,122.532 229.818,123.916 229.897 M150.800 255.388 L 150.800 260.800 156.023 260.800 L 161.246 260.800 161.123 265.801 L 161.000 270.801 166.300 270.801 L 171.600 270.800 171.600 265.400 L 171.600 260.000 166.612 260.000 L 161.625 260.000 161.512 255.100 L 161.400 250.200 156.100 250.088 L 150.800 249.977 150.800 255.388 M196.700 270.699 C 199.395 270.768,203.805 270.768,206.500 270.699 C 209.195 270.630,206.990 270.573,201.600 270.573 C 196.210 270.573,194.005 270.630,196.700 270.699 M186.800 280.351 L 181.400 280.600 181.288 285.500 L 181.175 290.400 176.188 290.400 L 171.200 290.400 171.200 295.400 L 171.200 300.400 166.188 300.400 L 161.177 300.400 161.288 305.700 L 161.400 311.000 166.700 311.112 L 172.000 311.223 172.000 306.212 L 172.000 301.200 177.000 301.200 L 182.000 301.200 182.000 296.200 L 182.000 291.200 206.900 291.114 C 220.595 291.067,229.685 290.971,227.100 290.901 L 222.400 290.775 222.400 285.811 C 222.400 283.081,222.238 280.747,222.040 280.625 C 221.496 280.288,192.962 280.066,186.800 280.351 M211.200 315.400 L 211.200 320.400 206.200 320.400 L 201.200 320.400 201.200 336.000 L 201.200 351.600 206.200 351.600 L 211.200 351.600 211.200 356.600 L 211.200 361.600 216.400 361.600 L 221.600 361.600 221.600 366.600 L 221.600 371.600 226.600 371.600 L 231.600 371.600 231.600 376.600 L 231.600 381.600 241.600 381.600 L 251.600 381.600 251.600 386.600 L 251.600 391.600 261.800 391.600 L 272.000 391.600 272.000 396.800 L 272.000 402.000 282.000 402.000 L 292.000 402.000 292.000 407.000 L 292.000 412.000 312.600 412.000 L 333.200 412.000 333.200 406.804 L 333.200 401.607 312.900 401.504 L 292.600 401.400 292.488 396.507 L 292.375 391.614 282.488 391.507 L 272.600 391.400 272.400 386.400 L 272.200 381.400 262.100 381.293 L 252.000 381.186 252.000 376.193 L 252.000 371.200 242.000 371.200 L 232.000 371.200 232.000 366.200 L 232.000 361.200 227.012 361.200 L 222.025 361.200 221.912 356.300 L 221.800 351.400 216.800 351.200 L 211.800 351.000 211.800 336.000 L 211.800 321.000 216.800 320.800 L 221.800 320.600 221.912 315.500 L 222.024 310.400 216.612 310.400 L 211.200 310.400 211.200 315.400 M90.400 330.588 L 90.400 340.800 85.400 340.800 L 80.400 340.800 80.400 350.800 L 80.400 360.800 75.400 360.800 L 70.400 360.800 70.400 396.400 L 70.400 432.000 75.400 432.000 L 80.400 432.000 80.400 437.000 L 80.400 442.000 90.800 442.000 L 101.200 442.000 101.200 437.000 L 101.200 432.000 106.200 432.000 L 111.200 432.000 111.200 427.000 L 111.200 422.000 116.400 422.000 L 121.600 422.000 121.600 417.000 L 121.600 412.000 126.600 412.000 L 131.600 412.000 131.600 407.000 L 131.600 402.000 136.600 402.000 L 141.600 402.000 141.600 396.800 L 141.600 391.600 146.600 391.600 L 151.600 391.600 151.600 381.600 L 151.600 371.600 156.600 371.600 L 161.600 371.600 161.600 361.600 L 161.600 351.600 166.800 351.600 L 172.000 351.600 172.000 336.000 L 172.000 320.400 166.863 320.400 L 161.727 320.400 161.463 328.264 C 161.319 332.590,161.200 339.520,161.200 343.664 L 161.200 351.200 156.400 351.200 L 151.600 351.200 151.600 355.920 C 151.600 361.816,151.809 361.600,146.120 361.600 L 141.600 361.600 141.544 364.900 C 141.514 366.715,141.379 373.420,141.244 379.800 L 141.000 391.400 136.112 391.512 L 131.224 391.624 131.112 396.512 L 131.000 401.400 126.112 401.512 L 121.224 401.624 121.112 406.512 L 121.000 411.400 116.000 411.600 L 111.000 411.800 110.888 416.688 L 110.776 421.576 105.888 421.688 L 101.000 421.800 100.888 426.700 L 100.775 431.600 90.788 431.600 L 80.800 431.600 80.800 396.400 L 80.800 361.200 85.800 361.200 L 90.800 361.200 90.800 351.212 L 90.800 341.225 95.700 341.112 L 100.600 341.000 100.600 330.800 L 100.600 320.600 95.500 320.488 L 90.400 320.376 90.400 330.588 " stroke="none" fill="#17175e" fill-rule="evenodd"></path><path id="path2" d="M121.064 26.257 C 120.728 36.290,120.728 51.674,121.064 61.300 L 121.326 68.800 126.263 68.800 L 131.200 68.800 131.200 63.800 L 131.200 58.800 136.200 58.800 L 141.200 58.800 141.200 53.800 L 141.200 48.800 151.200 48.800 L 161.200 48.800 161.200 43.812 L 161.200 38.825 156.300 38.712 L 151.400 38.600 151.200 33.600 L 151.000 28.600 146.112 28.488 L 141.224 28.376 141.112 23.488 L 141.000 18.600 131.164 18.493 L 121.327 18.386 121.064 26.257 M40.000 63.400 L 40.000 68.400 35.000 68.400 L 30.000 68.400 30.000 73.400 L 30.000 78.400 25.000 78.400 L 20.000 78.400 20.000 84.000 L 20.000 89.600 25.000 89.600 L 30.000 89.600 30.000 94.200 L 30.000 98.800 25.000 98.800 L 20.000 98.800 20.000 104.200 L 20.000 109.600 25.000 109.600 L 30.000 109.600 30.000 114.600 L 30.000 119.600 40.000 119.600 L 50.000 119.600 50.000 124.600 L 50.000 129.600 55.000 129.600 L 60.000 129.600 60.000 139.800 L 60.000 150.000 65.600 150.000 L 71.200 150.000 71.200 145.024 L 71.200 140.047 75.900 139.826 C 78.485 139.704,82.742 139.503,85.361 139.377 C 91.344 139.091,90.887 138.168,90.563 149.900 L 90.295 159.600 95.547 159.600 L 100.800 159.600 100.800 164.600 L 100.800 169.600 105.800 169.600 L 110.800 169.600 110.800 174.588 L 110.800 179.576 115.900 179.688 L 121.000 179.800 121.112 184.900 L 121.224 190.000 126.212 190.000 L 131.200 190.000 131.200 195.000 L 131.200 200.000 136.200 200.000 L 141.200 200.000 141.200 205.000 L 141.200 210.000 146.200 210.000 L 151.200 210.000 151.200 215.000 L 151.200 220.000 161.400 220.000 L 171.600 220.000 171.600 240.200 L 171.600 260.400 176.600 260.400 L 181.600 260.400 181.600 265.404 L 181.600 270.407 201.700 270.304 L 221.800 270.200 221.912 265.300 L 222.025 260.400 227.012 260.400 L 232.000 260.400 232.000 240.200 L 232.000 220.000 201.800 220.000 L 171.600 220.000 171.600 215.000 L 171.600 210.000 166.600 210.000 L 161.600 210.000 161.600 205.012 L 161.600 200.024 156.500 199.912 L 151.400 199.800 151.283 195.600 C 151.219 193.290,151.268 190.992,151.393 190.493 L 151.619 189.586 161.509 189.693 L 171.400 189.800 171.512 194.900 L 171.624 200.000 181.600 200.000 L 191.575 200.000 191.688 204.900 L 191.800 209.800 201.900 209.907 L 212.000 210.014 212.000 205.014 L 212.000 200.014 221.900 199.907 L 231.800 199.800 231.912 194.950 L 232.024 190.101 242.000 189.808 L 251.976 189.515 252.088 184.657 L 252.200 179.800 257.088 179.688 L 261.976 179.576 262.088 174.688 L 262.200 169.800 267.200 169.600 L 272.200 169.400 272.307 159.507 L 272.414 149.614 262.307 149.507 L 252.200 149.400 252.200 144.400 L 252.200 139.400 257.100 139.288 L 262.000 139.175 262.000 103.988 L 262.000 68.800 257.000 68.800 L 252.000 68.800 252.000 63.793 L 252.000 58.786 242.100 58.893 L 232.200 59.000 232.088 63.888 L 231.976 68.776 227.088 68.888 L 222.200 69.000 222.000 79.000 L 221.800 89.000 216.912 89.112 L 212.024 89.224 211.912 94.112 L 211.800 99.000 206.800 99.000 L 201.800 99.000 201.688 94.112 L 201.576 89.224 196.688 89.112 L 191.800 89.000 191.600 79.000 L 191.400 69.000 186.512 68.888 L 181.624 68.776 181.512 63.888 L 181.400 59.000 166.500 58.895 L 151.600 58.790 151.600 63.515 C 151.600 69.437,151.836 69.200,145.920 69.200 L 141.200 69.200 141.200 104.188 L 141.200 139.175 146.100 139.288 L 151.000 139.400 151.000 144.400 L 151.000 149.400 141.107 149.507 L 131.214 149.614 131.107 159.507 L 131.000 169.400 126.100 169.512 L 121.200 169.625 121.200 164.612 L 121.200 159.600 116.200 159.600 L 111.200 159.600 111.200 155.033 C 111.200 148.757,111.598 149.200,105.957 149.200 L 101.200 149.200 101.200 144.443 C 101.200 138.805,101.635 139.200,95.426 139.200 L 90.917 139.200 90.708 132.500 C 90.593 128.815,90.647 115.900,90.827 103.800 C 91.008 91.700,91.166 76.535,91.178 70.100 L 91.200 58.400 85.800 58.400 L 80.400 58.400 80.400 68.400 L 80.400 78.400 70.600 78.400 L 60.800 78.400 60.800 73.400 L 60.800 68.400 55.800 68.400 L 50.800 68.400 50.800 63.400 L 50.800 58.400 45.400 58.400 L 40.000 58.400 40.000 63.400 M292.000 98.800 L 292.000 139.200 287.200 139.200 L 282.400 139.200 282.400 144.412 L 282.400 149.625 287.300 149.512 L 292.200 149.400 292.400 144.400 L 292.600 139.400 297.400 139.494 C 300.040 139.545,304.495 139.690,307.300 139.816 L 312.400 140.046 312.400 145.023 L 312.400 150.000 317.800 150.000 L 323.200 150.000 323.200 139.800 L 323.200 129.600 328.200 129.600 L 333.200 129.600 333.200 124.600 L 333.200 119.600 343.200 119.600 L 353.200 119.600 353.200 114.600 L 353.200 109.600 358.400 109.600 L 363.600 109.600 363.600 104.200 L 363.600 98.800 358.400 98.800 L 353.200 98.800 353.200 94.212 L 353.200 89.624 358.300 89.512 L 363.400 89.400 363.400 84.000 L 363.400 78.600 358.300 78.488 L 353.200 78.376 353.200 73.388 L 353.200 68.400 348.200 68.400 L 343.200 68.400 343.200 63.400 L 343.200 58.400 337.800 58.400 L 332.400 58.400 332.400 63.400 L 332.400 68.400 327.400 68.400 L 322.400 68.400 322.400 73.400 L 322.400 78.400 312.600 78.400 L 302.800 78.400 302.800 68.400 L 302.800 58.400 297.400 58.400 L 292.000 58.400 292.000 98.800 M50.000 74.000 L 50.000 78.800 45.400 78.800 L 40.800 78.800 40.800 74.000 L 40.800 69.200 45.400 69.200 L 50.000 69.200 50.000 74.000 M342.400 74.000 L 342.400 78.800 337.800 78.800 L 333.200 78.800 333.200 74.000 L 333.200 69.200 337.800 69.200 L 342.400 69.200 342.400 74.000 M40.000 84.000 L 40.000 88.800 35.400 88.800 L 30.800 88.800 30.800 84.000 L 30.800 79.200 35.400 79.200 L 40.000 79.200 40.000 84.000 M352.800 84.000 L 352.800 88.800 348.000 88.800 L 343.200 88.800 343.200 84.000 L 343.200 79.200 348.000 79.200 L 352.800 79.200 352.800 84.000 M181.507 119.300 L 181.614 129.200 176.607 129.200 L 171.600 129.200 171.600 119.188 L 171.600 109.175 176.500 109.288 L 181.400 109.400 181.507 119.300 M241.907 119.300 L 242.014 129.200 237.007 129.200 L 232.000 129.200 232.000 119.188 L 232.000 109.175 236.900 109.288 L 241.800 109.400 241.907 119.300 M80.400 124.400 L 80.400 129.200 75.600 129.200 L 70.800 129.200 70.800 124.400 L 70.800 119.600 75.600 119.600 L 80.400 119.600 80.400 124.400 M312.400 124.400 L 312.400 129.200 307.600 129.200 L 302.800 129.200 302.800 124.400 L 302.800 119.600 307.600 119.600 L 312.400 119.600 312.400 124.400 M221.912 154.688 L 222.024 159.576 226.912 159.688 L 231.800 159.800 231.800 164.600 L 231.800 169.400 216.800 169.400 L 201.800 169.400 201.800 164.600 L 201.800 159.800 206.700 159.688 L 211.600 159.575 211.600 154.854 C 211.600 149.120,211.149 149.553,216.978 149.688 L 221.800 149.800 221.912 154.688 M151.112 184.700 L 151.225 189.600 146.212 189.600 L 141.200 189.600 141.200 184.867 C 141.200 179.129,140.777 179.552,146.379 179.688 L 151.000 179.800 151.112 184.700 M211.507 189.900 L 211.400 199.800 206.600 199.800 L 201.800 199.800 201.693 189.900 L 201.586 180.000 206.600 180.000 L 211.614 180.000 211.507 189.900 M130.800 295.388 L 130.800 300.375 125.900 300.488 L 121.000 300.600 121.000 315.800 L 121.000 331.000 125.888 331.112 L 130.776 331.224 130.888 336.112 L 131.000 341.000 141.200 341.000 L 151.400 341.000 151.512 336.112 L 151.624 331.224 156.512 331.112 L 161.400 331.000 161.507 320.888 L 161.614 310.776 156.507 310.888 L 151.400 311.000 151.288 315.900 L 151.175 320.800 146.181 320.800 L 141.186 320.800 141.293 310.700 L 141.400 300.600 146.300 300.488 L 151.200 300.375 151.200 295.388 L 151.200 290.400 141.000 290.400 L 130.800 290.400 130.800 295.388 M252.400 305.388 L 252.400 310.375 257.300 310.488 L 262.200 310.600 262.312 315.700 L 262.424 320.800 252.224 320.800 L 242.025 320.800 241.912 315.900 L 241.800 311.000 236.700 310.888 L 231.600 310.776 231.600 320.355 C 231.600 332.379,231.008 331.200,237.043 331.200 L 242.000 331.200 242.000 336.200 L 242.000 341.200 257.137 341.200 L 272.273 341.200 272.537 333.336 C 272.681 329.010,272.800 322.080,272.800 317.936 L 272.800 310.400 267.800 310.400 L 262.800 310.400 262.800 305.400 L 262.800 300.400 257.600 300.400 L 252.400 300.400 252.400 305.388 M95.700 341.099 L 90.800 341.225 90.800 351.149 L 90.800 361.073 98.664 361.337 C 102.990 361.481,109.734 361.600,113.652 361.600 L 120.775 361.600 120.888 366.500 L 121.000 371.400 125.888 371.512 L 130.776 371.624 130.888 376.512 L 131.000 381.400 135.908 381.512 C 139.623 381.597,140.856 381.500,140.982 381.112 C 141.074 380.831,141.270 376.325,141.419 371.100 L 141.690 361.600 146.345 361.520 L 151.000 361.439 146.200 361.220 L 141.400 361.000 141.288 356.143 L 141.176 351.285 131.188 350.992 L 121.200 350.698 121.200 345.749 L 121.200 340.800 110.900 340.886 C 105.235 340.934,98.395 341.030,95.700 341.099 M282.267 341.067 C 282.120 341.213,282.000 343.460,282.000 346.060 L 282.000 350.786 272.100 350.893 L 262.200 351.000 262.088 355.888 L 261.976 360.776 257.088 360.888 L 252.200 361.000 252.093 371.100 L 251.986 381.200 257.193 381.200 L 262.400 381.200 262.400 371.400 L 262.400 361.600 272.120 361.600 C 283.732 361.600,282.800 362.095,282.800 355.920 L 282.800 351.200 287.800 351.200 L 292.800 351.200 292.800 346.000 L 292.800 340.800 287.667 340.800 C 284.843 340.800,282.413 340.920,282.267 341.067 " stroke="none" fill="#9c6444" fill-rule="evenodd"></path><path id="path3" d="M120.800 13.000 L 120.800 18.000 110.600 18.000 L 100.400 18.000 100.400 23.000 L 100.400 28.000 95.400 28.000 L 90.400 28.000 90.400 33.200 L 90.400 38.400 85.400 38.400 L 80.400 38.400 80.400 43.800 L 80.400 49.200 90.388 49.200 L 100.375 49.200 100.488 54.100 L 100.600 59.000 105.700 59.112 L 110.800 59.224 110.800 68.812 L 110.800 78.400 105.600 78.400 L 100.400 78.400 100.400 83.600 L 100.400 88.800 95.600 88.800 L 90.800 88.800 90.700 104.300 C 90.605 119.038,90.766 138.875,90.983 139.109 C 91.039 139.169,95.619 139.217,101.161 139.215 L 111.238 139.212 111.199 144.506 C 111.177 147.418,111.168 152.005,111.180 154.700 L 111.200 159.600 116.200 159.600 L 121.200 159.600 121.200 164.600 L 121.200 169.600 125.993 169.600 L 130.786 169.600 130.893 159.700 L 131.000 149.800 141.000 149.600 L 151.000 149.400 151.000 144.400 L 151.000 139.400 146.100 139.288 L 141.200 139.175 141.200 104.188 L 141.200 69.200 145.920 69.200 C 151.836 69.200,151.600 69.437,151.600 63.515 L 151.600 58.790 166.500 58.895 L 181.400 59.000 181.512 63.888 L 181.624 68.776 186.512 68.888 L 191.400 69.000 191.600 79.000 L 191.800 89.000 196.688 89.112 L 201.576 89.224 201.688 94.112 L 201.800 99.000 206.800 99.000 L 211.800 99.000 211.912 94.112 L 212.024 89.224 216.912 89.112 L 221.800 89.000 222.000 79.000 L 222.200 69.000 227.088 68.888 L 231.976 68.776 232.088 63.888 L 232.200 59.000 242.100 58.893 L 252.000 58.786 252.000 63.793 L 252.000 68.800 257.000 68.800 L 262.000 68.800 262.000 103.988 L 262.000 139.175 257.100 139.288 L 252.200 139.400 252.200 144.400 L 252.200 149.400 257.000 149.530 C 259.640 149.601,266.345 149.536,271.900 149.385 L 282.000 149.110 282.000 144.378 C 282.000 141.656,282.170 139.542,282.400 139.400 C 282.660 139.239,282.800 130.329,282.800 113.976 L 282.800 88.800 277.802 88.800 L 272.804 88.800 272.702 53.500 L 272.600 18.200 267.400 18.200 L 262.200 18.200 262.088 23.322 L 261.976 28.444 256.820 28.322 C 253.985 28.255,251.672 28.290,251.680 28.400 C 251.688 28.510,251.673 30.805,251.647 33.500 L 251.600 38.400 242.000 38.400 L 232.400 38.400 232.400 33.200 L 232.400 28.000 222.200 28.000 L 212.000 28.000 212.000 23.000 L 212.000 18.000 197.000 18.000 L 182.000 18.000 182.000 13.000 L 182.000 8.000 151.400 8.000 L 120.800 8.000 120.800 13.000 M141.112 23.488 L 141.224 28.376 146.112 28.488 L 151.000 28.600 151.200 33.600 L 151.400 38.600 156.300 38.712 L 161.200 38.825 161.200 43.812 L 161.200 48.800 151.200 48.800 L 141.200 48.800 141.200 53.800 L 141.200 58.800 136.200 58.800 L 131.200 58.800 131.200 63.800 L 131.200 68.800 126.010 68.800 L 120.820 68.800 120.804 51.900 C 120.795 42.605,120.908 31.262,121.056 26.693 L 121.324 18.386 131.162 18.493 L 141.000 18.600 141.112 23.488 M90.400 169.653 L 90.400 179.641 85.500 179.574 L 80.600 179.506 80.495 194.965 L 80.391 210.423 85.695 210.312 L 91.000 210.200 91.112 205.300 L 91.225 200.400 111.012 200.400 L 130.800 200.400 130.800 205.400 L 130.800 210.400 135.800 210.400 L 140.800 210.400 140.800 215.000 L 140.800 219.600 135.800 219.600 L 130.800 219.600 130.800 224.833 L 130.800 230.065 125.799 229.933 L 120.799 229.800 120.799 245.312 L 120.800 260.823 126.100 260.712 L 131.400 260.600 131.512 255.700 L 131.625 250.800 141.212 250.800 C 147.518 250.800,150.800 250.659,150.800 250.388 C 150.800 250.121,152.661 250.016,156.100 250.088 L 161.400 250.200 161.512 255.100 L 161.625 260.000 166.612 260.000 L 171.600 260.000 171.600 240.000 L 171.600 220.000 176.400 220.000 L 181.200 220.000 181.200 215.000 L 181.200 210.000 176.400 210.000 L 171.600 210.000 171.600 214.944 L 171.600 219.889 161.757 220.181 C 156.343 220.342,151.759 220.319,151.570 220.130 C 151.381 219.941,151.176 217.630,151.114 214.994 L 151.000 210.200 146.100 210.088 L 141.200 209.975 141.200 204.988 L 141.200 200.000 136.000 200.000 L 130.800 200.000 130.800 195.012 L 130.800 190.025 125.900 189.912 L 121.000 189.800 120.888 184.912 L 120.776 180.024 115.888 179.912 L 111.000 179.800 110.888 174.912 L 110.776 170.024 105.888 169.912 L 101.000 169.800 100.800 164.800 L 100.600 159.800 95.500 159.732 L 90.400 159.664 90.400 169.653 M161.600 205.200 L 161.600 210.000 166.400 210.000 L 171.200 210.000 171.200 205.200 L 171.200 200.400 166.400 200.400 L 161.600 200.400 161.600 205.200 M222.400 215.200 L 222.400 220.000 227.200 220.000 L 232.000 220.000 232.000 240.200 L 232.000 260.400 227.012 260.400 L 222.025 260.400 221.912 265.300 L 221.800 270.200 212.200 270.545 C 206.920 270.734,197.875 270.759,192.100 270.599 L 181.600 270.309 181.600 265.355 L 181.600 260.400 176.600 260.400 L 171.600 260.400 171.599 263.300 C 171.598 264.895,171.480 269.305,171.336 273.100 L 171.074 280.000 165.937 280.000 L 160.800 280.000 160.800 285.200 L 160.800 290.400 156.000 290.400 L 151.200 290.400 151.200 295.388 L 151.200 300.375 146.300 300.488 L 141.400 300.600 141.293 310.700 L 141.186 320.800 146.181 320.800 L 151.175 320.800 151.288 315.900 L 151.400 311.000 156.300 310.888 L 161.200 310.775 161.200 305.588 L 161.200 300.400 166.200 300.400 L 171.200 300.400 171.200 295.400 L 171.200 290.400 176.188 290.400 L 181.175 290.400 181.288 285.500 L 181.400 280.600 191.664 280.251 C 197.511 280.052,206.289 280.052,212.064 280.251 L 222.200 280.600 222.312 285.700 L 222.424 290.800 227.005 290.800 L 231.586 290.800 231.693 300.700 L 231.800 310.600 236.800 310.800 L 241.800 311.000 241.912 315.900 L 242.025 320.800 252.224 320.800 L 262.424 320.800 262.312 315.700 L 262.200 310.600 257.300 310.488 L 252.400 310.375 252.400 305.388 L 252.400 300.400 247.400 300.400 L 242.400 300.400 242.400 290.200 L 242.400 280.000 237.400 280.000 L 232.400 280.000 232.400 270.400 L 232.400 260.800 237.400 260.800 L 242.400 260.800 242.400 240.200 L 242.400 219.600 237.400 219.600 L 232.400 219.600 232.400 215.000 L 232.400 210.400 227.400 210.400 L 222.400 210.400 222.400 215.200 M150.800 265.400 L 150.800 270.000 140.800 270.000 L 130.800 270.000 130.800 275.400 L 130.800 280.800 141.200 280.800 L 151.600 280.800 151.600 275.813 L 151.600 270.825 156.300 270.713 L 161.000 270.600 161.112 265.700 L 161.225 260.800 156.012 260.800 L 150.800 260.800 150.800 265.400 " stroke="none" fill="#2444bc" fill-rule="evenodd"></path></g></svg>