<?xml version="1.0" encoding="utf-8"?>
<!-- Generator: Adobe Illustrator 24.0.0, SVG Export Plug-In . SVG Version: 6.00 Build 0)  -->
<svg version="1.1" id="Layer_1" xmlns="http://www.w3.org/2000/svg" xmlns:xlink="http://www.w3.org/1999/xlink" x="0px" y="0px"
	 viewBox="0 0 800 800" style="enable-background:new 0 0 800 800;" xml:space="preserve">
<style type="text/css">
	.st0{fill:#189ED7;}
	.st1{fill:#FFFFFF;}
	.st2{fill:#FDBB30;}
</style>
<g>
	<g>
		<path d="M50.01,330.74c-0.01,4.45-0.01,8.89,0,13.34c0.04,5.39-0.03,10.77-0.01,16.16c0.01,4.63,0,9.26,0.01,13.89
			c-0.03,5.54,0.04,11.09,0,16.64C50,393.84,50,396.92,50,400c3.38-0.01,6.76,0,10.14,0c4.9,0,9.81,0,14.72,0c4.8,0,9.6,0,14.4,0
			c3.58,0,7.16,0,10.74,0.01c-0.01-3.44-0.02-6.87,0-10.3c0-4.52,0-9.03,0-13.55c-0.02-5.35-0.01-10.71-0.01-16.06
			c0.01-4.77,0.01-9.54,0-14.3c-0.01-5.55,0-11.1,0-16.65c0.01-4.51,0.01-9.02,0-13.53c0-5.19-0.05-10.38,0.08-15.56
			c1.89-0.04,3.78-0.07,5.67-0.07c4.72,0.01,9.44,0.01,14.16,0c5.3,0,10.6-0.01,15.89,0c4.73,0.02,9.46-0.01,14.19,0.03
			c0.05,4.93,0.01,9.85,0.04,14.78c-0.01,5.32-0.02,10.64-0.01,15.96c-0.01,4.75-0.02,9.5,0.01,14.24c0.01,1.7,0.03,3.39,0.03,5.09
			c4.44-0.17,8.89-0.09,13.33-0.1c6.11-0.02,12.21,0.01,18.31-0.01c4.12,0,8.24,0,12.36,0c1.98-0.01,3.97-0.02,5.95-0.02
			c0-1.63,0-3.27,0-4.9c0-5.02,0-10.04,0-15.06c0-4.98,0-9.96,0-14.94c0-5.04,0-10.09,0-15.13c0-4.95,0-9.9,0-14.85
			c0-5.04,0-10.08,0-15.12c0-4.93,0-9.86,0-14.78c0-1.73,0-3.46,0-5.19c3.05,0.01,6.11,0.01,9.16,0c5.56,0,11.12,0,16.68-0.01
			c4.63,0.02,9.26,0.03,13.89,0.01c3.41-0.01,6.82,0.01,10.23,0.08c0.02,1.74,0.06,3.48,0.06,5.21c-0.01,4.41-0.02,8.81-0.01,13.22
			c-0.01,5.81,0.02,11.63,0.01,17.44c-0.03,4.68,0.05,9.34-0.09,14.01c1.7-0.01,3.4,0.01,5.1,0.02c4.74,0.05,9.48,0.03,14.22,0.02
			c5.78-0.01,11.55-0.01,17.33,0c4.22,0.01,8.44,0.01,12.66,0c5.51,0,11.03-0.01,16.54,0c4.48,0.01,8.96,0.01,13.44,0
			c5.51,0,11.02-0.01,16.52,0c4.72,0.01,9.44,0.01,14.16,0c5.3,0,10.61-0.01,15.91,0c4.48,0.01,8.96,0.01,13.44,0
			c5.77-0.01,11.55-0.01,17.33,0c4.22,0.01,8.44,0.01,12.66,0c5.51,0,11.03-0.01,16.54,0c4.48,0.02,8.96,0.01,13.44,0
			c5.51,0,11.02-0.01,16.52,0c4.72,0.01,9.44,0.01,14.16,0c5.3,0,10.61-0.01,15.91,0c4.48,0.01,8.96,0.02,13.44,0
			c5.77-0.01,11.55-0.01,17.33,0c4.22,0.01,8.44,0.01,12.66,0.01c3.61-0.01,7.22-0.03,10.83-0.1c-0.13-4.67-0.06-9.34-0.09-14.01
			c-0.01-5.59,0.03-11.18,0.01-16.78c0.02-4.74-0.01-9.49,0-14.23c0.02-1.61,0.04-3.22,0.07-4.83c1.92-0.02,3.84-0.03,5.75-0.05
			c4.45-0.01,8.9,0.01,13.35-0.01c5.56,0,11.12-0.01,16.68,0c4.72,0.01,9.44,0.01,14.16,0c0,1.67,0,3.34,0,5.01
			c0,5.01,0,10.03,0,15.04c0,4.99,0,9.97,0,14.96c0,5,0,10,0,14.99c0,5,0,10.01,0,15.01c0,5.02,0,10.04,0,15.07
			c0,4.97,0,9.95,0,14.92c0,1.67,0,3.33,0,5c4.75-0.01,9.5,0,14.25,0c5.57,0.03,11.13-0.03,16.7-0.01
			c4.12-0.01,8.24,0.02,12.36,0.01c2.2-0.01,4.4-0.06,6.6-0.11c0.03-1.57,0.05-3.14,0.07-4.71c0.03-4.79,0.02-9.57,0.01-14.36
			c0.01-5.34,0-10.67-0.01-16.01c0.06-4.91-0.08-9.83,0.09-14.73c3.08-0.13,6.19-0.06,9.29-0.08c5.47-0.02,10.94,0,16.42,0
			c4.48,0.01,8.96,0.01,13.44,0c3.57-0.01,7.14-0.01,10.71,0.08c0.13,5.48,0.08,10.97,0.08,16.46c-0.01,4.22-0.01,8.43,0,12.65
			c0.01,5.53,0,11.07,0,16.6c-0.01,4.68-0.01,9.36,0,14.05c0,5.3,0.01,10.59,0,15.89c-0.01,4.51-0.01,9.02,0,13.53
			c0.01,3.58,0,7.17,0,10.75c1.62,0,3.23,0,4.85,0c5.02,0,10.03,0,15.05,0c4.99,0,9.98,0.01,14.97,0c5.05,0,10.11,0,15.17-0.01
			c-0.08-3.84-0.07-7.69-0.07-11.53c0.02-4.23,0.02-8.46,0.01-12.69c-0.04-5.3,0.03-10.6,0.01-15.89c-0.01-4.71,0-9.42-0.01-14.13
			c0.03-5.5-0.03-11-0.01-16.5c0.02-4.51,0.02-9.01,0-13.52c0-5.21,0.07-10.42-0.09-15.63c-5.21-0.14-10.42-0.07-15.63-0.09
			c-4.71-0.01-9.43-0.01-14.14,0c-5.56,0-11.13,0.01-16.7,0c-1.13-0.01-2.26-0.02-3.4-0.03c-0.05-4.78-0.01-9.56-0.02-14.33
			c-0.03-5.32-0.01-10.63-0.01-15.94c0.01-4.52,0.01-9.03,0.01-13.55c-0.02-5.35-0.01-10.71-0.01-16.06c0.01-4.77,0.01-9.54,0-14.3
			c-0.01-5.55,0-11.1,0.01-16.65c0-3.05,0-6.1,0-9.15c-3.55,0-7.11,0-10.66,0c-4.73,0-9.46,0-14.2,0c-5.09,0-10.19,0-15.28,0
			c-3.29,0-6.58,0-9.87-0.01c-0.01-1.92-0.01-3.85,0-5.77c0.01-4.47,0.01-8.93,0-13.4c0-5.53,0.01-11.06,0-16.59
			c0.01-4.46,0.02-8.93,0-13.39c-0.03-5.34,0.03-10.68,0-16.03c0.01-4.88,0.01-9.77,0.01-14.66c0-5.56-0.01-11.13-0.01-16.69
			c-0.01-1.14-0.02-2.27-0.03-3.41c-1.13-0.01-2.26-0.02-3.39-0.03c-5.78-0.01-11.56,0-17.34-0.01c-4.46-0.01-8.92-0.01-13.38-0.01
			c-5.28,0.02-10.56-0.01-15.84,0.04c0-3.35-0.01-6.71-0.01-10.07c0-4.99,0-9.98,0-14.97c0-5,0-10.01,0-15.01
			c-0.01-3.33,0.02-6.66-0.04-9.99c-5.28-0.01-10.56,0.04-15.84,0.02c-4.47,0.01-8.94-0.02-13.4-0.01c-5.55-0.01-11.1,0-16.65,0.02
			c-1.39,0.02-2.78,0.04-4.17,0.07c0.04-1.4,0.06-2.79,0.07-4.19c0.02-5.6,0.03-11.2,0.02-16.8c0.01-4.4,0.01-8.79,0-13.19
			C549.95,10.61,550.01,5.31,550,0H250c-0.01,5.26,0.05,10.52,0.01,15.78c-0.01,4.24-0.01,8.48,0.01,12.71
			c-0.02,5.82-0.01,11.64,0.01,17.46c0.01,1.39,0.03,2.78,0.05,4.16c-3.27-0.08-6.55-0.1-9.82-0.1c-5.38-0.03-10.76,0.04-16.14,0.01
			c-4.47,0.01-8.93-0.02-13.4-0.01c-3.57,0.01-7.15-0.02-10.72-0.01c0,3.29,0,6.58,0,9.87c0,5.1,0,10.19,0,15.29
			c-0.02,4.9,0,9.81,0,14.71c0,3.39,0.01,6.78,0.04,10.16c-1.44,0-2.89-0.01-4.33-0.01c-5.49-0.01-10.99,0-16.48-0.01
			c-4.22-0.01-8.44-0.01-12.66,0c-5.52,0.06-11.06-0.12-16.57,0.14c0.01,1.08,0.02,2.16,0.02,3.24c-0.01,5.55-0.03,11.1-0.02,16.65
			c0,4.73,0,9.46,0.01,14.2c-0.02,5.52,0.02,11.05,0,16.57c-0.02,4.48-0.01,8.96,0.01,13.44c-0.02,5.51-0.02,11.03-0.01,16.55
			c-0.01,4.49-0.01,8.97,0,13.45c0.01,1.92,0.01,3.83,0.02,5.74c-4.97,0.02-9.93,0-14.9,0.01c-5.01,0-10.02,0-15.04,0
			c-4.99,0-9.98-0.01-14.97,0c-1.71,0-3.41,0-5.12,0c0.01,3.06,0,6.12,0.01,9.18c0.01,5.53,0.01,11.07,0,16.6
			c-0.01,4.68-0.01,9.36,0,14.05c0,5.3,0.01,10.59,0,15.89c-0.01,4.51-0.01,9.02,0,13.53c0.01,5.54,0.01,11.08,0,16.63
			c-0.02,4.7,0.01,9.4-0.02,14.1c-3.08,0.04-6.16,0.02-9.24,0.04c-5.77,0-11.55,0-17.33-0.01c-4.21-0.01-8.43-0.01-12.65,0
			c-3.62,0-7.23,0-10.85,0.08c0.14,4.68,0.07,9.35,0.1,14.02C50.03,319.65,49.99,325.2,50.01,330.74z"/>
		<path d="M300.06,449.91c5.22,0.15,10.44,0.07,15.67,0.07c4.48,0.01,8.97,0.01,13.45,0c5.87,0,11.74,0.01,17.6,0.02
			c1.11,0.01,2.22,0.04,3.33,0.08c-0.16-5.35-0.14-10.7-0.13-16.05c0.02-4.11,0.02-8.22,0.01-12.32c0-5.89,0-11.78,0-17.66
			c0.01-4.41,0.01-8.82,0-13.23c-0.04-5.53,0.03-11.05,0-16.58c0.01-4.7,0-9.4,0.01-14.09c0.01-3.36,0-6.71-0.09-10.07
			c-1.57-0.02-3.14-0.04-4.72-0.05c-4.88-0.05-9.77-0.02-14.66-0.03c-5.46,0.01-10.93,0.02-16.4,0.01
			c-4.65-0.02-9.31,0.03-13.97-0.04c-0.22,3.36-0.16,6.72-0.16,10.14c0.01,4.7-0.01,9.4,0.01,14.11c0.01,5.53,0,11.06,0,16.6
			c-0.01,2.98,0.03,5.96-0.03,8.94c-0.02,7.01,0.07,14.01,0.03,21.01c-0.01,4.2-0.01,8.41,0,12.61
			C300.04,438.89,299.97,444.4,300.06,449.91z"/>
		<path d="M499.94,350.06c-1.92-0.02-3.85-0.04-5.77-0.05c-4.64-0.01-9.27-0.01-13.91,0c-5.23,0.01-10.46,0.01-15.69-0.01
			c-4.82-0.01-9.62,0.05-14.43-0.05c-0.16,3.38-0.15,6.77-0.14,10.15c0.01,4.72,0,9.44,0.01,14.15c-0.03,5.5,0.03,11,0.01,16.5
			c-0.02,4.51-0.02,9.02,0,13.52c-0.01,5.77-0.01,11.53,0,17.29c-0.02,4.23-0.02,8.45,0,12.68c0.04,5.23-0.1,10.45,0.07,15.68
			c5.08,0.12,10.16,0.09,15.23,0.06c4.89-0.03,9.77,0.02,14.65,0.01c5.62,0.01,11.23,0.02,16.85-0.01c1.01-0.02,2.02-0.02,3.03-0.01
			c0.25-5.28,0.09-10.59,0.14-15.89c0.01-4.43,0.01-8.86,0-13.29c-0.01-5.51,0-11.02,0-16.53c0.01-4.49,0.01-8.97,0.01-13.45
			c-0.01-5.53-0.02-11.06-0.01-16.59c0.02-4.69,0-9.38,0.01-14.07C499.99,356.79,499.99,353.42,499.94,350.06z"/>
		<path d="M750,600c0-4.75,0.01-9.5-0.01-14.25c0.03-5.5-0.03-11-0.01-16.5c0.02-4.51,0.02-9.01,0-13.52
			c0.01-5.76,0.01-11.53,0-17.29c0.04-4.23-0.01-8.46,0.02-12.68c-0.02-5.65-0.03-11.66,0.01-17.3c-0.21-2.68,0.16-5.53,0.05-8.23
			c-5.26-0.4-10.58-0.17-15.85-0.21c-4.82-0.03-9.64-0.02-14.46-0.02c-6.55,0.01-13.09,0.06-19.63-0.12
			c-0.17-6.6-0.13-13.19-0.13-19.78c0.01-4.77,0.01-9.54,0-14.3c-0.01-5.55,0-11.1,0-16.65c0.01-4.51,0.01-9.02,0-13.53
			c-0.01-5.48-0.01-10.97,0-16.45c0.01-4.15,0.01-8.3,0-12.44c-0.01-2.24,0-4.48,0-6.72c-3.33-0.01-6.65-0.02-9.98-0.01
			c-5.03,0-10.07,0-15.1,0c-4.95,0-9.9,0-14.84,0c-5.05,0-10.1,0-15.15,0c-4.98,0-9.95,0-14.93,0c-5.01,0-10.03,0-15.05,0
			c-4.98,0-9.97,0-14.95-0.01c0.01,1.67,0.01,3.33,0.01,4.99c0,5,0,10.01,0,15.01s0,10.01,0,15.01s0,10,0,15
			c-5.26-0.01-10.52,0.04-15.78,0.02c-4.5,0-9-0.01-13.5,0c-5.78-0.03-11.56,0.02-17.35,0.01c-1.05-0.15-2.1-0.2-3.16-0.14
			c-0.33,5.06-0.19,10.22-0.2,15.3c-0.01,4.88-0.01,9.76-0.01,14.64c-0.01,5.31,0.02,10.63,0.01,15.94c-0.01,1.4-0.02,2.8-0.03,4.2
			c-3.09,0.04-6.18,0.03-9.27,0.04c-5.48,0-10.96,0.02-16.44,0c-4.51-0.02-9.01,0-13.52-0.01c-5.51,0.02-11.03,0.02-16.54,0.01
			c-4.82-0.01-9.64-0.01-14.46-0.01c-40.25-0.22-80.5-0.12-120.75-0.15c-4.61-0.05-9.21,0.1-13.82,0.15
			c-4.8,0.02-9.6-0.01-14.4,0.01c-5.55,0.01-11.09,0.01-16.64,0c-4.53-0.01-9.06-0.01-13.59-0.01c-5.43,0.01-10.86,0.03-16.28,0.01
			c-4.51-0.01-9.01-0.01-13.52-0.01c-5.64,0.02-11.29,0.02-16.94,0c-1.35,0-2.71-0.01-4.06-0.03c0.08-1.28,0.15-2.56,0.21-3.84
			c0.1-9.81,0.05-19.64,0.04-29.46v-0.93c-0.02-5.31,0.07-10.61-0.13-15.91c-1.87-0.52-3.11,0.3-4.82,0.29
			c-1.74-1.15-3.42,1.15-4.93-0.23c-5.28,0.25-10.63,0.05-15.9,0.16c-4.5-0.06-9-0.03-13.5-0.03c-3.57,0-7.15-0.03-10.72-0.02
			c0-4.98,0-9.96,0-14.95c0-5.04-0.01-10.08,0-15.11c0-4.96,0-9.92,0-14.89c0-1.68,0-3.36,0-5.05c-1.69,0.01-3.38,0-5.07,0
			c-4.96,0-9.91,0-14.86,0c-5.05,0-10.1,0-15.15,0c-4.98,0-9.95,0-14.92,0c-5.02,0-10.04,0-15.06,0c-4.97,0-9.94,0-14.91,0
			c-5.04,0-10.07,0-15.11,0c-1.64,0-3.27,0-4.91,0.01c0.01,2.5,0.01,4.99,0.01,7.48c-0.02,3.91-0.03,7.82-0.01,11.72
			c0.01,5.77,0.01,11.55,0,17.32c-0.01,4.22-0.01,8.43,0,12.65c0.01,5.53,0,11.07,0,16.6c-0.01,4.68-0.01,9.36,0,14.05
			c0,5.31,0.01,10.63,0,15.94c0,1.4-0.01,2.8-0.03,4.2c-3.09,0.05-6.19,0.03-9.28,0.05c-5.52,0-11.04,0-16.56-0.01
			c-4.53-0.02-9.06-0.01-13.59-0.01c-3.49-0.01-6.99,0.01-10.48,0.1c-0.04,3.56-0.04,7.11-0.06,10.67c-0.01,4.46-0.01,8.93,0,13.39
			c0,5.9,0,11.8,0,17.7c-0.01,4.08-0.01,8.17,0.01,12.25c0.02,5.54-0.03,11.09-0.01,16.63c-0.01,4.45-0.01,8.89,0,13.34
			c0.04,5.3-0.02,10.59-0.01,15.89c3.33,0.04,6.65,0.02,9.98,0.03c5,0,10,0,15.01,0c4.98,0,9.96,0,14.94,0
			c3.32,0,6.67-0.09,9.99,0.15c0.2,5.18,0.06,10.39,0.08,15.57c0.01,4.51,0,9.02,0.01,13.53c0.02,5.79-0.01,11.59,0.01,17.39
			c0.01,1.11,0.02,2.21,0.04,3.32c1.64,0.02,3.28,0.03,4.92,0.03c5.05-0.02,10.11,0.02,15.17,0.01c4.89-0.01,9.79-0.02,14.68-0.02
			c5.04,0.03,10.08,0,15.12,0.06c0.06,3.58,0.08,7.17,0.06,10.76c-0.01,4.67-0.01,9.33,0.01,14c-0.01,5.32-0.02,10.64-0.01,15.97
			c-0.01,4.5-0.01,9.01,0,13.52c0.01,5.25-0.02,10.5-0.01,15.75c0,4.73,0.01,9.46,0.01,14.2c-0.01,5.22-0.03,10.45,0.07,15.67
			c5.56,0.16,11.11,0.04,16.68,0.07c3.9-0.04,7.79,0.01,11.69,0c5.62-0.01,11.24,0.03,16.86-0.01c1.58-0.02,3.15-0.02,4.73-0.03
			c-0.06,5.09-0.03,10.18-0.04,15.27c0,4.89,0,9.77,0,14.66c0,5.1,0,10.2,0,15.29c0,1.62-0.01,3.23-0.02,4.84h149.98
			c0-2,0.02-4,0.03-6c0.01-4.1,0.01-8.2,0-12.29c0-5.89,0-11.78,0-17.66c0.01-4.72,0.04-9.43-0.07-14.14
			c3.32,0.07,6.65,0.07,9.98,0.08c5.29,0.03,10.59-0.04,15.88-0.01c4.5-0.01,9,0.02,13.5,0c5.82,0.03,11.65-0.01,17.48,0
			c3.9-0.04,7.8,0.01,11.69,0c6.04,0.01,12.07,0.02,18.11,0c4.51,0.01,9.01,0.02,13.52-0.07c-0.11,4.78-0.08,9.57-0.07,14.36
			c0,5.77,0,11.53,0.01,17.29c-0.02,4.23-0.03,8.45,0,12.68c0.01,1.92,0.02,3.84,0.02,5.76H600c0-1.67,0-3.34,0-5.01c0-5,0-10,0-15
			c0-4.99,0-9.99,0-14.99s0-9.99,0-14.99c5.26-0.01,10.52-0.05,15.78-0.03c4.5,0.01,9-0.02,13.5,0.03
			c5.83,0.01,11.74-0.12,17.54,0.04c0.98-0.08,1.97-0.03,2.96,0.13c0.35-5.09,0.2-10.26,0.2-15.37c0.02-4.88,0.02-9.77,0.02-14.66
			c0.01-5.32-0.02-10.63,0-15.95c0-4.46,0-8.93-0.01-13.39c0.01-5.34,0-10.67-0.01-16.01c0.02-4.66,0.03-9.32,0.01-13.98
			c-0.01-3.59,0.01-7.19,0.04-10.79c3.6-0.03,7.2-0.05,10.8-0.04c4.66,0,9.32,0,13.98-0.01c5.33,0.02,10.66,0.02,15.99,0.01
			c3.05,0.01,6.1,0.01,9.15-0.02c0.01-1.08,0.02-2.15,0.03-3.23c0.01-5.8,0-11.61,0.01-17.41c0.03-4.39,0-8.78,0.01-13.16
			c0.04-5.34-0.17-10.71,0.13-16.04c1.65-0.12,3.27-0.14,4.92-0.15c4.99,0.02,9.97,0.03,14.95,0.02c5.01,0,10.01,0,15.02,0
			C740.01,600,745,600,750,600z"/>
	</g>
	<path class="st0" d="M269,49.82c85.67,0,171.33,0,257,0c7.94,0.03,15.83-0.21,23.75,0.43c0.97,16.47,0.1,33.04,0.52,49.53
		c16.54,0.27,33.12-0.27,49.65,0.28c0.36,6,0.25,11.94,0.26,17.94c-0.01,23.67-0.01,47.33,0,71c0.01,3.64-0.09,7.26-0.29,10.89
		c-16.55,0.63-33.14,0.11-49.7,0.3c-0.01,12.94-0.02,25.88,0.01,38.81c0.02,3.61-0.18,7.21-0.47,10.81
		c-7.61,0.58-15.1,0.33-22.73,0.37c-8.94-0.04-17.89,0.08-26.82-0.07c-0.07-3.46-0.16-6.91-0.22-10.37
		c-0.06-4.86-0.07-9.72,0.01-14.57c0.12-5.11,0.12-10.2,0.01-15.3c-0.06-3.26-0.06-6.51-0.06-9.76c-1.63-0.02-3.26-0.04-4.89-0.06
		c-5.02-0.12-10.04-0.12-15.07-0.02c-4.96,0.06-9.92,0.05-14.89,0.01c-5.02-0.1-10.04-0.1-15.07,0c-4.98,0.04-9.97,0.04-14.95,0.01
		c-5.04-0.09-10.08-0.13-15.13-0.02c-4.94,0.05-9.89,0.05-14.83,0.01c-5.05-0.09-10.09-0.11-15.13-0.01
		c-4.98,0.05-9.96,0.05-14.94,0.01c-5.02-0.1-10.03-0.12-15.06-0.01c-4.96,0.06-9.92,0.05-14.89,0.01c-5.02-0.11-10.03-0.1-15.06,0
		c-4.98,0.04-9.97,0.04-14.95-0.01c-4.98-0.06-10.02-0.22-14.99,0.09c-0.19,3.25-0.13,6.49-0.06,9.75
		c0.1,5.07,0.09,10.15,0.02,15.23c-0.12,4.93-0.08,9.85,0.03,14.78c0.05,3.41-0.1,6.81-0.29,10.21c-8.92,0.17-17.85,0.05-26.77,0.09
		c-7.63-0.04-15.12,0.21-22.73-0.37c-0.29-3.6-0.49-7.2-0.47-10.81c0.03-12.93,0.02-25.87,0.02-38.8
		c-16.56-0.21-33.16,0.32-49.71-0.31c-0.4-6.64-0.28-13.25-0.29-19.89c0.01-21,0.01-42,0-63c0.01-5.67-0.08-11.29,0.25-16.95
		c16.54-0.52,33.11-0.01,49.66-0.27c0.18-13.6,0.06-27.2,0.07-40.8c0.01-2.89,0.16-5.78,0.53-8.65
		C256.41,49.56,262.81,49.85,269,49.82z"/>
	<path class="st0" d="M350.11,450.08c15.63-0.53,31.25,0.07,46.89-0.25c17.66,0.32,35.28-0.33,52.91,0.34
		c0.23,4.96,0.19,9.91,0.13,14.87c-0.11,4.99-0.1,9.96,0,14.95c0.05,6.54-0.01,13.08,0.15,19.63c-10.72,0.29-21.46,0.08-32.19,0.14
		c-22.71-0.06-45.43,0.12-68.14-0.09c0.03-1.53,0.06-3.05,0.1-4.58c0.13-5.08,0.11-10.16,0.01-15.24c-0.06-4.89-0.06-9.78,0-14.67
		C350.07,460.15,350.07,455.11,350.11,450.08z"/>
	<path class="st0" d="M250.27,600.31c4.13-0.75,8.55-0.48,12.73-0.51c22,0.05,44,0.01,66,0.02c6.96,0.03,13.97-0.14,20.92,0.21
		c0.42,7.63,0.22,15.33,0.26,22.97c-0.05,8.98,0.24,17.89-0.43,26.86c-2.91,0.17-5.81,0.31-8.73,0.31
		c-24.67,0.02-49.35,0-74.02,0.01c-5.61-0.01-11.15,0.1-16.76-0.23c-0.79-11.28-0.27-22.65-0.42-33.95
		C249.91,610.82,249.42,605.43,250.27,600.31z"/>
	<path class="st0" d="M450.29,600.28c4.46-0.79,9.2-0.42,13.71-0.47c25.34,0.03,50.67,0.01,76.01,0c3.32,0,6.63,0.1,9.95,0.3
		c0.38,7.94,0.17,15.93,0.22,23.89c-0.06,8.7,0.25,17.23-0.42,25.9c-5.94,0.4-11.82,0.27-17.76,0.28c-24.34-0.01-48.68,0-73.02-0.01
		c-2.92,0-5.82-0.11-8.73-0.29c-0.78-11.25-0.3-22.6-0.43-33.88C449.9,610.81,449.45,605.41,450.29,600.28z"/>
	<path class="st1" d="M549.71,500.29c4.46-0.79,9.2-0.42,13.71-0.47c25.34,0.03,50.67,0.01,76.01,0c3.32,0,6.63,0.1,9.95,0.3
		c0.38,7.94,0.17,15.93,0.22,23.89c-0.06,8.7,0.25,17.23-0.42,25.9c-5.94,0.4-11.82,0.27-17.76,0.28c-24.34-0.01-48.68,0-73.02-0.01
		c-2.92,0-5.82-0.11-8.73-0.29c-0.78-11.25-0.3-22.6-0.43-33.88C549.32,510.82,548.87,505.42,549.71,500.29z"/>
	<path class="st1" d="M549.71,550.27c4.46-0.79,9.2-0.42,13.71-0.47c25.34,0.03,50.67,0.01,76.01,0c3.32,0,6.63,0.1,9.95,0.3
		c0.38,7.94,0.17,15.93,0.22,23.89c-0.06,8.7,0.25,17.23-0.42,25.9c-5.94,0.4-11.82,0.27-17.76,0.28c-24.34-0.01-48.68,0-73.02-0.01
		c-2.92,0-5.82-0.11-8.73-0.29c-0.78-11.25-0.3-22.6-0.43-33.88C549.32,560.8,548.87,555.4,549.71,550.27z"/>
	<path class="st1" d="M150.08,500.29c4.46-0.79,9.2-0.42,13.71-0.47c25.34,0.03,50.67,0.01,76.01,0c3.32,0,6.63,0.1,9.95,0.3
		c0.38,7.94,0.17,15.93,0.22,23.89c-0.06,8.7,0.25,17.23-0.42,25.9c-5.94,0.4-11.82,0.27-17.76,0.28c-24.34-0.01-48.68,0-73.02-0.01
		c-2.92,0-5.82-0.11-8.73-0.29c-0.78-11.25-0.3-22.6-0.43-33.88C149.69,510.82,149.24,505.42,150.08,500.29z"/>
	<path class="st1" d="M150.08,550.27c4.46-0.79,9.2-0.42,13.71-0.47c25.34,0.03,50.67,0.01,76.01,0c3.32,0,6.63,0.1,9.95,0.3
		c0.38,7.94,0.17,15.93,0.22,23.89c-0.06,8.7,0.25,17.23-0.42,25.9c-5.94,0.4-11.82,0.27-17.76,0.28c-24.34-0.01-48.68,0-73.02-0.01
		c-2.92,0-5.82-0.11-8.73-0.29c-0.78-11.25-0.3-22.6-0.43-33.88C149.69,560.8,149.24,555.4,150.08,550.27z"/>
	<path class="st0" d="M200.3,650.25c4.13-0.73,8.52-0.41,12.7-0.45c12.31,0.14,24.64-0.2,36.94,0.22
		c0.55,16.55,0.06,33.16,0.27,49.73c25.26,0.19,50.53,0.04,75.79,0.09c8.02,0.06,15.88-0.26,23.87,0.32
		c0.5,7.97,0.27,15.82,0.31,23.84c-0.05,8.6,0.25,17.13-0.43,25.71c-3.58,0.24-7.16,0.47-10.75,0.47c-43,0-86,0-129.01,0.01
		c-3.33-0.01-6.65-0.14-9.97-0.34c-0.32-6.59-0.18-13.24-0.2-19.85c-0.01-22.33,0.03-44.66-0.01-67
		C199.83,658.81,199.55,654.38,200.3,650.25z"/>
	<path class="st2" d="M350.39,650.31c2.19-0.44,4.34-0.51,6.57-0.53c24.01,0.08,48.03,0.02,72.04,0.04
		c6.91,0.03,13.9-0.15,20.79,0.24c0.63,8.61,0.3,17.25,0.37,25.94c-0.06,7.92,0.25,15.91-0.29,23.79
		c-7.63,0.56-15.23,0.35-22.87,0.38c-22,0-44-0.02-66,0.01c-3.63,0.01-7.25-0.17-10.87-0.39c-0.64-10.91-0.13-21.87-0.29-32.79
		C349.95,661.5,349.39,655.73,350.39,650.31z"/>
	<path class="st0" d="M550.31,650.29c3.77-0.73,7.86-0.46,11.7-0.49c12.62,0.03,25.24,0.04,37.86,0c0.2,3.39,0.32,6.79,0.32,10.19
		c-0.02,23.34-0.01,46.68-0.01,70.01c-0.02,6.68,0.14,13.23-0.26,19.89c-6.65,0.41-13.27,0.28-19.92,0.29c-34.67,0-69.33,0-104,0
		c-8.6-0.03-17.16,0.22-25.75-0.46c-0.67-8.59-0.38-17.12-0.43-25.72c0.04-8.02-0.19-15.87,0.31-23.84
		c7.99-0.58,15.84-0.26,23.87-0.32c25.26-0.05,50.53,0.1,75.79-0.09c0.05-12.58,0.06-25.16,0.01-37.75
		C549.81,658.17,549.56,654.05,550.31,650.29z"/>
</g>
</svg>
